<svg xmlns="http://www.w3.org/2000/svg" viewBox="0 0 180 55"><defs><style>.cls-1{isolation:isolate;}.cls-2{fill:#f2f2f2;}.cls-3{fill:#e6e7e7;}.cls-4{mix-blend-mode:multiply;}.cls-5{fill:#fff;}.cls-6{fill:#febd1f;}.cls-7{fill:#ffd366;}.cls-8{fill:#fdc20f;}.cls-9{fill:#668f3d;}.cls-10{fill:#8fc640;}.cls-11{fill:#bb2026;}.cls-12{fill:#ef4237;}.cls-13{fill:#231f20;}.cls-14{fill:#24295f;}</style></defs><g class="cls-1"><g id="Layer_1" data-name="Layer 1"><rect class="cls-2" y="0.2" width="179.8" height="54.8"/><polygon class="cls-3" points="122.5 0 82.6 54.8 180 54.8 180 0 122.5 0"/><g class="cls-4"><polygon class="cls-2" points="82.6 54.8 98.4 0 122.5 0 180 23.9 82.6 54.8"/></g><g class="cls-4"><polygon class="cls-2" points="82.6 54.8 180 43.4 180 54.8 82.6 54.8"/></g><rect class="cls-5" x="98.3" y="12.4" width="34.9" height="19.85"/><rect class="cls-6" x="101.5" y="14.8" width="28.5" height="15.18"/><polygon class="cls-2" points="98.3 32.3 94.8 37 136.7 37 133.2 32.3 98.3 32.3"/><rect class="cls-5" x="94.8" y="37" width="41.9" height="2.52"/><path class="cls-7" d="M126.9,46.3V44l-2.3-1.3a1.7,1.7,0,0,1-.6-.6l-1.2-2a.8.8,0,0,1,.6-1.1h0a1.1,1.1,0,0,1,1.2.3l.9,1.3h.6a.7.7,0,0,0,.7-.6V35.4c0-.3.3-.5.7-.5h.8a.8.8,0,0,1,.8-.7h.4a.8.8,0,0,1,.8.7h.8c.3,0,.6.2.6.4v.3h.3a.8.8,0,0,1,.9.7v5.7a1.3,1.3,0,0,1-.4,1L131.3,44v2.1Z"/><path class="cls-8" d="M129,34.1a.7.7,0,0,0-.7.7h-.8c-.4,0-.7.2-.7.5V40a.7.7,0,0,1-.7.6h-.6l-.9-1.3a1.1,1.1,0,0,0-1.2-.3h0a.8.8,0,0,0-.6,1.1l1.2,2a1.7,1.7,0,0,0,.6.6l2.3,1.3v2.3H129Z"/><rect class="cls-9" x="126.1" y="46.9" width="2.9" height="7.96"/><rect class="cls-10" x="126.5" y="49.4" width="8" height="2.95" transform="translate(79.5 181.3) rotate(-90)"/><rect class="cls-11" x="125.7" y="45.3" width="3" height="3.51" transform="translate(80.2 174.3) rotate(-90)"/><rect class="cls-12" x="129.2" y="45.3" width="3" height="3.51" transform="translate(83.7 177.8) rotate(-90)"/><path class="cls-8" d="M105.2,46.3V44l2.4-1.3.5-.6,1.2-2a.8.8,0,0,0-.5-1.1h0a1.2,1.2,0,0,0-1.3.3l-.8,1.3H106a.7.7,0,0,1-.7-.6V35.4c0-.3-.3-.5-.7-.5h-.8a.7.7,0,0,0-.8-.7h-.3a.8.8,0,0,0-.9.7H101a.5.5,0,0,0-.5.4v.3h-.4a.8.8,0,0,0-.9.7v5.7a1.8,1.8,0,0,0,.4,1l1.2,1.1v2.1Z"/><path class="cls-7" d="M103.1,34.1a.7.7,0,0,1,.7.7h.8c.4,0,.7.2.7.5V40a.7.7,0,0,0,.7.6h.7l.8-1.3a1.2,1.2,0,0,1,1.3-.3h0a.8.8,0,0,1,.5,1.1l-1.2,2-.5.6L105.2,44v2.3h-2.1Z"/><rect class="cls-10" x="100.6" y="49.4" width="8" height="2.95" transform="translate(53.7 155.5) rotate(-90)"/><rect class="cls-9" x="100.2" y="46.9" width="2.9" height="7.96"/><rect class="cls-12" x="103.4" y="45.3" width="3" height="3.51" transform="translate(57.9 152) rotate(-90)"/><rect class="cls-11" x="99.9" y="45.3" width="3" height="3.51" transform="translate(54.4 148.5) rotate(-90)"/><path class="cls-13" d="M140,16.8h-.3v-.4h.3Zm-1.4,0h-.4v-.4h.4Zm-1.4,0h-.4v-.4h.4Zm-1.4,0h-.4v-.4h.4Zm-1.4,0H134v-.4h.4Zm-1.5,0h-.3v-.4h.3Zm-1.4,0h-.4v-.4h.4Zm-1.4,0h-.4v-.4h.4Zm-1.4,0h-.4v-.4h.4Zm-1.4,0h-.4v-.4h.4Zm-1.5,0h-.3v-.4h.3Zm-1.4,0h-.3v-.4h.3Zm-1.4,0h-.4v-.4h.4Zm-1.4,0h-.4v-.4h.4Zm-1.4,0h-.4v-.4h.4Zm-1.4,0h-.4v-.4h.4Zm-1.5,0H117v-.4h.3Zm-1.4,0h-.4v-.4h.4Zm-1.4,0h-.4v-.4h.4Zm-1.4,0h-.4v-.4h.4Zm-1.4,0h-.4v-.4h.4Zm-1.5,0h-.3v-.4h.3Zm30.7-.5h-.4V16h.4Zm0-1.1h-.4v-.4h.4Zm0-1.2h-.4v-.3h.4Zm0-1.2h-.4v-.3h.4Zm0-1.2h-.4v-.3h.4Zm0-1.1h-.4v-.3h.4Zm0-1.2h-.4V9h.4Zm3.8-.4h-.4V8.6h.4Zm-1.5,0h-.3V8.6h.3Zm-1.4,0h-.4V8.6h.4Z"/><path class="cls-13" d="M151.4,19.9H151v-.4h.4Zm-1.4,0h-.4v-.4h.4Zm-1.5,0h-.3v-.4h.3Zm-1.4,0h-.3v-.4h.3Zm-1.4,0h-.4v-.4h.4Zm-1.4,0h-.4v-.4h.4Zm-1.4,0h-.4v-.4h.4Zm-1.4,0h-.4v-.4h.4Zm-1.5,0h-.3v-.4h.3Zm-1.4,0h-.4v-.4h.4Zm-1.4,0h-.4v-.4h.4Zm-1.4,0h-.4v-.4h.4Zm-1.4,0H134v-.4h.4Zm-1.5,0h-.3v-.4h.3Zm-1.4,0h-.4v-.4h.4Zm-1.4,0h-.4v-.4h.4Zm-1.4,0h-.4v-.4h.4Zm-1.4,0h-.4v-.4h.4Zm-1.5,0h-.3v-.4h.3Zm-1.4,0h-.3v-.4h.3Zm-1.4,0h-.4v-.4h.4Zm-1.4,0h-.4v-.4h.4Zm-1.4,0h-.4v-.4h.4Zm-1.4,0h-.4v-.4h.4Zm-1.5,0H117v-.4h.3Zm-1.4,0h-.4v-.4h.4Zm-1.4,0h-.4v-.4h.4Zm-1.4,0h-.4v-.4h.4Zm-1.4,0h-.4v-.4h.4Zm-1.5,0h-.3v-.4h.3Z"/><path class="cls-13" d="M156.3,28.9H156v-.3h.3Zm-1.4,0h-.4v-.3h.4Zm-1.4,0h-.4v-.3h.4Zm-1.4,0h-.4v-.3h.4Zm-1.4,0h-.4v-.3h.4Zm-1.5,0h-.3v-.3h.3Zm-1.4,0h-.3v-.3h.3Zm-.8-.4h-.5v-.3h.5Zm0-1.2h-.5V27h.5Zm0-1.2h-.5v-.3h.5Zm0-1.1h-.5v-.3h.5Zm0-1.2h-.5v-.3h.5Zm0-1.2h-.5v-.3h.5Zm-1.3-.1h-.4v-.3h.4Zm-1.4,0h-.4v-.3h.4Zm-1.4,0h-.4v-.3h.4Zm-1.4,0h-.4v-.3h.4Zm-1.5,0h-.3v-.3h.3Zm-1.4,0h-.4v-.3h.4Zm-1.4,0h-.4v-.3h.4Zm-1.4,0h-.4v-.3h.4Zm-1.4,0H134v-.3h.4Zm-1.5,0h-.3v-.3h.3Zm-1.4,0h-.4v-.3h.4Zm-1.4,0h-.4v-.3h.4Zm-1.4,0h-.4v-.3h.4Zm-1.4,0h-.4v-.3h.4Zm-1.5,0h-.3v-.3h.3Zm-1.4,0h-.3v-.3h.3Zm-1.4,0h-.4v-.3h.4Zm-1.4,0h-.4v-.3h.4Zm-1.4,0h-.4v-.3h.4Zm-1.4,0h-.4v-.3h.4Zm-1.5,0H117v-.3h.3Zm-1.4,0h-.4v-.3h.4Zm-1.4,0h-.4v-.3h.4Zm-1.4,0h-.4v-.3h.4Zm-1.4,0h-.4v-.3h.4Zm-1.5,0h-.3v-.3h.3Z"/><path class="cls-13" d="M144.4,38.3H144v-.4h.4Zm1.4,0h-.4v-.4h.4Zm1.4,0h-.3v-.4h.3Zm2.5,0v-.4h.4v.4Zm-1,0h-.4v-.4h.4Zm-4.8-.8h-.4v-.3h.4Zm0-1.1h-.4V36h.4Zm0-1.2h-.4v-.3h.4Zm0-1.2h-.4v-.3h.4Zm0-1.2h-.4v-.3h.4Zm0-1.1h-.4v-.3h.4Zm0-1.2h-.4v-.3h.4Zm0-1.2h-.4V29h.4Zm0-1.1h-.4v-.3h.4Zm0-1.2h-.4v-.3h.4Zm0-1.2h-.4v-.3h.4Zm-1-.3h-.4v-.4h.4Zm-1.4,0h-.4v-.4h.4Zm-1.5,0h-.3v-.4h.3Zm-1.4,0h-.4v-.4h.4Zm-1.4,0h-.4v-.4h.4Zm-1.4,0h-.4v-.4h.4Zm-1.4,0H134v-.4h.4Zm-1.5,0h-.3v-.4h.3Zm-1.4,0h-.4v-.4h.4Zm-1.4,0h-.4v-.4h.4Zm-1.4,0h-.4v-.4h.4Zm-1.4,0h-.4v-.4h.4Zm-1.5,0h-.3v-.4h.3Zm-1.4,0h-.3v-.4h.3Zm-1.4,0h-.4v-.4h.4Zm-1.4,0h-.4v-.4h.4Zm-1.4,0h-.4v-.4h.4Zm-1.4,0h-.4v-.4h.4Zm-1.5,0H117v-.4h.3Zm-1.4,0h-.4v-.4h.4Zm-1.4,0h-.4v-.4h.4Zm-1.4,0h-.4v-.4h.4Zm-1.4,0h-.4v-.4h.4Zm-1.5,0h-.3v-.4h.3Z"/><path class="cls-8" d="M152.5,19.7a1,1,0,0,1-1.1.9c-.7,0-1.2-.4-1.2-.9s.5-.9,1.2-.9A1,1,0,0,1,152.5,19.7Z"/><path class="cls-8" d="M146.8,8.7a1.1,1.1,0,0,1-2.2,0,1.1,1.1,0,0,1,2.2,0Z"/><path class="cls-8" d="M157.6,28.8a1.1,1.1,0,1,1-1.1-.9A1,1,0,0,1,157.6,28.8Z"/><path class="cls-8" d="M152.2,38.1a1.1,1.1,0,1,1-1.1-.9A1,1,0,0,1,152.2,38.1Z"/><path class="cls-13" d="M155.7,10.6h-6.8V6.3h6.8Zm-6.5-.3h6.2V6.5h-6.2Z"/><path class="cls-13" d="M155.7,12.2h-6.8V10.3h6.8Zm-6.5-.3h6.2V10.6h-6.2Z"/><rect class="cls-13" x="151.8" y="10.9" width="2.1" height="0.24"/><rect class="cls-13" x="151.8" y="11.4" width="2.9" height="0.24"/><path class="cls-9" d="M153.3,7.8a1,1,0,0,1-1.1.9,1,1,0,0,1-1-.9.9.9,0,0,1,1-.8C152.8,7,153.3,7.3,153.3,7.8Z"/><path class="cls-9" d="M153.3,9.8h-2.1V9.5a.9.9,0,0,1,1-.8h0c.6,0,1.1.3,1.1.8Z"/><path class="cls-13" d="M150.5,11.8h-.1s-.6-.3-.6-.6a.4.4,0,0,1,.4-.4h.6a.4.4,0,0,1,.4.4c0,.3-.6.6-.6.6Zm-.3-.8c-.1,0-.1.1-.1.2s.2.2.4.3.4-.2.4-.3,0-.2-.1-.2h-.6Z"/><polygon class="cls-13" points="155 40.4 153.7 37.2 156.7 36.3 156.8 36.6 154 37.4 155.2 40.1 157 39.6 157.1 39.9 155 40.4"/><polygon class="cls-13" points="155.4 41.3 154.9 40.2 157 39.6 157.1 39.9 155.3 40.4 155.6 41 159.5 39.9 159.5 39.8 159.7 39.7 159.9 40.1 155.4 41.3"/><polygon class="cls-9" points="156.8 37.4 156.7 37.4 156.3 38.5 155.8 38.3 155.4 39.2 156.8 38.9 156.8 37.4"/><path class="cls-13" d="M161.4,38.9h-4.8V35.5h4.8Zm-4.5-.2h4.2v-3h-4.2Z"/><polygon class="cls-13" points="160.2 39.9 156.6 39.9 156.6 38.7 161.4 38.7 161.4 39.4 161.1 39.4 161.1 38.9 156.9 38.9 156.9 39.6 160.2 39.6 160.2 39.9"/><polygon class="cls-9" points="157.4 37.9 158.2 37.1 158.5 37.4 159.4 36.5 160.6 37.9 157.4 37.9"/><path class="cls-13" d="M161.4,41.3H160V40a.7.7,0,0,1,.8-.7h.8v-.4l1.9,1-1.9,1v-.4h-.2Zm-1.2-.2h.9v-.6a.3.3,0,0,1,.3-.3h.5v.3l1.1-.6-1.1-.6v.2h-1.1a.6.6,0,0,0-.6.5Z"/><polygon class="cls-13" points="160.3 21.7 154.7 21.7 154.7 17.3 161.6 17.3 161.6 21.2 161.3 21.2 161.3 17.6 155 17.6 155 21.5 160.3 21.5 160.3 21.7"/><path class="cls-13" d="M161.6,18.5h-6.9V17.3h6.9Zm-6.6-.3h6.3v-.6H155Z"/><polygon class="cls-9" points="157.3 19 159.2 19.9 157.3 20.9 157.3 19"/><path class="cls-13" d="M155.7,17.9c0,.1-.1.1-.2.1s-.1,0-.1-.1h.3Z"/><path class="cls-13" d="M156.2,17.9c0,.1-.1.1-.2.1s-.1,0-.1-.1h.3Z"/><path class="cls-13" d="M156.7,17.9a.1.1,0,0,1-.1.1c-.1,0-.2,0-.2-.1h.3Z"/><path class="cls-13" d="M160.3,22.4h-.2a.1.1,0,0,1,0-.2l.2-.5-.6-.3c0-.1-.1-.2,0-.2l.2-.2h.6l.2-.5c.1-.1.4-.1.4,0l.2.5h.7a.2.2,0,0,1,.2.2.3.3,0,0,1-.1.2l-.5.3.2.5c0,.1,0,.2-.1.2h-.2l-.6-.3-.5.3Zm.6-.6h.2l.4.2-.2-.4v-.2l.4-.2h-.5a.2.2,0,0,1-.2-.2l-.2-.3v.3l-.2.2h-.5l.4.2c0,.1.1.1.1.2l-.2.4.4-.2Z"/><path class="cls-13" d="M143.5,46.6h-.3v-.4h.3Zm-1.4,0h-.3v-.4h.3Zm-1.4,0h-.3v-.4h.3Zm-.4-.8h-.4v-.3h.4Zm0-1.2h-.4v-.3h.4Zm0-1.2h-.4v-.3h.4Zm0-1.1h-.4V42h.4Zm0-1.2h-.4v-.3h.4Zm0-1.2h-.4v-.3h.4Zm0-1.1h-.4v-.4h.4Zm0-1.2h-.4v-.3h.4Zm0-1.2h-.4v-.3h.4Zm0-1.2h-.4v-.3h.4Zm0-1.1h-.4v-.3h.4Zm0-1.2h-.4v-.3h.4Zm0-1.2h-.4v-.3h.4Zm-.8-.5h-.4v-.3h.4Zm-1.4,0h-.4v-.3h.4Zm-1.4,0h-.4v-.4h.5V31h-.1Zm.1-1.2h-.5v-.3h.5Zm0-1.2h-.5v-.3h.5Zm-1-.4h-.4v-.3h.4Zm-1.4,0H134v-.3h.4Zm-1.5,0h-.3v-.3h.3Zm-1.4,0h-.4v-.3h.4Zm-1.4,0h-.4v-.3h.4Zm-1.4,0h-.4v-.3h.4Zm-1.4,0h-.4v-.3h.4Zm-1.5,0h-.3v-.3h.3Zm-1.4,0h-.3v-.3h.3Zm-1.4,0h-.4v-.3h.4Zm-1.4,0h-.4v-.3h.4Zm-1.4,0h-.4v-.3h.4Zm-1.4,0h-.4v-.3h.4Zm-1.5,0H117v-.3h.3Zm-1.4,0h-.4v-.3h.4Zm-1.4,0h-.4v-.3h.4Zm-1.4,0h-.4v-.3h.4Zm-1.4,0h-.4v-.3h.4Zm-1.5,0h-.3v-.3h.3Z"/><path class="cls-9" d="M153.2,45.9c0,.5-.5.9-1.2.9s-1.1-.3-1.1-.8a1.2,1.2,0,0,0,.4-.8h0l.7-.2C152.7,44.9,153.2,45.3,153.2,45.9Z"/><path class="cls-9" d="M153.2,47.8v.3h-1.9v-.4c0-.2,0-.4-.2-.5a1.4,1.4,0,0,1,.9-.3C152.7,46.9,153.2,47.3,153.2,47.8Z"/><path class="cls-13" d="M149.7,46.6a1.6,1.6,0,0,1-1.6-1.4,1.5,1.5,0,0,1,1.6-1.4,1.5,1.5,0,0,1,1.7,1.4A1.6,1.6,0,0,1,149.7,46.6Zm0-2.6a1.2,1.2,0,1,0,0,2.3,1.2,1.2,0,1,0,0-2.3Z"/><path class="cls-13" d="M149.2,48.2H148v-.5a1.4,1.4,0,0,1,.2-.6h.3a1.7,1.7,0,0,0-.2.5V48h.9Z"/><path class="cls-13" d="M151.5,48.2h-1.8V48h1.5v-.3c0-.2-.1-.3-.2-.5a1.4,1.4,0,0,0-1.3-.6,1.4,1.4,0,0,0-.9.3h-.2a2.1,2.1,0,0,1,1.1-.4,1.8,1.8,0,0,1,1.6.8,1.4,1.4,0,0,1,.2.6Z"/><path class="cls-13" d="M148,49.7h-.1a1.8,1.8,0,0,1-1.3-.6,1.3,1.3,0,0,1-.5-1.1,1.7,1.7,0,0,1,.6-1.1,2.2,2.2,0,0,1,1.4-.3,1.9,1.9,0,0,1,1.3.5,1.3,1.3,0,0,1,.5,1.1,1.9,1.9,0,0,1-.7,1.1A2.5,2.5,0,0,1,148,49.7Zm0-2.9a2,2,0,0,0-1.1.3h0a1.2,1.2,0,0,0-.5.9,1.3,1.3,0,0,0,.4,1,1.8,1.8,0,0,0,1.1.4,1.4,1.4,0,0,0,1.1-.3,1,1,0,0,0,.6-.9,1.4,1.4,0,0,0-.4-1,2.1,2.1,0,0,0-1.1-.4Zm0,2.4h-.1a1,1,0,0,1-.9-.4.7.7,0,0,1-.3-.8.8.8,0,0,1,.4-.7,1.7,1.7,0,0,1,1-.3,1.5,1.5,0,0,1,.9.4.9.9,0,0,1-.1,1.5A1.6,1.6,0,0,1,148,49.2Zm0-1.9a.8.8,0,0,0-.7.2.9.9,0,0,0-.4.6.9.9,0,0,0,.3.6,1.5,1.5,0,0,0,.7.3l.8-.2a.9.9,0,0,0,.1-1.3l-.7-.2Z"/><polygon class="cls-13" points="146 49.7 145.8 49.5 146.5 49 146.7 49.2 146 49.7"/><path class="cls-13" d="M144.5,51h-.4a.5.5,0,0,1,.1-.6l1.2-.8a.6.6,0,0,1,.6,0,.4.4,0,0,1,.1.3c0,.1-.1.2-.1.3l-1.2.8Zm1.2-1.3h-.2l-1.1.8a.1.1,0,0,0-.1.1c0,.1,0,.1.1.1h.2l1.2-.8h-.1Z"/><rect class="cls-13" x="145.9" y="44.9" width="0.3" height="1.45"/><rect class="cls-13" x="145.2" y="45.5" width="1.8" height="0.24"/><rect class="cls-13" x="151.4" y="49" width="0.3" height="1.07"/><rect class="cls-13" x="150.9" y="49.4" width="1.3" height="0.24"/><path class="cls-13" d="M151.5,48.1h-.3v-.4c0-.2-.1-.3-.2-.5h.3a1.4,1.4,0,0,1,.2.6Z"/><path class="cls-8" d="M144.6,46.4c0,.5-.4.9-1.1.9a.9.9,0,1,1,0-1.8C144.2,45.5,144.6,45.9,144.6,46.4Z"/><path class="cls-13" d="M166.3,28.6h-.1v-.2h0c.1,0,.3-.2.3-.5a.4.4,0,0,0-.3-.4h0v-.3h.1a.7.7,0,0,1,.6.7C166.9,28.2,166.6,28.6,166.3,28.6Z"/><path class="cls-13" d="M166.4,30.6l-1-.7a4.5,4.5,0,0,0-3-1.1h-.1l-.4-.6h-.3v-.5h.3l.4-.5h.1a4.6,4.6,0,0,0,3-1.2l1-.7Zm-3.9-2.1a5.4,5.4,0,0,1,3.1,1.2l.5.4V25.8l-.5.4a4.8,4.8,0,0,1-3.1,1.2l-.4.6h0Z"/><path class="cls-13" d="M162.4,31.5h-2.5V28.7h1.7Zm-2.2-.3H162l-.7-2.3h-1.1Z"/><rect class="cls-9" x="159.3" y="26.9" width="3.3" height="2.1"/><path class="cls-14" d="M104.2,16.2a.4.4,0,0,1-.1.3h-.3c.3.1.5.2.5.4s-.1.2-.2.3h-1.2V17h.3v-.3h.1c.3,0,.4-.1.4-.2h-.6l-.2-.3H104Z"/><path class="cls-14" d="M105.2,16.4h.3l.2.2c.1,0,.1.1.1.2a.5.5,0,0,1-.2.4h-1.1V17h.7c.1-.1.1-.1.1-.2h-.8v-.8h1.1v.3H105v.2Z"/><path class="cls-14" d="M106.9,16.4a.4.4,0,0,1-.1.3h-.7a.4.4,0,0,1-.1-.3c0-.2,0-.3.1-.4h.7C106.9,16.1,106.9,16.2,106.9,16.4Zm-.5,0h0c0,.1,0,.1.1.1h0v-.2h-.1Zm1.5-.5-1.1,1.5h-.3l1-1.5Zm.4,1.1a.4.4,0,0,1-.1.3h-.7a.4.4,0,0,1-.1-.3c0-.2,0-.3.1-.4h.7C108.3,16.7,108.3,16.8,108.3,17Zm-.5,0h.2a.3.3,0,0,0-.1-.2h0a.1.1,0,0,0-.1.1Z"/><path class="cls-14" d="M104,20.2h-.5V19.1h-.1l-.2.2-.2-.3.6-.4h.4Z"/><path class="cls-14" d="M105.2,19.2h.3a.2.2,0,0,1,.2.2c.1,0,.1.1.1.2a.5.5,0,0,1-.2.4h-1.1v-.4h.7c.1-.1.1-.1.1-.2h-.8v-.8h1.1V19H105v.2Z"/><path class="cls-14" d="M106.9,19.1c0,.2,0,.3-.1.4h-.7c-.1-.1-.1-.2-.1-.4a.4.4,0,0,1,.1-.3h.7A.4.4,0,0,1,106.9,19.1Zm-.5.1h.1V19h0c-.1,0-.1,0-.1.1Zm1.5-.5-1.1,1.5h-.3l1-1.5Zm.4,1.1a.4.4,0,0,1-.1.3h-.7a.4.4,0,0,1-.1-.3c0-.2,0-.3.1-.4h.7C108.3,19.5,108.3,19.6,108.3,19.8Zm-.5,0h0c0,.1,0,.1.1.1h.1a.3.3,0,0,0-.1-.2h0c-.1,0-.1,0-.1.1Z"/><path class="cls-14" d="M104.3,23.1h-1.4v-.3l.5-.4c.1-.1.2-.1.2-.2h-.2l-.2.2-.3-.3.2-.2h.8a.2.2,0,0,1,.2.2c.1,0,.1.1.1.2h0v.2H104l-.4.3h.7Z"/><path class="cls-14" d="M105.2,22.1h.5a.4.4,0,0,1,.1.3.5.5,0,0,1-.2.4h-1.1v-.3h.5c.1,0,.2,0,.2-.1h.1c0-.1,0-.1-.1-.1s-.1-.1-.2-.1h-.5v-.8h1.1v.3H105v.2Z"/><path class="cls-14" d="M106.9,22c0,.2,0,.3-.1.4h-.7c-.1-.1-.1-.2-.1-.4a.4.4,0,0,1,.1-.3h.7A.4.4,0,0,1,106.9,22Zm-.5,0v.2a.1.1,0,0,0,.1.1h0V22h-.1Zm1.5-.4-1.1,1.5h-.3l1-1.5Zm.4,1c0,.2,0,.3-.1.4h-.7c-.1-.1-.1-.2-.1-.4a.4.4,0,0,1,.1-.3h.7A.4.4,0,0,1,108.3,22.6Zm-.5,0v.2h.1v-.2h-.1c-.1,0-.1,0-.1.1Z"/><path class="cls-14" d="M104,25.9h-.5v-1h-.3l-.2-.3.6-.4h.4Z"/><path class="cls-14" d="M105.8,25.2a.7.7,0,0,1-.2.6.6.6,0,0,1-.5.2l-.5-.2a1.3,1.3,0,0,1-.1-.6c0-.3,0-.5.1-.6a.6.6,0,0,1,.5-.2.6.6,0,0,1,.5.2C105.8,24.7,105.8,24.9,105.8,25.2Zm-.8,0v.3a.1.1,0,0,0,.1.1c.1,0,.2,0,.2-.1v-.7c0-.1-.1-.1-.2-.1a.1.1,0,0,0-.1.1Z"/><path class="cls-14" d="M106.9,24.9a.4.4,0,0,1-.1.3h-.7a.4.4,0,0,1-.1-.3c0-.2,0-.3.1-.4h.7C106.9,24.6,106.9,24.7,106.9,24.9Zm-.5,0h0c0,.1,0,.1.1.1h0v-.2h-.1Zm1.5-.5-1.1,1.5h-.3l1-1.5Zm.4,1.1a.4.4,0,0,1-.1.3h-.7a.4.4,0,0,1-.1-.3c0-.2,0-.3.1-.4h.7C108.3,25.2,108.3,25.3,108.3,25.5Zm-.5,0h.2a.3.3,0,0,0-.1-.2h0a.1.1,0,0,0-.1.1Z"/><path class="cls-14" d="M104,28.8h-.5V27.7a.1.1,0,0,1-.1.1h-.2l-.2-.2.6-.5h.4Z"/><path class="cls-14" d="M105.2,27.8h.3c.1.1.2.1.2.2a.4.4,0,0,1,.1.3.8.8,0,0,1-.2.4h-1.1v-.3h.3c0,.1.1.1.2.1h.3c0-.1,0-.1-.1-.2h-.7v-.8h1.1v.4H105v.2Z"/><path class="cls-14" d="M106.9,27.7c0,.2,0,.3-.1.4h-.4l-.3-.2c-.1,0-.1-.2-.1-.3s0-.3.1-.4h.7A.6.6,0,0,1,106.9,27.7Zm-.5,0v.2h.1v-.4h-.1Zm1.5-.5-1.1,1.6h-.3l1-1.6Zm.4,1.1c0,.2,0,.3-.1.4h-.7c-.1-.1-.1-.2-.1-.4s0-.3.1-.3l.4-.2.3.2C108.3,28,108.3,28.2,108.3,28.3Zm-.5,0v.2h.1c0-.1.1-.1.1-.2s-.1-.1-.1-.2h-.1Z"/><rect class="cls-9" x="112.5" y="10.3" width="14.5" height="19.67"/><rect class="cls-10" x="114.5" y="16.7" width="10.5" height="2.75" transform="translate(239.4 36.1) rotate(180)"/><rect class="cls-10" x="114.5" y="12.1" width="10.5" height="3.37" transform="translate(239.4 27.5) rotate(180)"/><rect class="cls-10" x="114.5" y="20.4" width="10.5" height="1.37" transform="translate(239.4 42.3) rotate(180)"/><rect class="cls-10" x="114.5" y="23.1" width="10.5" height="4.63" transform="translate(239.4 50.8) rotate(180)"/></g></g></svg>