<?xml version="1.0" encoding="UTF-8" ?>
<!DOCTYPE svg PUBLIC "-//W3C//DTD SVG 1.1//EN" "http://www.w3.org/Graphics/SVG/1.1/DTD/svg11.dtd">
<svg width="300pt" height="275pt" viewBox="0 0 300 275" version="1.1" xmlns="http://www.w3.org/2000/svg">
<g id="#ffffffff">
</g>
<g id="#011322ff">
<path fill="#011322" opacity="1.00" d=" M 148.25 15.22 C 150.23 13.72 153.43 15.52 153.23 17.99 C 153.24 22.66 153.37 27.34 153.16 32.01 C 152.73 35.43 147.16 35.36 146.84 31.96 C 146.60 27.64 146.81 23.31 146.74 18.99 C 146.63 17.59 146.91 15.98 148.25 15.22 Z" />
<path fill="#011322" opacity="1.00" d=" M 109.76 62.79 C 125.39 52.97 144.70 49.22 162.87 52.41 C 182.40 55.63 200.38 66.93 211.94 82.97 C 222.60 97.80 228.17 116.63 225.88 134.87 C 222.65 153.62 210.60 169.40 197.53 182.62 C 193.03 187.43 186.91 190.81 183.75 196.77 C 181.51 200.81 179.82 205.33 179.98 210.02 C 180.02 220.68 179.98 231.35 180.01 242.02 C 180.00 243.87 180.07 246.39 177.94 247.17 C 174.28 247.91 170.47 247.32 166.75 247.52 C 166.71 250.50 167.01 253.55 166.21 256.45 C 165.23 258.87 162.78 260.84 160.09 260.74 C 153.37 260.77 146.66 260.77 139.94 260.74 C 137.26 260.83 134.75 258.95 133.81 256.49 C 132.98 253.58 133.29 250.51 133.25 247.53 C 129.85 247.43 126.43 247.64 123.03 247.41 C 120.82 247.31 119.80 244.99 120.02 243.05 C 119.96 231.70 120.02 220.36 120.00 209.02 C 119.96 204.42 118.11 200.05 115.88 196.11 C 112.88 190.90 107.54 187.77 103.43 183.55 C 92.09 172.39 81.87 159.48 76.50 144.34 C 72.49 133.38 72.98 121.33 75.62 110.13 C 80.15 90.66 92.73 73.24 109.76 62.79 M 117.92 65.78 C 100.90 74.54 87.80 90.59 82.74 109.06 C 79.67 120.33 78.92 132.67 83.34 143.69 C 89.99 160.50 102.49 174.26 116.03 185.91 C 123.74 193.05 127.50 203.84 126.77 214.25 C 130.10 214.25 133.42 214.25 136.75 214.24 C 136.70 190.98 136.83 167.72 136.69 144.46 C 133.94 144.33 130.96 145.04 128.36 143.85 C 125.55 142.47 126.72 137.62 129.90 137.81 C 143.27 137.71 156.64 137.72 170.01 137.80 C 173.22 137.54 174.48 142.41 171.66 143.84 C 169.07 145.05 166.08 144.33 163.33 144.45 C 163.14 167.71 163.31 190.98 163.25 214.24 C 166.57 214.25 169.90 214.25 173.23 214.25 C 172.81 206.68 174.39 198.94 178.55 192.54 C 181.75 186.89 187.33 183.32 191.81 178.81 C 200.66 170.12 208.69 160.37 214.25 149.22 C 217.29 142.92 219.53 136.09 219.74 129.05 C 220.16 113.46 214.97 97.85 205.51 85.48 C 194.98 71.64 179.18 61.90 162.02 59.00 C 147.11 56.40 131.34 58.73 117.92 65.78 M 143.21 144.55 C 143.30 167.78 143.22 191.02 143.25 214.25 C 147.75 214.25 152.26 214.26 156.76 214.23 C 156.75 191.00 156.72 167.77 156.77 144.54 C 152.25 144.48 147.73 144.46 143.21 144.55 M 126.73 241.02 C 142.23 241.01 157.73 240.95 173.23 241.05 C 173.56 234.40 173.23 227.75 173.43 221.10 C 157.84 220.87 142.24 221.07 126.65 221.00 C 126.66 227.67 126.52 234.35 126.73 241.02 M 140.03 247.23 C 140.01 249.61 140.00 251.99 139.99 254.37 C 146.67 254.38 153.34 254.38 160.01 254.37 C 160.00 251.99 159.99 249.61 159.97 247.23 C 153.32 247.26 146.68 247.26 140.03 247.23 Z" />
<path fill="#011322" opacity="1.00" d=" M 54.19 54.14 C 55.49 53.40 57.31 53.50 58.29 54.72 C 61.63 58.07 65.20 61.25 68.23 64.89 C 69.94 67.49 66.43 71.01 63.83 69.24 C 60.25 66.14 57.06 62.62 53.69 59.29 C 52.09 57.91 52.40 55.20 54.19 54.14 Z" />
<path fill="#011322" opacity="1.00" d=" M 242.28 54.25 C 244.17 52.63 247.67 54.51 247.32 57.01 C 247.42 58.68 245.79 59.65 244.85 60.81 C 241.91 63.55 239.29 66.64 236.20 69.22 C 233.27 71.25 229.62 66.75 232.19 64.30 C 235.44 60.85 238.78 57.45 242.28 54.25 Z" />
<path fill="#011322" opacity="1.00" d=" M 15.28 148.20 C 20.07 147.18 25.19 147.98 30.10 147.77 C 33.60 147.45 34.74 152.36 31.86 154.06 C 26.93 154.48 21.96 154.18 17.02 154.24 C 13.70 154.70 12.40 149.64 15.28 148.20 Z" />
<path fill="#011322" opacity="1.00" d=" M 268.83 154.17 C 265.00 153.49 266.20 147.12 270.05 147.77 C 275.30 148.28 281.16 146.45 285.98 148.99 C 285.99 150.29 286.01 151.60 286.04 152.90 C 284.86 153.75 283.57 154.49 282.06 154.26 C 277.65 154.20 273.24 154.38 268.83 154.17 Z" />
<path fill="#011322" opacity="1.00" d=" M 63.32 233.18 C 65.68 230.82 69.70 233.99 68.44 236.93 C 65.31 240.61 61.69 243.86 58.30 247.30 C 56.97 248.92 54.03 248.78 53.09 246.82 C 51.90 245.34 52.96 243.29 54.18 242.20 C 57.23 239.19 60.14 236.05 63.32 233.18 Z" />
<path fill="#011322" opacity="1.00" d=" M 232.34 233.33 C 233.43 232.24 235.55 231.95 236.67 233.17 C 240.00 236.23 243.15 239.49 246.30 242.74 C 248.21 244.30 247.44 247.88 244.91 248.28 C 243.17 248.97 241.76 247.38 240.65 246.31 C 237.86 243.40 234.88 240.67 232.16 237.70 C 231.01 236.53 231.08 234.40 232.34 233.33 Z" />
</g>
<g id="#a4cf50ff">
<path fill="#a4cf50" opacity="1.00" d=" M 126.73 241.02 C 126.52 234.35 126.66 227.67 126.65 221.00 C 142.24 221.07 157.84 220.87 173.43 221.10 C 173.23 227.75 173.56 234.40 173.23 241.05 C 157.73 240.95 142.23 241.01 126.73 241.02 Z" />
<path fill="#a4cf50" opacity="1.00" d=" M 140.03 247.23 C 146.68 247.26 153.32 247.26 159.97 247.23 C 159.99 249.61 160.00 251.99 160.01 254.37 C 153.34 254.38 146.67 254.38 139.99 254.37 C 140.00 251.99 140.01 249.61 140.03 247.23 Z" />
</g>
</svg>
