<?xml version="1.0" encoding="UTF-8" ?>
<!DOCTYPE svg PUBLIC "-//W3C//DTD SVG 1.1//EN" "http://www.w3.org/Graphics/SVG/1.1/DTD/svg11.dtd">
<svg width="300pt" height="234pt" viewBox="0 0 300 234" version="1.1" xmlns="http://www.w3.org/2000/svg">
<g id="#ffffffff">
<path fill="#ffffff" opacity="1.00" d=" M 128.29 103.33 C 131.47 103.08 134.66 102.97 137.85 103.02 C 134.62 104.00 131.24 104.11 127.90 104.07 L 128.29 103.33 Z" />
</g>
<g id="#000000ff">
<path fill="#000000" opacity="1.00" d=" M 45.86 15.36 C 50.92 13.96 56.44 12.86 61.57 14.60 C 64.27 15.50 65.42 18.23 66.18 20.73 C 69.12 22.72 71.60 25.58 72.44 29.10 C 73.21 33.36 72.43 37.68 72.02 41.93 C 74.65 43.56 76.66 46.82 75.54 49.95 C 74.95 52.07 72.83 53.09 71.00 53.93 C 69.84 60.25 66.22 65.98 60.90 69.59 C 55.44 72.09 48.68 73.09 43.32 69.79 C 37.89 65.75 34.26 59.30 33.36 52.63 C 36.27 57.68 37.47 63.97 42.24 67.79 C 47.91 72.57 56.58 71.38 62.34 67.38 C 66.43 63.80 68.67 58.52 69.79 53.30 C 70.87 52.89 71.95 52.49 73.03 52.09 C 73.72 50.71 74.40 49.32 75.09 47.94 C 74.40 45.19 72.57 43.52 69.69 44.24 C 69.01 37.96 67.91 30.28 62.02 26.69 C 58.43 27.28 55.41 29.50 51.98 30.58 C 47.07 32.47 41.72 32.13 36.56 32.50 C 35.13 35.82 34.22 39.34 33.97 42.95 C 30.10 44.63 29.35 50.15 31.73 53.42 C 30.51 52.01 28.85 50.66 28.77 48.63 C 28.79 46.41 29.69 44.31 30.66 42.35 C 29.12 36.45 28.49 29.90 31.21 24.24 C 34.40 19.12 40.35 16.97 45.86 15.36 Z" />
<path fill="#000000" opacity="1.00" d=" M 230.10 21.97 C 239.63 13.82 255.84 15.10 263.39 25.37 C 266.24 30.87 265.76 37.20 264.98 43.13 C 265.79 43.66 266.60 44.19 267.41 44.72 C 267.92 48.31 267.21 51.97 264.68 54.67 C 266.66 57.52 268.86 60.31 272.15 61.71 C 269.51 61.76 266.87 61.50 264.41 60.49 C 265.69 65.21 269.14 68.93 273.74 70.58 C 267.17 71.71 259.05 73.97 253.83 68.32 C 251.39 69.88 248.90 71.55 246.03 72.18 C 242.27 72.47 239.16 69.97 236.13 68.14 C 230.72 73.45 222.81 71.98 216.23 70.32 C 220.83 69.16 223.59 65.27 225.59 61.27 C 223.05 62.03 220.39 62.05 217.77 61.94 C 221.48 61.11 224.64 58.60 226.09 55.05 C 224.53 52.28 222.67 49.38 223.12 46.04 C 223.33 44.21 226.50 44.17 225.83 42.14 C 224.58 35.27 224.95 27.24 230.10 21.97 M 227.85 36.84 C 227.78 40.54 228.41 44.21 228.95 47.86 C 228.08 46.37 227.13 44.92 225.89 43.71 C 224.85 45.88 224.29 48.43 225.71 50.58 C 229.86 58.19 234.93 66.83 243.98 69.06 C 251.27 66.78 256.89 60.81 260.27 54.08 C 262.51 51.12 265.62 46.89 262.24 43.49 C 261.25 45.03 260.33 46.61 259.42 48.19 C 259.96 45.46 260.74 42.72 260.58 39.92 C 259.18 38.15 256.92 38.82 254.99 38.71 C 246.86 38.68 237.99 35.74 233.57 28.45 C 230.92 30.64 228.86 33.54 227.85 36.84 Z" />
<path fill="#000000" opacity="1.00" d=" M 16.59 82.91 C 19.88 77.64 25.24 74.41 30.80 71.99 C 36.51 80.83 41.86 89.91 47.86 98.55 C 48.67 94.74 49.26 90.90 49.97 87.08 C 49.16 85.74 48.16 84.46 47.79 82.91 C 47.87 81.03 49.34 79.63 50.28 78.12 C 52.29 78.00 54.81 77.99 55.74 80.18 C 57.35 82.29 56.13 84.88 54.62 86.63 C 55.66 90.71 56.15 94.90 56.88 99.04 C 62.59 90.13 68.09 81.09 73.61 72.07 C 81.36 75.03 88.75 80.78 91.10 89.05 C 91.48 94.10 91.13 99.19 91.26 104.26 C 74.17 112.14 54.72 115.46 36.07 112.33 C 28.36 110.52 20.56 108.42 13.73 104.27 C 14.31 97.15 11.99 89.12 16.59 82.91 Z" />
<path fill="#000000" opacity="1.00" d=" M 216.62 79.42 C 221.19 77.59 225.94 76.30 230.54 74.57 C 230.32 84.75 236.23 94.40 244.58 99.91 C 252.74 94.15 258.56 84.72 258.48 74.56 C 264.82 77.11 271.56 78.54 277.88 81.14 C 281.93 82.75 284.70 86.63 285.38 90.87 C 286.16 95.64 286.01 100.48 286.00 105.29 C 267.58 108.84 248.83 111.22 230.04 110.24 C 220.79 109.74 211.43 108.69 202.75 105.25 C 202.91 98.74 202.89 91.94 205.60 85.88 C 207.91 81.91 212.68 80.97 216.62 79.42 Z" />
<path fill="#000000" opacity="1.00" d=" M 238.99 77.77 C 239.90 76.78 240.60 75.53 241.74 74.79 C 243.55 74.69 245.37 74.73 247.19 74.72 C 248.11 75.72 249.03 76.73 249.97 77.73 C 248.73 79.06 247.47 80.37 246.23 81.70 C 247.53 85.05 248.73 88.44 250.08 91.77 C 248.19 93.54 246.30 95.32 244.42 97.09 C 242.65 95.18 240.83 93.32 238.94 91.53 C 240.27 88.35 241.51 85.14 242.77 81.94 C 241.52 80.53 240.26 79.15 238.99 77.77 Z" />
<path fill="#000000" opacity="1.00" d=" M 144.14 79.61 C 150.69 78.10 157.77 76.31 164.32 78.75 C 168.20 80.16 170.36 84.03 171.31 87.84 C 179.29 91.83 182.24 101.75 180.89 110.09 C 180.24 113.00 180.31 116.14 179.00 118.86 L 178.38 119.02 C 177.57 119.01 175.96 119.00 175.15 118.99 C 173.94 112.24 173.49 105.03 169.72 99.09 C 168.14 96.97 166.11 94.50 163.24 94.46 C 159.26 95.26 155.89 97.69 152.17 99.17 C 147.63 101.22 142.71 102.10 137.85 103.02 C 134.66 102.97 131.47 103.08 128.29 103.33 L 127.90 104.07 C 125.96 107.97 125.05 112.25 124.51 116.54 C 124.61 118.47 122.65 119.13 121.33 120.04 C 118.29 111.20 117.30 100.59 122.23 92.22 C 126.94 84.54 136.06 82.05 144.14 79.61 Z" />
<path fill="#000000" opacity="1.00" d=" M 180.14 119.20 C 183.00 118.78 184.26 122.77 184.46 125.08 C 185.10 129.88 181.31 133.71 177.01 135.00 C 175.04 142.12 172.36 149.71 166.26 154.36 C 159.12 160.91 147.67 162.71 139.10 157.99 C 130.71 152.84 125.65 143.75 123.54 134.34 C 121.42 133.23 118.90 132.23 117.95 129.84 C 116.15 126.74 117.07 122.62 119.33 120.01 C 120.13 121.89 118.80 123.77 118.81 125.67 C 118.96 127.35 119.10 129.34 120.70 130.34 C 122.46 131.97 125.63 132.26 126.10 135.00 C 127.81 139.64 129.13 144.67 132.62 148.38 C 135.88 151.86 139.44 155.76 144.42 156.50 C 151.60 157.76 159.70 156.43 165.17 151.31 C 170.89 146.48 173.85 139.29 175.46 132.15 C 177.31 131.43 179.17 130.72 181.03 130.00 C 182.02 127.61 184.16 124.71 182.07 122.28 C 181.49 121.22 180.66 120.29 180.14 119.20 Z" />
<path fill="#000000" opacity="1.00" d=" M 100.60 174.57 C 105.22 167.67 112.56 163.31 119.92 159.86 C 127.98 172.33 135.62 185.10 143.97 197.37 L 144.64 196.70 C 146.08 191.37 145.91 185.72 147.53 180.43 C 143.53 178.44 143.69 173.32 146.00 170.06 C 149.52 167.73 155.83 168.06 156.83 172.92 C 158.19 175.96 155.90 178.53 154.39 180.93 C 155.15 186.55 156.22 192.13 157.19 197.72 C 158.44 196.43 159.50 194.97 160.42 193.43 C 167.36 182.29 174.37 171.20 181.21 160.00 C 192.07 164.82 203.32 172.78 206.12 185.02 C 206.45 191.99 206.15 199.00 206.25 205.99 C 190.75 213.04 174.07 217.57 157.07 218.85 C 143.63 219.42 129.92 219.03 116.99 214.97 C 109.52 212.53 102.00 210.05 95.24 205.97 C 95.26 200.33 95.26 194.69 95.23 189.04 C 94.75 183.69 97.76 178.85 100.60 174.57 Z" />
</g>
<g id="#a4cf50ff">
<path fill="#a4cf50" opacity="1.00" d=" M 152.17 99.17 C 155.89 97.69 159.26 95.26 163.24 94.46 C 166.11 94.50 168.14 96.97 169.72 99.09 C 173.49 105.03 173.94 112.24 175.15 118.99 C 175.96 119.00 177.57 119.01 178.38 119.02 C 179.60 120.12 180.85 121.18 182.07 122.28 C 184.16 124.71 182.02 127.61 181.03 130.00 C 179.17 130.72 177.31 131.43 175.46 132.15 C 173.85 139.29 170.89 146.48 165.17 151.31 C 159.70 156.43 151.60 157.76 144.42 156.50 C 139.44 155.76 135.88 151.86 132.62 148.38 C 129.13 144.67 127.81 139.64 126.10 135.00 C 125.63 132.26 122.46 131.97 120.70 130.34 C 119.10 129.34 118.96 127.35 118.81 125.67 C 120.19 124.06 120.92 122.09 121.33 120.04 C 122.65 119.13 124.61 118.47 124.51 116.54 C 125.05 112.25 125.96 107.97 127.90 104.07 C 131.24 104.11 134.62 104.00 137.85 103.02 C 142.71 102.10 147.63 101.22 152.17 99.17 Z" />
</g>
</svg>
