<?xml version="1.0" encoding="UTF-8" ?>
<!DOCTYPE svg PUBLIC "-//W3C//DTD SVG 1.1//EN" "http://www.w3.org/Graphics/SVG/1.1/DTD/svg11.dtd">
<svg width="300pt" height="300pt" viewBox="0 0 300 300" version="1.1" xmlns="http://www.w3.org/2000/svg">
<g id="#a4cf50ff">
<path fill="#a4cf50" opacity="1.00" d=" M 133.44 32.51 C 167.83 27.63 204.23 38.62 229.83 62.19 C 253.03 82.14 267.42 111.58 270.03 141.96 C 270.30 148.99 270.24 156.02 269.98 163.06 C 267.55 183.57 260.81 203.85 248.70 220.72 C 237.39 236.30 222.80 249.68 205.66 258.60 C 193.25 264.97 179.71 269.01 165.93 271.08 C 158.04 272.57 149.98 271.87 142.01 271.98 C 124.47 270.58 107.24 265.45 91.70 257.21 C 72.21 246.19 55.81 229.75 44.71 210.33 C 36.69 195.75 31.96 179.50 30.02 163.02 C 29.81 152.63 29.18 142.10 31.32 131.86 C 34.78 112.60 42.30 93.83 54.56 78.44 C 60.59 70.27 68.09 63.34 75.90 56.91 C 92.36 43.66 112.65 35.68 133.44 32.51 M 149.16 38.10 C 122.20 38.42 95.47 48.45 75.44 66.56 C 54.01 85.35 40.04 112.60 37.95 141.08 C 36.92 154.03 37.80 167.21 41.28 179.75 C 46.29 199.11 56.91 216.85 71.01 230.94 C 85.42 244.99 103.59 254.92 123.06 259.93 C 148.93 266.27 177.05 263.19 200.78 250.98 C 236.13 233.71 260.71 196.33 262.25 156.98 C 263.09 143.69 261.47 130.25 257.57 117.52 C 249.81 92.19 232.62 69.88 210.23 55.75 C 192.24 43.90 170.59 38.25 149.16 38.10 Z" />
<path fill="#a4cf50" opacity="1.00" d=" M 141.17 150.82 C 141.81 146.35 145.17 141.79 150.07 141.94 C 154.91 141.88 158.19 146.40 158.83 150.83 C 157.84 154.96 154.89 159.59 150.05 159.20 C 145.17 159.66 142.15 154.99 141.17 150.82 Z" />
</g>
<g id="#000000ff">
<path fill="#000000" opacity="1.00" d=" M 135.15 15.28 C 152.22 13.87 169.68 14.57 186.18 19.53 C 223.14 29.44 254.97 56.10 271.96 90.29 C 279.38 104.86 283.48 120.91 285.54 137.08 C 287.59 159.03 283.79 181.28 275.76 201.74 C 265.07 227.54 246.45 249.93 223.11 265.26 C 207.23 275.09 189.59 282.60 170.98 285.06 C 161.41 286.27 151.69 287.47 142.05 286.37 C 110.09 284.95 78.94 271.11 56.04 248.83 C 44.55 238.31 35.56 225.28 28.43 211.48 C 20.86 197.77 17.15 182.31 14.85 166.92 C 13.60 159.68 14.10 152.31 14.01 145.01 C 15.48 104.95 35.97 66.13 68.08 42.17 C 87.42 27.27 110.96 18.15 135.15 15.28 M 133.44 32.51 C 112.65 35.68 92.36 43.66 75.90 56.91 C 68.09 63.34 60.59 70.27 54.56 78.44 C 42.30 93.83 34.78 112.60 31.32 131.86 C 29.18 142.10 29.81 152.63 30.02 163.02 C 31.96 179.50 36.69 195.75 44.71 210.33 C 55.81 229.75 72.21 246.19 91.70 257.21 C 107.24 265.45 124.47 270.58 142.01 271.98 C 149.98 271.87 158.04 272.57 165.93 271.08 C 179.71 269.01 193.25 264.97 205.66 258.60 C 222.80 249.68 237.39 236.30 248.70 220.72 C 260.81 203.85 267.55 183.57 269.98 163.06 C 270.24 156.02 270.30 148.99 270.03 141.96 C 267.42 111.58 253.03 82.14 229.83 62.19 C 204.23 38.62 167.83 27.63 133.44 32.51 Z" />
<path fill="#000000" opacity="1.00" d=" M 149.16 38.10 C 170.59 38.25 192.24 43.90 210.23 55.75 C 232.62 69.88 249.81 92.19 257.57 117.52 C 261.47 130.25 263.09 143.69 262.25 156.98 C 260.71 196.33 236.13 233.71 200.78 250.98 C 177.05 263.19 148.93 266.27 123.06 259.93 C 103.59 254.92 85.42 244.99 71.01 230.94 C 56.91 216.85 46.29 199.11 41.28 179.75 C 37.80 167.21 36.92 154.03 37.95 141.08 C 40.04 112.60 54.01 85.35 75.44 66.56 C 95.47 48.45 122.20 38.42 149.16 38.10 M 152.00 48.74 C 151.51 51.38 153.60 57.34 149.24 56.98 C 147.13 55.59 148.31 52.77 148.01 50.68 C 141.62 50.97 135.28 51.90 129.00 53.00 C 110.61 56.51 93.40 65.61 80.01 78.69 C 81.75 80.74 85.82 83.36 83.14 86.30 C 80.33 88.63 77.94 84.37 75.99 82.78 C 58.22 100.19 48.75 125.01 47.95 149.64 C 49.57 149.79 51.20 149.95 52.82 150.14 C 52.87 150.87 52.97 152.32 53.01 153.05 C 51.09 153.89 49.00 154.04 46.93 154.16 C 47.63 179.02 57.78 203.44 74.64 221.71 C 76.78 219.42 79.89 216.15 83.00 219.06 C 82.99 219.67 82.96 220.89 82.94 221.50 C 81.64 222.93 80.33 224.36 78.99 225.76 C 84.98 231.01 91.44 235.72 98.32 239.73 C 113.07 248.43 129.97 252.98 146.99 254.10 C 147.01 252.01 147.05 249.92 147.12 247.83 C 147.82 247.86 149.24 247.92 149.94 247.95 C 151.77 249.40 150.71 252.08 151.04 254.10 C 176.02 252.66 200.90 243.27 219.03 225.73 C 217.67 224.43 216.32 223.11 215.00 221.77 C 215.06 220.53 215.12 219.30 215.19 218.07 C 218.59 217.06 220.93 219.41 223.02 221.70 C 240.79 203.42 251.35 178.24 252.10 152.76 C 249.74 152.63 247.37 152.48 245.02 152.21 C 245.01 151.40 244.98 149.79 244.97 148.98 C 247.31 148.86 249.66 148.77 252.01 148.70 C 252.22 123.53 242.00 98.32 223.96 80.69 C 222.41 82.17 220.87 83.65 219.35 85.16 C 218.04 84.80 216.62 84.33 216.03 82.97 C 215.38 80.01 218.42 78.37 220.09 76.49 C 201.68 59.48 177.13 49.07 152.00 48.74 Z" />
<path fill="#000000" opacity="1.00" d=" M 141.33 62.26 C 145.43 58.81 151.79 58.92 156.16 61.83 C 158.84 64.43 159.65 68.36 159.63 71.98 C 159.63 92.83 159.59 113.69 159.65 134.54 C 161.71 136.04 163.40 137.94 164.92 139.98 C 175.96 140.04 187.01 139.97 198.06 140.00 C 202.35 140.02 207.38 141.72 209.03 146.08 C 212.08 152.06 208.08 160.89 200.95 161.07 C 189.08 161.60 177.16 160.91 165.29 161.39 C 162.08 164.22 159.20 167.80 154.84 168.88 C 145.31 172.20 134.05 166.44 130.85 156.93 C 127.95 148.75 131.65 139.50 138.32 134.33 C 138.49 113.22 138.29 92.09 138.40 70.97 C 138.44 67.84 139.38 64.73 141.33 62.26 M 141.17 150.82 C 142.15 154.99 145.17 159.66 150.05 159.20 C 154.89 159.59 157.84 154.96 158.83 150.83 C 158.19 146.40 154.91 141.88 150.07 141.94 C 145.17 141.79 141.81 146.35 141.17 150.82 Z" />
</g>
</svg>
