<?xml version="1.0" encoding="UTF-8" ?>
<!DOCTYPE svg PUBLIC "-//W3C//DTD SVG 1.1//EN" "http://www.w3.org/Graphics/SVG/1.1/DTD/svg11.dtd">
<svg width="300pt" height="226pt" viewBox="0 0 300 226" version="1.1" xmlns="http://www.w3.org/2000/svg">
<g id="#ffffffff">
</g>
<g id="#69903dff">
<path fill="#69903d" opacity="1.00" d=" M 57.81 41.00 C 59.52 40.67 61.22 40.22 62.97 40.21 C 122.30 40.25 181.63 40.18 240.96 40.24 C 242.65 40.49 246.07 40.29 245.48 42.92 C 244.63 44.53 243.09 45.60 241.78 46.80 C 213.32 69.33 184.92 91.93 156.40 114.37 C 153.74 116.77 149.35 116.70 146.74 114.27 C 118.64 92.02 90.64 69.65 62.42 47.55 C 60.36 45.83 57.21 44.19 57.81 41.00 Z" />
<path fill="#69903d" opacity="1.00" d=" M 42.66 52.54 C 45.17 51.18 47.60 52.85 49.55 54.39 C 81.56 79.73 113.54 105.12 145.59 130.41 C 149.17 133.67 154.65 133.32 158.21 130.21 C 189.06 105.72 219.91 81.24 250.75 56.74 C 253.49 54.65 256.11 51.74 259.85 51.82 C 261.68 54.55 260.86 57.92 261.02 61.01 C 260.97 100.33 261.02 139.67 260.99 178.99 C 261.12 180.87 259.55 182.17 258.35 183.36 C 255.87 185.85 252.11 184.84 248.99 185.02 C 182.31 184.98 115.64 185.00 48.96 185.01 C 45.07 184.79 41.57 181.07 41.98 177.07 C 42.01 140.05 41.99 103.02 42.00 66.00 C 42.07 61.51 41.59 56.95 42.66 52.54 Z" />
</g>
</svg>
