<?xml version="1.0" encoding="UTF-8" ?>
<!DOCTYPE svg PUBLIC "-//W3C//DTD SVG 1.1//EN" "http://www.w3.org/Graphics/SVG/1.1/DTD/svg11.dtd">
<svg width="300pt" height="300pt" viewBox="0 0 300 300" version="1.1" xmlns="http://www.w3.org/2000/svg">
<g id="#ffffffff">
<path fill="#ffffff" opacity="1.00" d=" M 139.88 46.43 C 146.24 46.03 152.69 45.72 159.02 46.58 C 152.66 46.97 146.22 47.29 139.88 46.43 Z" />
<path fill="#ffffff" opacity="1.00" d=" M 132.62 47.29 C 133.66 46.45 135.45 46.43 136.51 47.27 C 136.46 48.79 132.73 48.77 132.62 47.29 Z" />
<path fill="#ffffff" opacity="1.00" d=" M 162.55 47.21 C 163.15 46.23 165.59 46.35 165.35 47.78 C 164.75 48.78 162.28 48.65 162.55 47.21 Z" />
<path fill="#ffffff" opacity="1.00" d=" M 127.56 48.14 C 128.73 47.23 129.41 47.47 129.58 48.86 C 128.40 49.77 127.73 49.53 127.56 48.14 Z" />
<path fill="#ffffff" opacity="1.00" d=" M 169.44 48.14 C 170.61 47.22 171.27 47.47 171.44 48.86 C 170.27 49.78 169.61 49.54 169.44 48.14 Z" />
<path fill="#ffffff" opacity="1.00" d=" M 122.57 49.13 C 123.73 48.21 124.39 48.46 124.54 49.87 C 123.37 50.79 122.71 50.54 122.57 49.13 Z" />
<path fill="#ffffff" opacity="1.00" d=" M 173.42 49.14 C 174.59 48.22 175.26 48.46 175.43 49.86 C 174.26 50.78 173.59 50.54 173.42 49.14 Z" />
<path fill="#ffffff" opacity="1.00" d=" M 117.37 50.35 C 118.39 49.68 119.40 49.60 120.41 50.12 C 120.89 52.39 114.04 52.46 117.37 50.35 Z" />
<path fill="#ffffff" opacity="1.00" d=" M 177.43 50.13 C 178.60 49.22 179.27 49.47 179.43 50.86 C 178.25 51.78 177.58 51.53 177.43 50.13 Z" />
<path fill="#ffffff" opacity="1.00" d=" M 181.58 51.09 C 182.60 50.34 184.20 51.16 184.66 52.22 C 184.44 54.04 180.91 52.58 181.58 51.09 Z" />
<path fill="#ffffff" opacity="1.00" d=" M 112.32 52.21 C 113.05 51.36 115.46 51.90 114.23 53.19 C 113.19 55.01 109.71 53.56 112.32 52.21 Z" />
<path fill="#ffffff" opacity="1.00" d=" M 186.56 53.10 C 187.60 52.36 189.20 53.18 189.67 54.24 C 189.44 56.04 185.91 54.58 186.56 53.10 Z" />
<path fill="#ffffff" opacity="1.00" d=" M 103.81 56.92 C 105.72 55.53 107.89 54.59 110.13 53.91 C 108.30 55.42 106.17 56.54 103.81 56.92 Z" />
<path fill="#ffffff" opacity="1.00" d=" M 96.26 59.95 C 97.85 59.02 98.44 61.58 96.77 61.81 C 95.15 62.74 94.70 60.28 96.26 59.95 Z" />
<path fill="#ffffff" opacity="1.00" d=" M 202.32 61.10 C 203.25 60.19 205.27 61.52 204.61 62.71 C 203.67 63.44 201.62 62.32 202.32 61.10 Z" />
<path fill="#ffffff" opacity="1.00" d=" M 91.40 63.05 C 94.36 61.48 91.57 66.38 91.40 63.05 Z" />
<path fill="#ffffff" opacity="1.00" d=" M 207.26 64.20 C 207.80 64.75 207.80 64.75 207.26 64.20 Z" />
<path fill="#ffffff" opacity="1.00" d=" M 89.25 65.16 C 89.80 65.71 89.80 65.71 89.25 65.16 Z" />
<path fill="#ffffff" opacity="1.00" d=" M 211.25 67.15 C 211.81 67.71 211.81 67.71 211.25 67.15 Z" />
<path fill="#ffffff" opacity="1.00" d=" M 85.25 68.15 C 85.80 68.71 85.80 68.71 85.25 68.15 Z" />
<path fill="#ffffff" opacity="1.00" d=" M 214.25 69.20 C 214.79 69.75 214.79 69.75 214.25 69.20 Z" />
<path fill="#ffffff" opacity="1.00" d=" M 78.27 73.27 C 79.68 72.69 80.12 73.12 79.59 74.56 C 78.17 75.13 77.73 74.70 78.27 73.27 Z" />
<path fill="#ffffff" opacity="1.00" d=" M 71.41 80.23 C 73.94 79.22 72.35 83.09 70.66 82.80 C 69.22 82.44 70.56 80.52 71.41 80.23 Z" />
<path fill="#ffffff" opacity="1.00" d=" M 67.21 85.34 C 68.81 85.41 68.09 87.81 66.80 87.78 C 65.21 87.72 65.96 85.32 67.21 85.34 Z" />
<path fill="#ffffff" opacity="1.00" d=" M 230.30 85.26 C 230.85 85.80 230.85 85.80 230.30 85.26 Z" />
<path fill="#ffffff" opacity="1.00" d=" M 232.15 87.43 C 235.48 87.56 230.62 90.41 232.15 87.43 Z" />
<path fill="#ffffff" opacity="1.00" d=" M 64.16 90.24 C 64.71 90.80 64.71 90.80 64.16 90.24 Z" />
<path fill="#ffffff" opacity="1.00" d=" M 62.03 92.41 C 65.36 92.60 60.45 95.37 62.03 92.41 Z" />
<path fill="#ffffff" opacity="1.00" d=" M 235.30 92.24 C 235.85 92.79 235.85 92.79 235.30 92.24 Z" />
<path fill="#ffffff" opacity="1.00" d=" M 60.07 95.38 C 63.40 95.55 58.50 98.33 60.07 95.38 Z" />
<path fill="#ffffff" opacity="1.00" d=" M 237.30 95.39 C 238.49 94.73 239.81 96.75 238.91 97.69 C 237.68 98.38 236.56 96.32 237.30 95.39 Z" />
<path fill="#ffffff" opacity="1.00" d=" M 168.79 97.90 C 169.28 101.56 168.94 105.23 168.76 108.90 C 156.01 109.25 143.24 108.73 130.49 109.11 C 130.03 110.17 129.51 111.20 128.94 112.20 C 129.04 110.87 129.13 109.53 129.22 108.20 C 142.36 108.25 155.49 108.31 168.63 108.19 C 168.73 104.76 168.76 101.33 168.79 97.90 Z" />
<path fill="#ffffff" opacity="1.00" d=" M 52.26 111.31 C 54.05 111.54 52.58 115.07 51.11 114.45 C 50.39 113.40 51.20 111.79 52.26 111.31 Z" />
<path fill="#ffffff" opacity="1.00" d=" M 246.02 111.91 C 247.44 114.10 248.30 116.58 248.98 119.08 C 247.36 117.00 246.50 114.48 246.02 111.91 Z" />
<path fill="#ffffff" opacity="1.00" d=" M 50.09 116.35 C 53.41 116.53 48.52 119.31 50.09 116.35 Z" />
<path fill="#ffffff" opacity="1.00" d=" M 49.09 119.34 C 52.41 119.50 47.54 122.31 49.09 119.34 Z" />
<path fill="#ffffff" opacity="1.00" d=" M 249.13 120.57 C 250.53 120.73 250.77 121.39 249.87 122.57 C 248.46 122.41 248.22 121.75 249.13 120.57 Z" />
<path fill="#ffffff" opacity="1.00" d=" M 48.14 122.57 C 49.54 122.74 49.78 123.41 48.86 124.58 C 47.46 124.40 47.22 123.74 48.14 122.57 Z" />
<path fill="#ffffff" opacity="1.00" d=" M 250.14 124.58 C 251.53 124.74 251.77 125.40 250.87 126.58 C 249.46 126.42 249.22 125.75 250.14 124.58 Z" />
<path fill="#ffffff" opacity="1.00" d=" M 47.14 126.58 C 48.54 126.75 48.78 127.42 47.86 128.59 C 46.46 128.41 46.22 127.74 47.14 126.58 Z" />
<path fill="#ffffff" opacity="1.00" d=" M 251.14 128.56 C 252.53 128.72 252.78 129.39 251.86 130.56 C 250.46 130.39 250.21 129.72 251.14 128.56 Z" />
<path fill="#ffffff" opacity="1.00" d=" M 46.22 130.66 C 47.65 130.41 47.77 132.85 46.80 133.45 C 45.35 133.73 45.22 131.26 46.22 130.66 Z" />
<path fill="#ffffff" opacity="1.00" d=" M 252.21 134.66 C 253.64 134.40 253.76 136.84 252.79 137.45 C 251.35 137.72 251.21 135.25 252.21 134.66 Z" />
<path fill="#ffffff" opacity="1.00" d=" M 45.22 136.66 C 46.65 136.40 46.78 138.84 45.80 139.45 C 44.36 139.73 44.22 137.26 45.22 136.66 Z" />
<path fill="#ffffff" opacity="1.00" d=" M 132.72 136.14 C 137.76 135.96 142.81 135.86 147.85 136.07 C 148.23 136.28 148.99 136.71 149.37 136.93 C 144.03 136.51 138.67 136.43 133.34 136.90 L 132.72 136.14 Z" />
<path fill="#ffffff" opacity="1.00" d=" M 151.06 137.29 C 152.44 136.04 153.37 136.29 153.86 138.04 C 152.84 138.09 151.91 137.84 151.06 137.29 Z" />
<path fill="#ffffff" opacity="1.00" d=" M 163.09 141.70 C 163.18 141.76 163.36 141.88 163.45 141.94 C 163.36 141.88 163.18 141.76 163.09 141.70 Z" />
<path fill="#ffffff" opacity="1.00" d=" M 253.40 140.97 C 254.32 147.28 253.95 153.74 253.57 160.10 C 252.70 153.76 253.05 147.33 253.40 140.97 Z" />
<path fill="#ffffff" opacity="1.00" d=" M 127.62 146.88 C 134.19 146.13 140.86 145.63 147.43 146.68 C 140.84 147.25 134.22 147.00 127.62 146.88 Z" />
<path fill="#ffffff" opacity="1.00" d=" M 120.49 147.18 C 120.60 147.24 120.82 147.34 120.93 147.39 C 120.82 147.34 120.60 147.24 120.49 147.18 Z" />
<path fill="#ffffff" opacity="1.00" d=" M 124.00 147.72 C 124.85 147.11 125.79 146.85 126.83 146.93 C 126.33 148.64 125.39 148.90 124.00 147.72 Z" />
<path fill="#ffffff" opacity="1.00" d=" M 157.35 150.77 C 158.57 151.40 159.54 152.42 160.24 153.60 C 158.77 154.74 156.20 152.25 157.35 150.77 Z" />
<path fill="#ffffff" opacity="1.00" d=" M 174.10 155.02 L 175.00 155.25 L 175.35 156.27 L 174.79 157.00 C 174.62 156.51 174.28 155.52 174.10 155.02 Z" />
<path fill="#ffffff" opacity="1.00" d=" M 163.39 160.09 C 163.95 161.59 164.15 163.20 164.09 164.79 C 162.12 164.77 162.18 161.16 163.39 160.09 Z" />
<path fill="#ffffff" opacity="1.00" d=" M 45.21 162.55 C 46.65 162.27 46.78 164.74 45.79 165.34 C 44.36 165.60 44.23 163.16 45.21 162.55 Z" />
<path fill="#ffffff" opacity="1.00" d=" M 252.26 163.50 C 253.79 163.54 253.76 167.27 252.29 167.38 C 251.44 166.34 251.43 164.55 252.26 163.50 Z" />
<path fill="#ffffff" opacity="1.00" d=" M 46.21 168.51 C 47.65 168.25 47.74 170.73 46.78 171.36 C 45.35 171.59 45.27 169.13 46.21 168.51 Z" />
<path fill="#ffffff" opacity="1.00" d=" M 251.13 170.42 C 252.52 170.58 252.77 171.26 251.86 172.44 C 250.47 172.28 250.23 171.60 251.13 170.42 Z" />
<path fill="#ffffff" opacity="1.00" d=" M 47.09 174.25 C 50.43 174.39 45.55 177.21 47.09 174.25 Z" />
<path fill="#ffffff" opacity="1.00" d=" M 174.01 175.97 C 174.19 175.48 174.53 174.49 174.70 173.99 L 175.26 174.72 L 174.91 175.74 L 174.01 175.97 Z" />
<path fill="#ffffff" opacity="1.00" d=" M 250.13 175.45 C 251.54 175.61 251.78 176.27 250.86 177.44 C 249.45 177.27 249.21 176.61 250.13 175.45 Z" />
<path fill="#ffffff" opacity="1.00" d=" M 48.12 177.43 C 49.53 177.58 49.78 178.24 48.87 179.42 C 47.47 179.27 47.22 178.61 48.12 177.43 Z" />
<path fill="#ffffff" opacity="1.00" d=" M 249.42 179.51 C 251.14 179.98 249.88 183.70 248.33 183.60 C 247.65 182.32 248.37 180.40 249.42 179.51 Z" />
<path fill="#ffffff" opacity="1.00" d=" M 49.08 181.24 C 52.42 181.37 47.55 184.21 49.08 181.24 Z" />
<path fill="#ffffff" opacity="1.00" d=" M 157.45 182.90 C 157.56 182.80 157.78 182.61 157.89 182.51 C 157.78 182.61 157.56 182.80 157.45 182.90 Z" />
<path fill="#ffffff" opacity="1.00" d=" M 50.03 183.86 C 51.62 186.02 52.38 188.61 52.82 191.22 C 51.52 188.92 50.68 186.41 50.03 183.86 Z" />
<path fill="#ffffff" opacity="1.00" d=" M 154.55 184.93 C 154.66 184.86 154.89 184.72 155.00 184.65 C 154.89 184.72 154.66 184.86 154.55 184.93 Z" />
<path fill="#ffffff" opacity="1.00" d=" M 247.10 185.21 C 250.42 185.38 245.54 188.18 247.10 185.21 Z" />
<path fill="#ffffff" opacity="1.00" d=" M 124.06 186.46 C 125.36 185.18 126.34 185.37 126.99 187.01 C 125.94 187.18 124.97 187.00 124.06 186.46 Z" />
<path fill="#ffffff" opacity="1.00" d=" M 128.98 187.32 C 130.35 186.10 131.31 186.33 131.87 188.02 C 130.83 188.11 129.87 187.88 128.98 187.32 Z" />
<path fill="#ffffff" opacity="1.00" d=" M 164.09 190.80 C 165.22 189.77 166.36 188.74 167.52 187.74 C 168.97 189.47 165.68 192.35 164.09 190.80 Z" />
<path fill="#ffffff" opacity="1.00" d=" M 246.10 188.23 C 249.43 188.39 244.54 191.18 246.10 188.23 Z" />
<path fill="#ffffff" opacity="1.00" d=" M 122.02 196.02 C 122.51 196.20 123.49 196.55 123.98 196.73 L 123.26 197.29 L 122.24 196.92 L 122.02 196.02 Z" />
<path fill="#ffffff" opacity="1.00" d=" M 151.06 196.72 C 151.91 196.19 152.85 195.96 153.85 196.00 C 153.35 197.75 152.41 197.99 151.06 196.72 Z" />
<path fill="#ffffff" opacity="1.00" d=" M 239.28 202.16 C 240.90 202.24 240.07 204.68 238.86 204.77 C 237.35 204.67 238.17 202.30 239.28 202.16 Z" />
<path fill="#ffffff" opacity="1.00" d=" M 60.05 205.19 C 63.39 205.27 58.57 208.19 60.05 205.19 Z" />
<path fill="#ffffff" opacity="1.00" d=" M 236.14 207.16 C 239.47 207.34 234.56 210.12 236.14 207.16 Z" />
<path fill="#ffffff" opacity="1.00" d=" M 234.16 210.14 C 237.50 210.33 232.57 213.08 234.16 210.14 Z" />
<path fill="#ffffff" opacity="1.00" d=" M 64.01 211.16 C 67.36 211.25 62.51 214.14 64.01 211.16 Z" />
<path fill="#ffffff" opacity="1.00" d=" M 231.16 214.14 C 234.50 214.33 229.57 217.09 231.16 214.14 Z" />
<path fill="#ffffff" opacity="1.00" d=" M 67.02 215.16 C 70.36 215.24 65.52 218.15 67.02 215.16 Z" />
<path fill="#ffffff" opacity="1.00" d=" M 227.20 219.11 C 228.43 219.77 228.36 220.45 226.99 221.14 C 225.74 220.47 225.81 219.79 227.20 219.11 Z" />
<path fill="#ffffff" opacity="1.00" d=" M 72.12 221.32 C 73.50 220.93 74.04 221.44 73.73 222.85 C 72.36 223.20 71.82 222.69 72.12 221.32 Z" />
<path fill="#ffffff" opacity="1.00" d=" M 77.16 226.33 C 78.38 225.64 80.29 227.32 79.82 228.62 C 78.60 229.30 76.67 227.63 77.16 226.33 Z" />
<path fill="#ffffff" opacity="1.00" d=" M 217.34 229.20 C 219.18 229.78 216.75 232.64 215.43 231.83 C 214.80 230.66 216.25 229.37 217.34 229.20 Z" />
<path fill="#ffffff" opacity="1.00" d=" M 84.26 232.32 C 84.81 232.88 84.81 232.88 84.26 232.32 Z" />
<path fill="#ffffff" opacity="1.00" d=" M 212.13 232.99 C 213.62 232.15 214.23 234.59 212.76 234.98 C 211.23 235.87 210.65 233.38 212.13 232.99 Z" />
<path fill="#ffffff" opacity="1.00" d=" M 88.25 235.33 C 88.80 235.88 88.80 235.88 88.25 235.33 Z" />
<path fill="#ffffff" opacity="1.00" d=" M 208.13 236.17 C 211.08 234.59 208.30 239.50 208.13 236.17 Z" />
<path fill="#ffffff" opacity="1.00" d=" M 90.41 237.14 C 93.39 235.61 90.55 240.47 90.41 237.14 Z" />
<path fill="#ffffff" opacity="1.00" d=" M 205.18 238.12 C 208.12 236.53 205.38 241.45 205.18 238.12 Z" />
<path fill="#ffffff" opacity="1.00" d=" M 94.16 239.48 C 95.04 238.63 97.20 239.72 96.57 240.97 C 95.66 241.88 93.68 240.70 94.16 239.48 Z" />
<path fill="#ffffff" opacity="1.00" d=" M 187.96 248.06 C 192.36 245.17 197.13 242.78 202.09 241.04 C 197.72 243.98 192.88 246.20 187.96 248.06 Z" />
<path fill="#ffffff" opacity="1.00" d=" M 109.41 247.23 C 110.43 246.38 112.90 247.50 112.43 248.90 C 111.39 249.66 109.01 248.62 109.41 247.23 Z" />
<path fill="#ffffff" opacity="1.00" d=" M 185.21 248.10 C 188.18 246.55 185.38 251.43 185.21 248.10 Z" />
<path fill="#ffffff" opacity="1.00" d=" M 114.35 249.09 C 117.32 247.56 114.48 252.42 114.35 249.09 Z" />
<path fill="#ffffff" opacity="1.00" d=" M 182.20 249.11 C 185.17 247.55 182.38 252.43 182.20 249.11 Z" />
<path fill="#ffffff" opacity="1.00" d=" M 117.35 250.09 C 120.34 248.57 117.46 253.41 117.35 250.09 Z" />
<path fill="#ffffff" opacity="1.00" d=" M 179.43 250.04 C 183.08 250.20 176.95 253.88 176.50 251.44 C 177.27 250.61 178.25 250.15 179.43 250.04 Z" />
<path fill="#ffffff" opacity="1.00" d=" M 120.59 251.14 C 121.76 250.22 122.43 250.47 122.59 251.87 C 121.41 252.77 120.74 252.53 120.59 251.14 Z" />
<path fill="#ffffff" opacity="1.00" d=" M 124.33 252.09 C 127.28 250.53 124.50 255.42 124.33 252.09 Z" />
<path fill="#ffffff" opacity="1.00" d=" M 172.21 252.09 C 175.20 250.55 172.38 255.41 172.21 252.09 Z" />
<path fill="#ffffff" opacity="1.00" d=" M 127.66 253.21 C 128.25 252.21 130.73 252.35 130.45 253.80 C 129.84 254.77 127.40 254.64 127.66 253.21 Z" />
<path fill="#ffffff" opacity="1.00" d=" M 167.53 253.21 C 168.14 252.25 170.59 252.34 170.36 253.78 C 169.74 254.75 167.26 254.65 167.53 253.21 Z" />
<path fill="#ffffff" opacity="1.00" d=" M 134.66 254.21 C 135.25 253.21 137.73 253.35 137.45 254.79 C 136.83 255.76 134.39 255.64 134.66 254.21 Z" />
<path fill="#ffffff" opacity="1.00" d=" M 160.52 254.21 C 161.14 253.25 163.59 253.34 163.35 254.78 C 162.74 255.74 160.26 255.65 160.52 254.21 Z" />
</g>
<g id="#febd1bff">
<path fill="#febd1b" opacity="1.00" d=" M 136.42 34.65 C 151.73 32.86 167.42 34.34 182.15 38.84 C 207.04 45.85 229.01 62.00 244.08 82.91 C 256.29 99.55 263.56 119.62 265.57 140.11 C 267.64 162.53 262.97 185.50 252.49 205.40 C 242.38 223.48 228.21 239.61 210.30 250.27 C 198.30 257.53 185.12 262.94 171.30 265.48 C 160.35 268.03 149.05 266.69 137.93 266.99 C 98.39 263.67 61.72 238.10 44.50 202.40 C 28.20 170.37 28.34 130.66 44.77 98.71 C 56.74 73.94 78.31 54.43 103.30 43.30 C 113.90 39.02 125.04 35.95 136.42 34.65 M 139.88 46.43 C 146.22 47.29 152.66 46.97 159.02 46.58 C 152.69 45.72 146.24 46.03 139.88 46.43 M 132.62 47.29 C 132.73 48.77 136.46 48.79 136.51 47.27 C 135.45 46.43 133.66 46.45 132.62 47.29 M 162.55 47.21 C 162.28 48.65 164.75 48.78 165.35 47.78 C 165.59 46.35 163.15 46.23 162.55 47.21 M 127.56 48.14 C 127.73 49.53 128.40 49.77 129.58 48.86 C 129.41 47.47 128.73 47.23 127.56 48.14 M 169.44 48.14 C 169.61 49.54 170.27 49.78 171.44 48.86 C 171.27 47.47 170.61 47.22 169.44 48.14 M 122.57 49.13 C 122.71 50.54 123.37 50.79 124.54 49.87 C 124.39 48.46 123.73 48.21 122.57 49.13 M 173.42 49.14 C 173.59 50.54 174.26 50.78 175.43 49.86 C 175.26 48.46 174.59 48.22 173.42 49.14 M 117.37 50.35 C 114.04 52.46 120.89 52.39 120.41 50.12 C 119.40 49.60 118.39 49.68 117.37 50.35 M 177.43 50.13 C 177.58 51.53 178.25 51.78 179.43 50.86 C 179.27 49.47 178.60 49.22 177.43 50.13 M 181.58 51.09 C 180.91 52.58 184.44 54.04 184.66 52.22 C 184.20 51.16 182.60 50.34 181.58 51.09 M 112.32 52.21 C 109.71 53.56 113.19 55.01 114.23 53.19 C 115.46 51.90 113.05 51.36 112.32 52.21 M 186.56 53.10 C 185.91 54.58 189.44 56.04 189.67 54.24 C 189.20 53.18 187.60 52.36 186.56 53.10 M 103.81 56.92 C 106.17 56.54 108.30 55.42 110.13 53.91 C 107.89 54.59 105.72 55.53 103.81 56.92 M 96.26 59.95 C 94.70 60.28 95.15 62.74 96.77 61.81 C 98.44 61.58 97.85 59.02 96.26 59.95 M 202.32 61.10 C 201.62 62.32 203.67 63.44 204.61 62.71 C 205.27 61.52 203.25 60.19 202.32 61.10 M 91.40 63.05 C 91.57 66.38 94.36 61.48 91.40 63.05 M 207.26 64.20 C 207.80 64.75 207.80 64.75 207.26 64.20 M 89.25 65.16 C 89.80 65.71 89.80 65.71 89.25 65.16 M 211.25 67.15 C 211.81 67.71 211.81 67.71 211.25 67.15 M 85.25 68.15 C 85.80 68.71 85.80 68.71 85.25 68.15 M 214.25 69.20 C 214.79 69.75 214.79 69.75 214.25 69.20 M 78.27 73.27 C 77.73 74.70 78.17 75.13 79.59 74.56 C 80.12 73.12 79.68 72.69 78.27 73.27 M 71.41 80.23 C 70.56 80.52 69.22 82.44 70.66 82.80 C 72.35 83.09 73.94 79.22 71.41 80.23 M 67.21 85.34 C 65.96 85.32 65.21 87.72 66.80 87.78 C 68.09 87.81 68.81 85.41 67.21 85.34 M 230.30 85.26 C 230.85 85.80 230.85 85.80 230.30 85.26 M 232.15 87.43 C 230.62 90.41 235.48 87.56 232.15 87.43 M 64.16 90.24 C 64.71 90.80 64.71 90.80 64.16 90.24 M 62.03 92.41 C 60.45 95.37 65.36 92.60 62.03 92.41 M 235.30 92.24 C 235.85 92.79 235.85 92.79 235.30 92.24 M 60.07 95.38 C 58.50 98.33 63.40 95.55 60.07 95.38 M 237.30 95.39 C 236.56 96.32 237.68 98.38 238.91 97.69 C 239.81 96.75 238.49 94.73 237.30 95.39 M 119.90 98.07 C 118.47 112.81 117.49 127.59 116.19 142.35 C 115.60 145.04 118.78 145.95 120.49 147.18 C 120.60 147.24 120.82 147.34 120.93 147.39 C 121.70 147.47 123.23 147.64 124.00 147.72 C 125.39 148.90 126.33 148.64 126.83 146.93 L 127.62 146.88 C 134.22 147.00 140.84 147.25 147.43 146.68 C 151.03 147.21 154.34 148.78 157.35 150.77 C 156.20 152.25 158.77 154.74 160.24 153.60 C 161.65 155.57 162.64 157.79 163.39 160.09 C 162.18 161.16 162.12 164.77 164.09 164.79 C 164.59 171.24 162.84 178.07 157.89 182.51 C 157.78 182.61 157.56 182.80 157.45 182.90 C 156.84 183.34 155.62 184.22 155.00 184.65 C 154.89 184.72 154.66 184.86 154.55 184.93 C 147.68 188.77 139.48 188.73 131.87 188.02 C 131.31 186.33 130.35 186.10 128.98 187.32 C 128.48 187.25 127.48 187.09 126.99 187.01 C 126.34 185.37 125.36 185.18 124.06 186.46 C 120.52 185.33 117.03 184.07 113.68 182.47 C 113.74 185.88 113.01 189.46 114.00 192.76 C 116.52 194.17 119.21 195.32 122.02 196.02 L 122.24 196.92 L 123.26 197.29 L 123.98 196.73 C 132.93 198.15 142.14 198.50 151.06 196.72 C 152.41 197.99 153.35 197.75 153.85 196.00 C 157.47 194.74 160.97 193.04 164.09 190.80 C 165.68 192.35 168.97 189.47 167.52 187.74 C 170.70 184.52 172.87 180.33 174.01 175.97 L 174.91 175.74 L 175.26 174.72 L 174.70 173.99 C 175.64 168.38 175.97 162.60 174.79 157.00 L 175.35 156.27 L 175.00 155.25 L 174.10 155.02 C 172.14 149.62 168.16 145.14 163.45 141.94 C 163.36 141.88 163.18 141.76 163.09 141.70 C 160.22 140.03 157.12 138.66 153.86 138.04 C 153.37 136.29 152.44 136.04 151.06 137.29 C 150.64 137.20 149.79 137.02 149.37 136.93 C 148.99 136.71 148.23 136.28 147.85 136.07 C 142.81 135.86 137.76 135.96 132.72 136.14 L 133.34 136.90 C 131.17 137.22 129.04 137.69 126.89 138.09 C 127.20 129.44 128.17 120.82 128.94 112.20 C 129.51 111.20 130.03 110.17 130.49 109.11 C 143.24 108.73 156.01 109.25 168.76 108.90 C 168.94 105.23 169.28 101.56 168.79 97.90 C 152.49 98.17 136.19 97.85 119.90 98.07 M 52.26 111.31 C 51.20 111.79 50.39 113.40 51.11 114.45 C 52.58 115.07 54.05 111.54 52.26 111.31 M 246.02 111.91 C 246.50 114.48 247.36 117.00 248.98 119.08 C 248.30 116.58 247.44 114.10 246.02 111.91 M 50.09 116.35 C 48.52 119.31 53.41 116.53 50.09 116.35 M 49.09 119.34 C 47.54 122.31 52.41 119.50 49.09 119.34 M 249.13 120.57 C 248.22 121.75 248.46 122.41 249.87 122.57 C 250.77 121.39 250.53 120.73 249.13 120.57 M 48.14 122.57 C 47.22 123.74 47.46 124.40 48.86 124.58 C 49.78 123.41 49.54 122.74 48.14 122.57 M 250.14 124.58 C 249.22 125.75 249.46 126.42 250.87 126.58 C 251.77 125.40 251.53 124.74 250.14 124.58 M 47.14 126.58 C 46.22 127.74 46.46 128.41 47.86 128.59 C 48.78 127.42 48.54 126.75 47.14 126.58 M 251.14 128.56 C 250.21 129.72 250.46 130.39 251.86 130.56 C 252.78 129.39 252.53 128.72 251.14 128.56 M 46.22 130.66 C 45.22 131.26 45.35 133.73 46.80 133.45 C 47.77 132.85 47.65 130.41 46.22 130.66 M 252.21 134.66 C 251.21 135.25 251.35 137.72 252.79 137.45 C 253.76 136.84 253.64 134.40 252.21 134.66 M 45.22 136.66 C 44.22 137.26 44.36 139.73 45.80 139.45 C 46.78 138.84 46.65 136.40 45.22 136.66 M 253.40 140.97 C 253.05 147.33 252.70 153.76 253.57 160.10 C 253.95 153.74 254.32 147.28 253.40 140.97 M 45.21 162.55 C 44.23 163.16 44.36 165.60 45.79 165.34 C 46.78 164.74 46.65 162.27 45.21 162.55 M 252.26 163.50 C 251.43 164.55 251.44 166.34 252.29 167.38 C 253.76 167.27 253.79 163.54 252.26 163.50 M 46.21 168.51 C 45.27 169.13 45.35 171.59 46.78 171.36 C 47.74 170.73 47.65 168.25 46.21 168.51 M 251.13 170.42 C 250.23 171.60 250.47 172.28 251.86 172.44 C 252.77 171.26 252.52 170.58 251.13 170.42 M 47.09 174.25 C 45.55 177.21 50.43 174.39 47.09 174.25 M 250.13 175.45 C 249.21 176.61 249.45 177.27 250.86 177.44 C 251.78 176.27 251.54 175.61 250.13 175.45 M 48.12 177.43 C 47.22 178.61 47.47 179.27 48.87 179.42 C 49.78 178.24 49.53 177.58 48.12 177.43 M 249.42 179.51 C 248.37 180.40 247.65 182.32 248.33 183.60 C 249.88 183.70 251.14 179.98 249.42 179.51 M 49.08 181.24 C 47.55 184.21 52.42 181.37 49.08 181.24 M 50.03 183.86 C 50.68 186.41 51.52 188.92 52.82 191.22 C 52.38 188.61 51.62 186.02 50.03 183.86 M 247.10 185.21 C 245.54 188.18 250.42 185.38 247.10 185.21 M 246.10 188.23 C 244.54 191.18 249.43 188.39 246.10 188.23 M 239.28 202.16 C 238.17 202.30 237.35 204.67 238.86 204.77 C 240.07 204.68 240.90 202.24 239.28 202.16 M 60.05 205.19 C 58.57 208.19 63.39 205.27 60.05 205.19 M 236.14 207.16 C 234.56 210.12 239.47 207.34 236.14 207.16 M 234.16 210.14 C 232.57 213.08 237.50 210.33 234.16 210.14 M 64.01 211.16 C 62.51 214.14 67.36 211.25 64.01 211.16 M 231.16 214.14 C 229.57 217.09 234.50 214.33 231.16 214.14 M 67.02 215.16 C 65.52 218.15 70.36 215.24 67.02 215.16 M 227.20 219.11 C 225.81 219.79 225.74 220.47 226.99 221.14 C 228.36 220.45 228.43 219.77 227.20 219.11 M 72.12 221.32 C 71.82 222.69 72.36 223.20 73.73 222.85 C 74.04 221.44 73.50 220.93 72.12 221.32 M 77.16 226.33 C 76.67 227.63 78.60 229.30 79.82 228.62 C 80.29 227.32 78.38 225.64 77.16 226.33 M 217.34 229.20 C 216.25 229.37 214.80 230.66 215.43 231.83 C 216.75 232.64 219.18 229.78 217.34 229.20 M 84.26 232.32 C 84.81 232.88 84.81 232.88 84.26 232.32 M 212.13 232.99 C 210.65 233.38 211.23 235.87 212.76 234.98 C 214.23 234.59 213.62 232.15 212.13 232.99 M 88.25 235.33 C 88.80 235.88 88.80 235.88 88.25 235.33 M 208.13 236.17 C 208.30 239.50 211.08 234.59 208.13 236.17 M 90.41 237.14 C 90.55 240.47 93.39 235.61 90.41 237.14 M 205.18 238.12 C 205.38 241.45 208.12 236.53 205.18 238.12 M 94.16 239.48 C 93.68 240.70 95.66 241.88 96.57 240.97 C 97.20 239.72 95.04 238.63 94.16 239.48 M 187.96 248.06 C 192.88 246.20 197.72 243.98 202.09 241.04 C 197.13 242.78 192.36 245.17 187.96 248.06 M 109.41 247.23 C 109.01 248.62 111.39 249.66 112.43 248.90 C 112.90 247.50 110.43 246.38 109.41 247.23 M 185.21 248.10 C 185.38 251.43 188.18 246.55 185.21 248.10 M 114.35 249.09 C 114.48 252.42 117.32 247.56 114.35 249.09 M 182.20 249.11 C 182.38 252.43 185.17 247.55 182.20 249.11 M 117.35 250.09 C 117.46 253.41 120.34 248.57 117.35 250.09 M 179.43 250.04 C 178.25 250.15 177.27 250.61 176.50 251.44 C 176.95 253.88 183.08 250.20 179.43 250.04 M 120.59 251.14 C 120.74 252.53 121.41 252.77 122.59 251.87 C 122.43 250.47 121.76 250.22 120.59 251.14 M 124.33 252.09 C 124.50 255.42 127.28 250.53 124.33 252.09 M 172.21 252.09 C 172.38 255.41 175.20 250.55 172.21 252.09 M 127.66 253.21 C 127.40 254.64 129.84 254.77 130.45 253.80 C 130.73 252.35 128.25 252.21 127.66 253.21 M 167.53 253.21 C 167.26 254.65 169.74 254.75 170.36 253.78 C 170.59 252.34 168.14 252.25 167.53 253.21 M 134.66 254.21 C 134.39 255.64 136.83 255.76 137.45 254.79 C 137.73 253.35 135.25 253.21 134.66 254.21 M 160.52 254.21 C 160.26 255.65 162.74 255.74 163.35 254.78 C 163.59 253.34 161.14 253.25 160.52 254.21 Z" />
</g>
<g id="#0f1112ff">
<path fill="#0f1112" opacity="1.00" d=" M 119.90 98.07 C 136.19 97.85 152.49 98.17 168.79 97.90 C 168.76 101.33 168.73 104.76 168.63 108.19 C 155.49 108.31 142.36 108.25 129.22 108.20 C 129.13 109.53 129.04 110.87 128.94 112.20 C 128.17 120.82 127.20 129.44 126.89 138.09 C 129.04 137.69 131.17 137.22 133.34 136.90 C 138.67 136.43 144.03 136.51 149.37 136.93 C 149.79 137.02 150.64 137.20 151.06 137.29 C 151.91 137.84 152.84 138.09 153.86 138.04 C 157.12 138.66 160.22 140.03 163.09 141.70 C 163.18 141.76 163.36 141.88 163.45 141.94 C 168.16 145.14 172.14 149.62 174.10 155.02 C 174.28 155.52 174.62 156.51 174.79 157.00 C 175.97 162.60 175.64 168.38 174.70 173.99 C 174.53 174.49 174.19 175.48 174.01 175.97 C 172.87 180.33 170.70 184.52 167.52 187.74 C 166.36 188.74 165.22 189.77 164.09 190.80 C 160.97 193.04 157.47 194.74 153.85 196.00 C 152.85 195.96 151.91 196.19 151.06 196.72 C 142.14 198.50 132.93 198.15 123.98 196.73 C 123.49 196.55 122.51 196.20 122.02 196.02 C 119.21 195.32 116.52 194.17 114.00 192.76 C 113.01 189.46 113.74 185.88 113.68 182.47 C 117.03 184.07 120.52 185.33 124.06 186.46 C 124.97 187.00 125.94 187.18 126.99 187.01 C 127.48 187.09 128.48 187.25 128.98 187.32 C 129.87 187.88 130.83 188.11 131.87 188.02 C 139.48 188.73 147.68 188.77 154.55 184.93 C 154.66 184.86 154.89 184.72 155.00 184.65 C 155.62 184.22 156.84 183.34 157.45 182.90 C 157.56 182.80 157.78 182.61 157.89 182.51 C 162.84 178.07 164.59 171.24 164.09 164.79 C 164.15 163.20 163.95 161.59 163.39 160.09 C 162.64 157.79 161.65 155.57 160.24 153.60 C 159.54 152.42 158.57 151.40 157.35 150.77 C 154.34 148.78 151.03 147.21 147.43 146.68 C 140.86 145.63 134.19 146.13 127.62 146.88 L 126.83 146.93 C 125.79 146.85 124.85 147.11 124.00 147.72 C 123.23 147.64 121.70 147.47 120.93 147.39 C 120.82 147.34 120.60 147.24 120.49 147.18 C 118.78 145.95 115.60 145.04 116.19 142.35 C 117.49 127.59 118.47 112.81 119.90 98.07 Z" />
</g>
</svg>
