<?xml version="1.0" encoding="UTF-8" ?>
<!DOCTYPE svg PUBLIC "-//W3C//DTD SVG 1.1//EN" "http://www.w3.org/Graphics/SVG/1.1/DTD/svg11.dtd">
<svg width="300pt" height="300pt" viewBox="0 0 300 300" version="1.1" xmlns="http://www.w3.org/2000/svg">
<g id="#ffffffff">
<path fill="#ffffff" opacity="1.00" d=" M 188.32 54.02 C 191.37 52.72 188.20 57.36 188.32 54.02 Z" />
<path fill="#ffffff" opacity="1.00" d=" M 202.32 61.23 C 202.81 61.80 202.81 61.80 202.32 61.23 Z" />
<path fill="#ffffff" opacity="1.00" d=" M 88.41 65.10 C 91.32 63.50 88.58 68.45 88.41 65.10 Z" />
<path fill="#ffffff" opacity="1.00" d=" M 84.47 69.02 C 83.93 67.82 85.78 66.58 86.81 67.17 C 87.37 68.33 85.49 69.85 84.47 69.02 Z" />
<path fill="#ffffff" opacity="1.00" d=" M 149.52 101.64 C 152.43 101.41 152.43 98.04 154.53 96.76 C 158.67 97.18 162.84 96.89 166.99 97.09 C 167.01 119.39 166.99 141.69 167.00 163.99 L 166.24 163.99 C 166.28 141.83 166.20 119.67 166.28 97.51 C 162.28 97.80 158.03 96.76 154.20 98.12 C 152.29 101.71 149.17 104.39 147.00 107.81 C 147.58 105.75 148.89 104.01 150.23 102.38 L 149.52 101.64 Z" />
<path fill="#ffffff" opacity="1.00" d=" M 138.60 119.81 C 138.64 119.75 138.72 119.63 138.77 119.57 C 138.72 119.63 138.64 119.75 138.60 119.81 Z" />
<path fill="#ffffff" opacity="1.00" d=" M 119.63 146.91 C 119.67 146.84 119.76 146.72 119.80 146.66 C 119.76 146.72 119.67 146.84 119.63 146.91 Z" />
<path fill="#ffffff" opacity="1.00" d=" M 83.83 232.14 C 85.22 231.86 85.85 232.41 85.74 233.78 C 84.35 234.03 83.71 233.49 83.83 232.14 Z" />
</g>
<g id="#febd1bff">
<path fill="#febd1b" opacity="1.00" d=" M 136.40 34.65 C 172.95 30.38 211.19 44.87 235.55 72.49 C 258.44 96.98 269.41 131.90 265.15 165.10 C 263.35 178.63 259.44 191.97 253.17 204.12 C 241.63 225.61 224.01 244.16 201.94 254.90 C 189.54 261.36 175.91 265.34 162.04 266.93 C 154.02 267.11 145.99 266.95 137.97 267.01 C 98.67 263.68 62.20 238.46 44.83 203.10 C 30.40 174.95 28.31 140.77 39.39 111.12 C 45.47 94.51 55.19 79.24 67.91 66.94 C 78.84 56.98 91.12 48.26 104.85 42.64 C 115.02 38.78 125.57 35.85 136.40 34.65 M 188.32 54.02 C 188.20 57.36 191.37 52.72 188.32 54.02 M 202.32 61.23 C 202.81 61.80 202.81 61.80 202.32 61.23 M 88.41 65.10 C 88.58 68.45 91.32 63.50 88.41 65.10 M 84.47 69.02 C 85.49 69.85 87.37 68.33 86.81 67.17 C 85.78 66.58 83.93 67.82 84.47 69.02 M 149.52 101.64 L 150.23 102.38 C 148.89 104.01 147.58 105.75 147.00 107.81 C 144.38 111.82 141.59 115.71 138.77 119.57 C 138.72 119.63 138.64 119.75 138.60 119.81 C 132.43 128.82 126.17 137.78 119.80 146.66 C 119.76 146.72 119.67 146.84 119.63 146.91 C 115.82 152.77 111.52 158.30 107.76 164.19 C 107.31 167.43 107.66 170.73 107.59 174.00 C 123.60 174.05 139.61 173.89 155.63 174.08 C 155.48 181.63 155.68 189.18 155.50 196.74 C 159.05 196.70 162.60 196.71 166.16 196.70 C 166.10 189.14 166.16 181.58 166.12 174.02 C 171.08 173.99 176.04 174.00 181.00 174.00 C 181.00 170.67 181.00 167.33 181.00 164.00 C 176.33 164.00 171.67 164.01 167.00 163.99 C 166.99 141.69 167.01 119.39 166.99 97.09 C 162.84 96.89 158.67 97.18 154.53 96.76 C 152.43 98.04 152.43 101.41 149.52 101.64 M 83.83 232.14 C 83.71 233.49 84.35 234.03 85.74 233.78 C 85.85 232.41 85.22 231.86 83.83 232.14 Z" />
</g>
<g id="#0f1112ff">
<path fill="#0f1112" opacity="1.00" d=" M 154.20 98.12 C 158.03 96.76 162.28 97.80 166.28 97.51 C 166.20 119.67 166.28 141.83 166.24 163.99 L 167.00 163.99 C 171.67 164.01 176.33 164.00 181.00 164.00 C 181.00 167.33 181.00 170.67 181.00 174.00 C 176.04 174.00 171.08 173.99 166.12 174.02 C 166.16 181.58 166.10 189.14 166.16 196.70 C 162.60 196.71 159.05 196.70 155.50 196.74 C 155.68 189.18 155.48 181.63 155.63 174.08 C 139.61 173.89 123.60 174.05 107.59 174.00 C 107.66 170.73 107.31 167.43 107.76 164.19 C 111.52 158.30 115.82 152.77 119.63 146.91 C 119.67 146.84 119.76 146.72 119.80 146.66 C 126.17 137.78 132.43 128.82 138.60 119.81 C 138.64 119.75 138.72 119.63 138.77 119.57 C 141.59 115.71 144.38 111.82 147.00 107.81 C 149.17 104.39 152.29 101.71 154.20 98.12 M 149.40 120.11 C 139.23 134.74 128.97 149.32 118.80 163.95 C 131.03 164.06 143.26 163.97 155.50 164.00 C 155.48 145.59 155.33 127.17 156.16 108.78 C 153.81 112.50 151.95 116.51 149.40 120.11 Z" />
</g>
</svg>
