<?xml version="1.0" encoding="UTF-8" ?>
<!DOCTYPE svg PUBLIC "-//W3C//DTD SVG 1.1//EN" "http://www.w3.org/Graphics/SVG/1.1/DTD/svg11.dtd">
<svg width="222pt" height="301pt" viewBox="0 0 222 301" version="1.1" xmlns="http://www.w3.org/2000/svg">
<g id="#ffffffff">
<path fill="#ffffff" opacity="1.00" d=" M 110.40 80.28 C 119.70 80.09 128.89 84.02 135.60 90.39 C 141.12 96.56 144.37 104.63 144.79 112.89 C 144.54 122.42 140.56 131.97 133.37 138.33 C 126.88 143.62 118.45 146.78 110.03 146.30 C 103.35 146.00 96.89 143.40 91.46 139.57 C 82.63 132.73 77.62 121.14 78.83 110.01 C 79.35 103.25 82.40 96.84 86.67 91.63 C 92.65 84.86 101.45 80.96 110.40 80.28 Z" />
</g>
<g id="#69903dff">
<path fill="#69903d" opacity="1.00" d=" M 72.87 55.90 C 89.19 44.52 110.63 41.09 129.76 46.38 C 155.39 53.11 176.12 75.73 180.10 102.01 C 181.12 108.33 181.58 114.88 180.23 121.19 C 176.96 137.14 169.93 151.98 162.17 166.19 C 145.34 197.22 128.83 228.44 111.77 259.35 C 93.93 227.33 76.77 194.90 59.22 162.71 C 54.53 154.04 50.75 144.92 47.21 135.73 C 44.18 127.84 42.33 119.44 42.32 110.97 C 42.80 99.64 45.97 88.44 51.55 78.57 C 56.83 69.52 64.35 61.92 72.87 55.90 M 110.40 80.28 C 101.45 80.96 92.65 84.86 86.67 91.63 C 82.40 96.84 79.35 103.25 78.83 110.01 C 77.62 121.14 82.63 132.73 91.46 139.57 C 96.89 143.40 103.35 146.00 110.03 146.30 C 118.45 146.78 126.88 143.62 133.37 138.33 C 140.56 131.97 144.54 122.42 144.79 112.89 C 144.37 104.63 141.12 96.56 135.60 90.39 C 128.89 84.02 119.70 80.09 110.40 80.28 Z" />
</g>
</svg>
