<?xml version="1.0" encoding="UTF-8" ?>
<!DOCTYPE svg PUBLIC "-//W3C//DTD SVG 1.1//EN" "http://www.w3.org/Graphics/SVG/1.1/DTD/svg11.dtd">
<svg width="300pt" height="300pt" viewBox="0 0 300 300" version="1.1" xmlns="http://www.w3.org/2000/svg">
<g id="#ffffffff">
<path fill="#ffffff" opacity="1.00" d=" M 139.70 46.55 C 145.88 45.85 152.15 45.80 158.32 46.55 C 152.13 47.09 145.89 47.05 139.70 46.55 Z" />
<path fill="#ffffff" opacity="1.00" d=" M 132.88 47.25 C 133.77 46.34 135.55 46.34 136.45 47.24 C 136.56 48.85 132.84 48.82 132.88 47.25 Z" />
<path fill="#ffffff" opacity="1.00" d=" M 162.54 47.18 C 163.10 46.12 165.53 46.36 165.20 47.79 C 164.65 48.87 162.20 48.62 162.54 47.18 Z" />
<path fill="#ffffff" opacity="1.00" d=" M 127.62 48.13 C 128.80 47.22 129.48 47.46 129.65 48.85 C 128.47 49.76 127.80 49.52 127.62 48.13 Z" />
<path fill="#ffffff" opacity="1.00" d=" M 169.35 48.12 C 170.53 47.21 171.19 47.46 171.36 48.85 C 170.18 49.77 169.51 49.52 169.35 48.12 Z" />
<path fill="#ffffff" opacity="1.00" d=" M 122.66 49.12 C 123.82 48.20 124.49 48.44 124.65 49.85 C 123.49 50.77 122.83 50.53 122.66 49.12 Z" />
<path fill="#ffffff" opacity="1.00" d=" M 173.33 49.12 C 174.51 48.22 175.18 48.46 175.34 49.86 C 174.15 50.76 173.48 50.51 173.33 49.12 Z" />
<path fill="#ffffff" opacity="1.00" d=" M 117.46 50.36 C 118.46 49.67 119.46 49.57 120.47 50.07 C 120.94 52.34 114.05 52.55 117.46 50.36 Z" />
<path fill="#ffffff" opacity="1.00" d=" M 177.33 50.12 C 178.51 49.21 179.18 49.46 179.34 50.85 C 178.15 51.76 177.49 51.52 177.33 50.12 Z" />
<path fill="#ffffff" opacity="1.00" d=" M 112.38 52.21 C 113.80 50.81 115.72 52.93 113.55 53.70 C 112.14 55.10 110.27 52.99 112.38 52.21 Z" />
<path fill="#ffffff" opacity="1.00" d=" M 183.16 52.07 C 186.15 50.55 183.29 55.39 183.16 52.07 Z" />
<path fill="#ffffff" opacity="1.00" d=" M 186.53 53.09 C 187.57 52.26 189.92 53.41 189.50 54.80 C 188.48 55.64 186.07 54.46 186.53 53.09 Z" />
<path fill="#ffffff" opacity="1.00" d=" M 103.62 57.09 C 105.66 55.65 107.96 54.63 110.34 53.88 C 108.36 55.42 106.07 56.55 103.62 57.09 Z" />
<path fill="#ffffff" opacity="1.00" d=" M 96.47 60.02 C 99.43 58.46 96.63 63.35 96.47 60.02 Z" />
<path fill="#ffffff" opacity="1.00" d=" M 202.09 61.01 C 205.06 59.46 202.24 64.34 202.09 61.01 Z" />
<path fill="#ffffff" opacity="1.00" d=" M 91.47 63.02 C 94.44 61.47 91.61 66.35 91.47 63.02 Z" />
<path fill="#ffffff" opacity="1.00" d=" M 207.26 64.18 C 207.81 64.73 207.81 64.73 207.26 64.18 Z" />
<path fill="#ffffff" opacity="1.00" d=" M 89.24 65.15 C 89.80 65.70 89.80 65.70 89.24 65.15 Z" />
<path fill="#ffffff" opacity="1.00" d=" M 211.26 67.14 C 211.81 67.70 211.81 67.70 211.26 67.14 Z" />
<path fill="#ffffff" opacity="1.00" d=" M 85.24 68.14 C 85.80 68.71 85.80 68.71 85.24 68.14 Z" />
<path fill="#ffffff" opacity="1.00" d=" M 214.25 69.19 C 214.80 69.74 214.80 69.74 214.25 69.19 Z" />
<path fill="#ffffff" opacity="1.00" d=" M 78.30 73.34 C 79.72 72.76 80.15 73.18 79.61 74.61 C 78.18 75.20 77.75 74.77 78.30 73.34 Z" />
<path fill="#ffffff" opacity="1.00" d=" M 71.48 80.25 C 73.99 79.26 72.40 83.08 70.74 82.84 C 69.26 82.51 70.63 80.54 71.48 80.25 Z" />
<path fill="#ffffff" opacity="1.00" d=" M 66.99 85.51 C 70.32 85.67 65.43 88.48 66.99 85.51 Z" />
<path fill="#ffffff" opacity="1.00" d=" M 230.31 85.25 C 230.86 85.80 230.86 85.80 230.31 85.25 Z" />
<path fill="#ffffff" opacity="1.00" d=" M 232.35 88.23 C 232.91 88.79 232.91 88.79 232.35 88.23 Z" />
<path fill="#ffffff" opacity="1.00" d=" M 64.15 90.24 C 64.71 90.80 64.71 90.80 64.15 90.24 Z" />
<path fill="#ffffff" opacity="1.00" d=" M 62.01 92.48 C 65.33 92.64 60.45 95.46 62.01 92.48 Z" />
<path fill="#ffffff" opacity="1.00" d=" M 235.31 92.22 C 235.86 92.78 235.86 92.78 235.31 92.22 Z" />
<path fill="#ffffff" opacity="1.00" d=" M 60.19 96.22 C 60.74 96.78 60.74 96.78 60.19 96.22 Z" />
<path fill="#ffffff" opacity="1.00" d=" M 238.16 96.48 C 241.49 96.61 236.63 99.46 238.16 96.48 Z" />
<path fill="#ffffff" opacity="1.00" d=" M 52.29 111.36 C 54.09 111.60 52.54 115.07 51.10 114.46 C 50.35 113.41 51.22 111.80 52.29 111.36 Z" />
<path fill="#ffffff" opacity="1.00" d=" M 246.07 111.60 C 247.37 114.04 248.25 116.67 248.90 119.35 C 247.41 117.00 246.55 114.33 246.07 111.60 Z" />
<path fill="#ffffff" opacity="1.00" d=" M 50.07 116.39 C 53.40 116.56 48.52 119.36 50.07 116.39 Z" />
<path fill="#ffffff" opacity="1.00" d=" M 49.08 119.37 C 52.40 119.54 47.53 122.34 49.08 119.37 Z" />
<path fill="#ffffff" opacity="1.00" d=" M 249.14 120.66 C 250.54 120.81 250.78 121.48 249.88 122.66 C 248.48 122.51 248.23 121.84 249.14 120.66 Z" />
<path fill="#ffffff" opacity="1.00" d=" M 48.13 122.66 C 49.52 122.84 49.76 123.51 48.85 124.67 C 47.45 124.50 47.21 123.83 48.13 122.66 Z" />
<path fill="#ffffff" opacity="1.00" d=" M 250.14 124.68 C 251.54 124.83 251.78 125.49 250.89 126.67 C 249.48 126.52 249.23 125.86 250.14 124.68 Z" />
<path fill="#ffffff" opacity="1.00" d=" M 47.14 126.68 C 48.53 126.86 48.76 127.53 47.85 128.69 C 46.44 128.51 46.21 127.84 47.14 126.68 Z" />
<path fill="#ffffff" opacity="1.00" d=" M 251.15 128.65 C 252.54 128.81 252.79 129.47 251.88 130.65 C 250.48 130.49 250.23 129.83 251.15 128.65 Z" />
<path fill="#ffffff" opacity="1.00" d=" M 46.19 130.82 C 47.62 130.50 47.87 132.92 46.79 133.47 C 45.36 133.80 45.10 131.36 46.19 130.82 Z" />
<path fill="#ffffff" opacity="1.00" d=" M 252.21 134.80 C 253.64 134.46 253.88 136.89 252.82 137.46 C 251.38 137.81 251.13 135.35 252.21 134.80 Z" />
<path fill="#ffffff" opacity="1.00" d=" M 45.19 136.82 C 46.62 136.50 46.87 138.91 45.80 139.47 C 44.36 139.81 44.10 137.37 45.19 136.82 Z" />
<path fill="#ffffff" opacity="1.00" d=" M 253.45 141.68 C 254.20 147.85 254.15 154.12 253.45 160.30 C 252.95 154.11 252.91 147.87 253.45 141.68 Z" />
<path fill="#ffffff" opacity="1.00" d=" M 45.18 162.54 C 46.62 162.19 46.87 164.64 45.79 165.19 C 44.36 165.53 44.11 163.10 45.18 162.54 Z" />
<path fill="#ffffff" opacity="1.00" d=" M 252.26 163.54 C 253.87 163.44 253.86 167.17 252.28 167.12 C 251.38 166.22 251.35 164.44 252.26 163.54 Z" />
<path fill="#ffffff" opacity="1.00" d=" M 46.19 168.50 C 47.63 168.18 47.82 170.64 46.79 171.22 C 45.35 171.52 45.16 169.08 46.19 168.50 Z" />
<path fill="#ffffff" opacity="1.00" d=" M 251.15 170.35 C 252.54 170.52 252.78 171.20 251.87 172.38 C 250.48 172.20 250.24 171.52 251.15 170.35 Z" />
<path fill="#ffffff" opacity="1.00" d=" M 47.07 174.20 C 50.40 174.31 45.55 177.18 47.07 174.20 Z" />
<path fill="#ffffff" opacity="1.00" d=" M 250.15 175.35 C 251.55 175.51 251.80 176.17 250.88 177.34 C 249.47 177.17 249.23 176.51 250.15 175.35 Z" />
<path fill="#ffffff" opacity="1.00" d=" M 48.11 177.33 C 49.52 177.47 49.76 178.14 48.86 179.32 C 47.46 179.17 47.21 178.51 48.11 177.33 Z" />
<path fill="#ffffff" opacity="1.00" d=" M 249.47 179.45 C 251.20 179.97 249.81 183.62 248.27 183.56 C 247.64 182.25 248.41 180.34 249.47 179.45 Z" />
<path fill="#ffffff" opacity="1.00" d=" M 49.07 181.19 C 52.40 181.31 47.54 184.16 49.07 181.19 Z" />
<path fill="#ffffff" opacity="1.00" d=" M 50.11 183.67 C 51.59 186.03 52.47 188.70 52.94 191.43 C 51.63 189.00 50.76 186.35 50.11 183.67 Z" />
<path fill="#ffffff" opacity="1.00" d=" M 247.12 185.17 C 250.44 185.37 245.53 188.12 247.12 185.17 Z" />
<path fill="#ffffff" opacity="1.00" d=" M 246.12 188.18 C 249.44 188.36 244.54 191.12 246.12 188.18 Z" />
<path fill="#ffffff" opacity="1.00" d=" M 239.17 202.09 C 242.49 202.27 237.59 205.05 239.17 202.09 Z" />
<path fill="#ffffff" opacity="1.00" d=" M 60.05 205.12 C 63.38 205.22 58.53 208.11 60.05 205.12 Z" />
<path fill="#ffffff" opacity="1.00" d=" M 236.16 207.10 C 239.49 207.23 234.62 210.08 236.16 207.10 Z" />
<path fill="#ffffff" opacity="1.00" d=" M 234.19 210.06 C 237.52 210.25 232.60 213.00 234.19 210.06 Z" />
<path fill="#ffffff" opacity="1.00" d=" M 63.98 211.07 C 67.32 211.16 62.49 214.06 63.98 211.07 Z" />
<path fill="#ffffff" opacity="1.00" d=" M 231.19 214.06 C 234.52 214.24 229.61 217.00 231.19 214.06 Z" />
<path fill="#ffffff" opacity="1.00" d=" M 66.99 215.07 C 70.33 215.16 65.49 218.06 66.99 215.07 Z" />
<path fill="#ffffff" opacity="1.00" d=" M 227.14 219.10 C 228.35 219.76 228.28 220.45 226.91 221.15 C 225.68 220.47 225.76 219.79 227.14 219.10 Z" />
<path fill="#ffffff" opacity="1.00" d=" M 72.20 221.27 C 73.57 220.91 74.11 221.44 73.80 222.83 C 72.43 223.17 71.90 222.65 72.20 221.27 Z" />
<path fill="#ffffff" opacity="1.00" d=" M 77.20 226.26 C 78.46 225.67 80.28 227.50 79.66 228.75 C 78.39 229.31 76.60 227.53 77.20 226.26 Z" />
<path fill="#ffffff" opacity="1.00" d=" M 217.34 229.16 C 219.22 229.72 216.73 232.62 215.41 231.76 C 214.81 230.59 216.27 229.34 217.34 229.16 Z" />
<path fill="#ffffff" opacity="1.00" d=" M 84.25 232.34 C 84.80 232.89 84.80 232.89 84.25 232.34 Z" />
<path fill="#ffffff" opacity="1.00" d=" M 212.06 233.19 C 215.02 231.64 212.20 236.53 212.06 233.19 Z" />
<path fill="#ffffff" opacity="1.00" d=" M 88.24 235.33 C 88.79 235.89 88.79 235.89 88.24 235.33 Z" />
<path fill="#ffffff" opacity="1.00" d=" M 208.05 236.20 C 211.02 234.63 208.21 239.53 208.05 236.20 Z" />
<path fill="#ffffff" opacity="1.00" d=" M 90.47 237.17 C 93.45 235.62 90.63 240.50 90.47 237.17 Z" />
<path fill="#ffffff" opacity="1.00" d=" M 205.11 238.13 C 208.07 236.56 205.29 241.46 205.11 238.13 Z" />
<path fill="#ffffff" opacity="1.00" d=" M 94.31 239.46 C 95.19 238.60 97.28 239.75 96.65 240.98 C 95.74 241.96 93.78 240.67 94.31 239.46 Z" />
<path fill="#ffffff" opacity="1.00" d=" M 187.78 248.09 C 192.27 245.13 197.13 242.64 202.22 240.89 C 197.72 243.84 192.79 246.15 187.78 248.09 Z" />
<path fill="#ffffff" opacity="1.00" d=" M 109.47 247.19 C 110.49 246.36 112.89 247.53 112.45 248.91 C 111.40 249.73 109.03 248.59 109.47 247.19 Z" />
<path fill="#ffffff" opacity="1.00" d=" M 185.17 248.12 C 188.12 246.53 185.36 251.44 185.17 248.12 Z" />
<path fill="#ffffff" opacity="1.00" d=" M 114.39 249.10 C 117.38 247.58 114.51 252.43 114.39 249.10 Z" />
<path fill="#ffffff" opacity="1.00" d=" M 175.66 252.07 C 178.41 250.60 181.39 249.57 184.48 249.10 C 181.71 250.55 178.70 251.42 175.66 252.07 Z" />
<path fill="#ffffff" opacity="1.00" d=" M 117.39 250.10 C 120.38 248.59 117.50 253.42 117.39 250.10 Z" />
<path fill="#ffffff" opacity="1.00" d=" M 120.68 251.14 C 121.87 250.23 122.53 250.48 122.69 251.88 C 121.51 252.78 120.84 252.54 120.68 251.14 Z" />
<path fill="#ffffff" opacity="1.00" d=" M 124.38 252.11 C 127.35 250.55 124.54 255.43 124.38 252.11 Z" />
<path fill="#ffffff" opacity="1.00" d=" M 172.17 252.11 C 175.14 250.54 172.37 255.42 172.17 252.11 Z" />
<path fill="#ffffff" opacity="1.00" d=" M 127.83 253.21 C 128.37 252.11 130.82 252.38 130.47 253.82 C 129.91 254.89 127.49 254.64 127.83 253.21 Z" />
<path fill="#ffffff" opacity="1.00" d=" M 167.52 253.21 C 168.09 252.16 170.51 252.37 170.21 253.81 C 169.65 254.86 167.20 254.64 167.52 253.21 Z" />
<path fill="#ffffff" opacity="1.00" d=" M 134.80 254.21 C 135.35 253.13 137.81 253.38 137.46 254.82 C 136.89 255.88 134.46 255.64 134.80 254.21 Z" />
<path fill="#ffffff" opacity="1.00" d=" M 160.56 254.26 C 161.45 253.35 163.23 253.37 164.11 254.28 C 164.17 255.87 160.45 255.87 160.56 254.26 Z" />
</g>
<g id="#ffc710ff">
<path fill="#ffc710" opacity="1.00" d=" M 136.42 34.67 C 157.95 32.12 180.07 36.25 199.62 45.47 C 224.28 57.39 244.46 78.16 255.81 103.07 C 262.66 118.75 266.42 135.86 265.98 153.00 C 265.83 168.25 262.17 183.32 256.39 197.38 C 247.37 217.19 233.18 234.82 215.18 247.16 C 198.77 258.05 179.79 265.53 160.06 266.97 C 149.18 266.65 138.14 267.99 127.43 265.54 C 102.88 261.05 80.15 248.03 63.21 229.82 C 44.85 209.71 33.59 183.21 32.45 155.97 C 30.81 122.11 45.04 87.90 70.03 65.03 C 80.81 55.65 92.74 47.33 106.14 42.17 C 115.92 38.58 126.04 35.79 136.42 34.67 M 139.70 46.55 C 145.89 47.05 152.13 47.09 158.32 46.55 C 152.15 45.80 145.88 45.85 139.70 46.55 M 132.88 47.25 C 132.84 48.82 136.56 48.85 136.45 47.24 C 135.55 46.34 133.77 46.34 132.88 47.25 M 162.54 47.18 C 162.20 48.62 164.65 48.87 165.20 47.79 C 165.53 46.36 163.10 46.12 162.54 47.18 M 127.62 48.13 C 127.80 49.52 128.47 49.76 129.65 48.85 C 129.48 47.46 128.80 47.22 127.62 48.13 M 169.35 48.12 C 169.51 49.52 170.18 49.77 171.36 48.85 C 171.19 47.46 170.53 47.21 169.35 48.12 M 122.66 49.12 C 122.83 50.53 123.49 50.77 124.65 49.85 C 124.49 48.44 123.82 48.20 122.66 49.12 M 173.33 49.12 C 173.48 50.51 174.15 50.76 175.34 49.86 C 175.18 48.46 174.51 48.22 173.33 49.12 M 117.46 50.36 C 114.05 52.55 120.94 52.34 120.47 50.07 C 119.46 49.57 118.46 49.67 117.46 50.36 M 177.33 50.12 C 177.49 51.52 178.15 51.76 179.34 50.85 C 179.18 49.46 178.51 49.21 177.33 50.12 M 112.38 52.21 C 110.27 52.99 112.14 55.10 113.55 53.70 C 115.72 52.93 113.80 50.81 112.38 52.21 M 183.16 52.07 C 183.29 55.39 186.15 50.55 183.16 52.07 M 186.53 53.09 C 186.07 54.46 188.48 55.64 189.50 54.80 C 189.92 53.41 187.57 52.26 186.53 53.09 M 103.62 57.09 C 106.07 56.55 108.36 55.42 110.34 53.88 C 107.96 54.63 105.66 55.65 103.62 57.09 M 96.47 60.02 C 96.63 63.35 99.43 58.46 96.47 60.02 M 202.09 61.01 C 202.24 64.34 205.06 59.46 202.09 61.01 M 91.47 63.02 C 91.61 66.35 94.44 61.47 91.47 63.02 M 207.26 64.18 C 207.81 64.73 207.81 64.73 207.26 64.18 M 89.24 65.15 C 89.80 65.70 89.80 65.70 89.24 65.15 M 211.26 67.14 C 211.81 67.70 211.81 67.70 211.26 67.14 M 85.24 68.14 C 85.80 68.71 85.80 68.71 85.24 68.14 M 214.25 69.19 C 214.80 69.74 214.80 69.74 214.25 69.19 M 78.30 73.34 C 77.75 74.77 78.18 75.20 79.61 74.61 C 80.15 73.18 79.72 72.76 78.30 73.34 M 71.48 80.25 C 70.63 80.54 69.26 82.51 70.74 82.84 C 72.40 83.08 73.99 79.26 71.48 80.25 M 66.99 85.51 C 65.43 88.48 70.32 85.67 66.99 85.51 M 230.31 85.25 C 230.86 85.80 230.86 85.80 230.31 85.25 M 232.35 88.23 C 232.91 88.79 232.91 88.79 232.35 88.23 M 64.15 90.24 C 64.71 90.80 64.71 90.80 64.15 90.24 M 62.01 92.48 C 60.45 95.46 65.33 92.64 62.01 92.48 M 235.31 92.22 C 235.86 92.78 235.86 92.78 235.31 92.22 M 60.19 96.22 C 60.74 96.78 60.74 96.78 60.19 96.22 M 238.16 96.48 C 236.63 99.46 241.49 96.61 238.16 96.48 M 141.56 99.52 C 133.48 105.76 125.38 111.98 117.33 118.26 C 119.27 120.84 121.24 123.40 123.25 125.93 C 129.77 120.75 136.09 115.35 142.43 109.95 C 142.30 113.64 141.99 117.31 142.00 121.00 C 142.01 146.24 141.99 171.49 142.01 196.73 C 145.61 196.71 149.21 196.70 152.80 196.80 C 152.62 163.87 152.75 130.94 152.74 98.01 C 149.04 98.35 144.65 96.87 141.56 99.52 M 52.29 111.36 C 51.22 111.80 50.35 113.41 51.10 114.46 C 52.54 115.07 54.09 111.60 52.29 111.36 M 246.07 111.60 C 246.55 114.33 247.41 117.00 248.90 119.35 C 248.25 116.67 247.37 114.04 246.07 111.60 M 50.07 116.39 C 48.52 119.36 53.40 116.56 50.07 116.39 M 49.08 119.37 C 47.53 122.34 52.40 119.54 49.08 119.37 M 249.14 120.66 C 248.23 121.84 248.48 122.51 249.88 122.66 C 250.78 121.48 250.54 120.81 249.14 120.66 M 48.13 122.66 C 47.21 123.83 47.45 124.50 48.85 124.67 C 49.76 123.51 49.52 122.84 48.13 122.66 M 250.14 124.68 C 249.23 125.86 249.48 126.52 250.89 126.67 C 251.78 125.49 251.54 124.83 250.14 124.68 M 47.14 126.68 C 46.21 127.84 46.44 128.51 47.85 128.69 C 48.76 127.53 48.53 126.86 47.14 126.68 M 251.15 128.65 C 250.23 129.83 250.48 130.49 251.88 130.65 C 252.79 129.47 252.54 128.81 251.15 128.65 M 46.19 130.82 C 45.10 131.36 45.36 133.80 46.79 133.47 C 47.87 132.92 47.62 130.50 46.19 130.82 M 252.21 134.80 C 251.13 135.35 251.38 137.81 252.82 137.46 C 253.88 136.89 253.64 134.46 252.21 134.80 M 45.19 136.82 C 44.10 137.37 44.36 139.81 45.80 139.47 C 46.87 138.91 46.62 136.50 45.19 136.82 M 253.45 141.68 C 252.91 147.87 252.95 154.11 253.45 160.30 C 254.15 154.12 254.20 147.85 253.45 141.68 M 45.18 162.54 C 44.11 163.10 44.36 165.53 45.79 165.19 C 46.87 164.64 46.62 162.19 45.18 162.54 M 252.26 163.54 C 251.35 164.44 251.38 166.22 252.28 167.12 C 253.86 167.17 253.87 163.44 252.26 163.54 M 46.19 168.50 C 45.16 169.08 45.35 171.52 46.79 171.22 C 47.82 170.64 47.63 168.18 46.19 168.50 M 251.15 170.35 C 250.24 171.52 250.48 172.20 251.87 172.38 C 252.78 171.20 252.54 170.52 251.15 170.35 M 47.07 174.20 C 45.55 177.18 50.40 174.31 47.07 174.20 M 250.15 175.35 C 249.23 176.51 249.47 177.17 250.88 177.34 C 251.80 176.17 251.55 175.51 250.15 175.35 M 48.11 177.33 C 47.21 178.51 47.46 179.17 48.86 179.32 C 49.76 178.14 49.52 177.47 48.11 177.33 M 249.47 179.45 C 248.41 180.34 247.64 182.25 248.27 183.56 C 249.81 183.62 251.20 179.97 249.47 179.45 M 49.07 181.19 C 47.54 184.16 52.40 181.31 49.07 181.19 M 50.11 183.67 C 50.76 186.35 51.63 189.00 52.94 191.43 C 52.47 188.70 51.59 186.03 50.11 183.67 M 247.12 185.17 C 245.53 188.12 250.44 185.37 247.12 185.17 M 246.12 188.18 C 244.54 191.12 249.44 188.36 246.12 188.18 M 239.17 202.09 C 237.59 205.05 242.49 202.27 239.17 202.09 M 60.05 205.12 C 58.53 208.11 63.38 205.22 60.05 205.12 M 236.16 207.10 C 234.62 210.08 239.49 207.23 236.16 207.10 M 234.19 210.06 C 232.60 213.00 237.52 210.25 234.19 210.06 M 63.98 211.07 C 62.49 214.06 67.32 211.16 63.98 211.07 M 231.19 214.06 C 229.61 217.00 234.52 214.24 231.19 214.06 M 66.99 215.07 C 65.49 218.06 70.33 215.16 66.99 215.07 M 227.14 219.10 C 225.76 219.79 225.68 220.47 226.91 221.15 C 228.28 220.45 228.35 219.76 227.14 219.10 M 72.20 221.27 C 71.90 222.65 72.43 223.17 73.80 222.83 C 74.11 221.44 73.57 220.91 72.20 221.27 M 77.20 226.26 C 76.60 227.53 78.39 229.31 79.66 228.75 C 80.28 227.50 78.46 225.67 77.20 226.26 M 217.34 229.16 C 216.27 229.34 214.81 230.59 215.41 231.76 C 216.73 232.62 219.22 229.72 217.34 229.16 M 84.25 232.34 C 84.80 232.89 84.80 232.89 84.25 232.34 M 212.06 233.19 C 212.20 236.53 215.02 231.64 212.06 233.19 M 88.24 235.33 C 88.79 235.89 88.79 235.89 88.24 235.33 M 208.05 236.20 C 208.21 239.53 211.02 234.63 208.05 236.20 M 90.47 237.17 C 90.63 240.50 93.45 235.62 90.47 237.17 M 205.11 238.13 C 205.29 241.46 208.07 236.56 205.11 238.13 M 94.31 239.46 C 93.78 240.67 95.74 241.96 96.65 240.98 C 97.28 239.75 95.19 238.60 94.31 239.46 M 187.78 248.09 C 192.79 246.15 197.72 243.84 202.22 240.89 C 197.13 242.64 192.27 245.13 187.78 248.09 M 109.47 247.19 C 109.03 248.59 111.40 249.73 112.45 248.91 C 112.89 247.53 110.49 246.36 109.47 247.19 M 185.17 248.12 C 185.36 251.44 188.12 246.53 185.17 248.12 M 114.39 249.10 C 114.51 252.43 117.38 247.58 114.39 249.10 M 175.66 252.07 C 178.70 251.42 181.71 250.55 184.48 249.10 C 181.39 249.57 178.41 250.60 175.66 252.07 M 117.39 250.10 C 117.50 253.42 120.38 248.59 117.39 250.10 M 120.68 251.14 C 120.84 252.54 121.51 252.78 122.69 251.88 C 122.53 250.48 121.87 250.23 120.68 251.14 M 124.38 252.11 C 124.54 255.43 127.35 250.55 124.38 252.11 M 172.17 252.11 C 172.37 255.42 175.14 250.54 172.17 252.11 M 127.83 253.21 C 127.49 254.64 129.91 254.89 130.47 253.82 C 130.82 252.38 128.37 252.11 127.83 253.21 M 167.52 253.21 C 167.20 254.64 169.65 254.86 170.21 253.81 C 170.51 252.37 168.09 252.16 167.52 253.21 M 134.80 254.21 C 134.46 255.64 136.89 255.88 137.46 254.82 C 137.81 253.38 135.35 253.13 134.80 254.21 M 160.56 254.26 C 160.45 255.87 164.17 255.87 164.11 254.28 C 163.23 253.37 161.45 253.35 160.56 254.26 Z" />
</g>
<g id="#0f1112ff">
<path fill="#0f1112" opacity="1.00" d=" M 141.56 99.52 C 144.65 96.87 149.04 98.35 152.74 98.01 C 152.75 130.94 152.62 163.87 152.80 196.80 C 149.21 196.70 145.61 196.71 142.01 196.73 C 141.99 171.49 142.01 146.24 142.00 121.00 C 141.99 117.31 142.30 113.64 142.43 109.95 C 136.09 115.35 129.77 120.75 123.25 125.93 C 121.24 123.40 119.27 120.84 117.33 118.26 C 125.38 111.98 133.48 105.76 141.56 99.52 Z" />
</g>
</svg>
