<?xml version="1.0" encoding="UTF-8" ?>
<!DOCTYPE svg PUBLIC "-//W3C//DTD SVG 1.1//EN" "http://www.w3.org/Graphics/SVG/1.1/DTD/svg11.dtd">
<svg width="300pt" height="279pt" viewBox="0 0 300 279" version="1.1" xmlns="http://www.w3.org/2000/svg">
<g id="#ffffffff">
</g>
<g id="#69903dff">
<path fill="#69903d" opacity="1.00" d=" M 207.46 56.41 C 210.38 53.67 215.15 53.04 218.38 55.55 C 221.52 58.51 224.13 61.96 226.95 65.21 C 213.43 76.76 199.80 88.19 186.00 99.40 C 182.99 95.91 179.37 92.70 177.62 88.34 C 176.09 84.89 178.02 80.96 180.79 78.77 C 189.81 71.46 198.56 63.85 207.46 56.41 Z" />
<path fill="#69903d" opacity="1.00" d=" M 193.60 107.00 C 206.89 95.59 220.29 84.31 233.75 73.11 C 237.12 77.72 240.39 82.59 241.78 88.21 C 244.98 101.17 242.89 115.11 237.01 127.00 C 231.41 139.79 222.13 150.58 211.55 159.54 C 193.99 174.34 176.38 189.08 158.70 203.74 C 145.97 214.50 130.49 222.40 113.94 224.94 C 103.31 225.96 92.01 225.57 82.30 220.69 C 77.49 218.09 73.12 214.59 69.73 210.28 C 83.44 198.82 97.20 187.41 110.98 176.03 C 114.18 179.36 116.91 184.07 122.01 184.50 C 127.97 184.91 133.36 181.47 137.68 177.70 C 155.76 162.46 173.89 147.27 192.00 132.06 C 197.07 128.30 201.23 121.88 199.62 115.37 C 198.36 112.12 195.64 109.75 193.60 107.00 Z" />
<path fill="#69903d" opacity="1.00" d=" M 85.00 158.99 C 88.15 155.98 93.64 156.23 96.57 159.43 C 99.24 162.17 101.68 165.12 104.16 168.02 C 90.60 179.60 77.03 191.18 63.19 202.42 C 60.40 199.03 57.05 196.03 54.96 192.13 C 53.49 188.56 54.53 183.97 57.78 181.74 C 66.98 174.30 75.89 166.52 85.00 158.99 Z" />
</g>
</svg>
