<?xml version="1.0" encoding="UTF-8" ?>
<!DOCTYPE svg PUBLIC "-//W3C//DTD SVG 1.1//EN" "http://www.w3.org/Graphics/SVG/1.1/DTD/svg11.dtd">
<svg width="300pt" height="300pt" viewBox="0 0 300 300" version="1.1" xmlns="http://www.w3.org/2000/svg">
<g id="#ffffffff">
<path fill="#ffffff" opacity="1.00" d=" M 137.63 46.52 C 145.17 45.95 152.78 45.79 160.32 46.58 C 152.76 47.03 145.18 47.06 137.63 46.52 Z" />
<path fill="#ffffff" opacity="1.00" d=" M 131.37 47.52 C 133.15 47.12 135.21 46.42 136.97 47.22 C 136.36 48.99 132.42 48.55 131.37 47.52 Z" />
<path fill="#ffffff" opacity="1.00" d=" M 162.04 47.70 C 162.57 46.14 165.41 46.48 166.71 47.07 C 165.81 48.23 163.38 48.34 162.04 47.70 Z" />
<path fill="#ffffff" opacity="1.00" d=" M 126.41 48.94 C 126.58 47.60 128.97 47.54 129.90 48.22 C 129.80 49.63 127.34 49.56 126.41 48.94 Z" />
<path fill="#ffffff" opacity="1.00" d=" M 169.21 48.17 C 170.44 47.29 171.19 47.51 171.47 48.80 C 170.23 49.67 169.48 49.46 169.21 48.17 Z" />
<path fill="#ffffff" opacity="1.00" d=" M 122.60 49.14 C 123.84 48.28 124.57 48.50 124.78 49.82 C 123.53 50.69 122.81 50.46 122.60 49.14 Z" />
<path fill="#ffffff" opacity="1.00" d=" M 103.30 57.07 C 109.02 53.94 115.18 51.51 121.49 49.86 C 120.26 50.66 118.88 51.18 117.49 51.63 C 115.72 52.03 114.04 52.76 112.49 53.70 C 109.17 54.19 106.70 56.94 103.30 57.07 Z" />
<path fill="#ffffff" opacity="1.00" d=" M 186.06 53.03 C 187.31 52.72 189.81 53.38 189.69 54.95 C 188.40 55.56 186.16 54.41 186.06 53.03 Z" />
<path fill="#ffffff" opacity="1.00" d=" M 191.30 55.31 C 191.71 55.78 191.71 55.78 191.30 55.31 Z" />
<path fill="#ffffff" opacity="1.00" d=" M 102.25 57.28 C 102.74 57.68 102.74 57.68 102.25 57.28 Z" />
<path fill="#ffffff" opacity="1.00" d=" M 206.32 63.26 C 207.73 63.05 208.37 63.62 208.22 64.97 C 206.81 65.18 206.18 64.61 206.32 63.26 Z" />
<path fill="#ffffff" opacity="1.00" d=" M 235.01 91.80 C 236.33 91.60 236.92 92.22 236.76 93.66 C 235.43 93.85 234.85 93.23 235.01 91.80 Z" />
<path fill="#ffffff" opacity="1.00" d=" M 152.00 96.00 C 156.00 96.02 160.00 95.99 164.00 96.01 L 163.99 97.03 C 160.01 96.53 155.98 96.47 151.99 96.92 L 152.00 96.00 Z" />
<path fill="#ffffff" opacity="1.00" d=" M 164.61 97.12 C 166.40 97.05 168.19 97.01 169.98 96.97 C 170.00 100.69 170.02 104.41 169.95 108.14 C 166.10 106.85 162.04 106.84 158.03 107.00 L 157.96 106.01 C 161.79 105.99 165.60 106.45 169.30 107.46 C 169.24 104.28 169.24 101.09 169.24 97.91 C 167.70 97.64 166.16 97.36 164.61 97.12 Z" />
<path fill="#ffffff" opacity="1.00" d=" M 50.09 116.41 C 53.41 116.72 48.41 119.30 50.09 116.41 Z" />
<path fill="#ffffff" opacity="1.00" d=" M 47.79 125.04 C 48.40 122.81 48.77 120.46 50.00 118.47 C 49.61 120.42 48.90 122.32 48.96 124.35 C 47.71 125.64 47.46 127.31 47.89 129.03 L 46.94 129.01 C 47.33 127.08 47.36 125.11 46.86 123.20 L 47.79 125.04 Z" />
<path fill="#ffffff" opacity="1.00" d=" M 251.24 128.53 C 252.53 128.83 252.72 129.59 251.81 130.80 C 250.52 130.49 250.33 129.74 251.24 128.53 Z" />
<path fill="#ffffff" opacity="1.00" d=" M 46.22 133.89 C 45.56 132.94 45.61 130.56 46.94 130.35 C 47.54 131.30 47.62 133.76 46.22 133.89 Z" />
<path fill="#ffffff" opacity="1.00" d=" M 252.29 137.95 C 251.66 136.60 251.76 134.17 252.92 133.28 C 253.52 134.57 253.85 137.44 252.29 137.95 Z" />
<path fill="#ffffff" opacity="1.00" d=" M 45.06 136.35 C 46.38 136.60 46.38 138.97 45.70 139.91 C 44.30 139.73 44.43 137.28 45.06 136.35 Z" />
<path fill="#ffffff" opacity="1.00" d=" M 113.25 141.97 C 112.20 140.47 111.74 136.20 113.98 136.01 C 113.89 138.01 113.62 140.00 113.25 141.97 Z" />
<path fill="#ffffff" opacity="1.00" d=" M 138.12 136.07 L 139.10 135.64 L 139.88 136.15 C 139.40 136.35 138.45 136.77 137.97 136.97 L 138.12 136.07 Z" />
<path fill="#ffffff" opacity="1.00" d=" M 253.46 139.61 C 254.17 147.14 254.04 154.72 253.54 162.27 C 252.90 154.73 252.96 147.15 253.46 139.61 Z" />
<path fill="#ffffff" opacity="1.00" d=" M 112.01 144.00 L 113.01 144.00 C 112.52 150.68 112.36 157.39 113.06 164.06 L 112.00 163.94 C 112.00 157.29 112.00 150.64 112.01 144.00 Z" />
<path fill="#ffffff" opacity="1.00" d=" M 170.32 144.55 C 170.35 144.58 170.39 144.63 170.41 144.66 C 170.39 144.63 170.35 144.58 170.32 144.55 Z" />
<path fill="#ffffff" opacity="1.00" d=" M 45.24 162.20 C 46.66 162.24 46.45 164.74 45.71 165.54 C 44.32 165.46 44.50 162.99 45.24 162.20 Z" />
<path fill="#ffffff" opacity="1.00" d=" M 252.35 163.02 C 253.96 163.85 252.97 167.46 252.09 168.65 C 251.54 166.88 251.32 164.65 252.35 163.02 Z" />
<path fill="#ffffff" opacity="1.00" d=" M 113.24 165.08 C 113.62 166.36 113.97 167.67 114.06 169.02 C 112.15 169.30 111.98 165.99 113.24 165.08 Z" />
<path fill="#ffffff" opacity="1.00" d=" M 46.24 168.07 C 47.84 168.53 47.39 171.40 46.84 172.67 C 45.64 171.82 45.58 169.39 46.24 168.07 Z" />
<path fill="#ffffff" opacity="1.00" d=" M 251.15 173.61 C 250.50 172.70 250.34 170.24 251.74 170.10 C 252.43 171.00 252.49 173.39 251.15 173.61 Z" />
<path fill="#ffffff" opacity="1.00" d=" M 47.06 174.17 C 50.40 174.33 45.50 177.12 47.06 174.17 Z" />
<path fill="#ffffff" opacity="1.00" d=" M 250.17 175.23 C 251.49 175.42 251.72 176.14 250.87 177.39 C 249.54 177.20 249.31 176.48 250.17 175.23 Z" />
<path fill="#ffffff" opacity="1.00" d=" M 48.17 177.18 C 49.46 177.45 49.67 178.20 48.80 179.44 C 47.50 179.17 47.29 178.41 48.17 177.18 Z" />
<path fill="#ffffff" opacity="1.00" d=" M 249.47 179.14 C 250.77 179.78 249.80 183.79 248.13 183.70 C 247.55 182.16 248.54 180.35 249.47 179.14 Z" />
<path fill="#ffffff" opacity="1.00" d=" M 49.00 181.19 C 52.34 181.06 47.71 184.27 49.00 181.19 Z" />
<path fill="#ffffff" opacity="1.00" d=" M 49.69 183.34 C 50.46 184.35 51.17 185.40 51.83 186.49 C 52.24 188.29 52.82 190.06 52.95 191.93 C 51.74 189.11 50.77 186.20 49.69 183.34 Z" />
<path fill="#ffffff" opacity="1.00" d=" M 247.15 185.13 C 250.47 185.42 245.47 188.03 247.15 185.13 Z" />
<path fill="#ffffff" opacity="1.00" d=" M 246.12 188.15 C 249.46 188.30 244.58 191.11 246.12 188.15 Z" />
<path fill="#ffffff" opacity="1.00" d=" M 87.04 234.88 C 89.57 235.78 91.82 237.34 93.56 239.37 C 91.23 238.12 89.00 236.67 87.04 234.88 Z" />
<path fill="#ffffff" opacity="1.00" d=" M 198.44 242.26 C 200.19 241.35 202.00 240.53 203.93 240.04 C 198.67 243.31 193.03 245.97 187.34 248.39 C 190.61 245.65 194.80 244.41 198.44 242.26 Z" />
<path fill="#ffffff" opacity="1.00" d=" M 185.14 248.13 C 188.09 246.55 185.32 251.45 185.14 248.13 Z" />
<path fill="#ffffff" opacity="1.00" d=" M 114.46 249.06 C 117.53 247.74 114.34 252.40 114.46 249.06 Z" />
<path fill="#ffffff" opacity="1.00" d=" M 179.55 250.34 C 181.15 249.79 182.75 249.18 184.46 249.08 C 181.85 250.59 178.88 251.25 176.03 252.13 L 175.99 251.38 C 177.21 251.15 178.40 250.81 179.55 250.34 Z" />
<path fill="#ffffff" opacity="1.00" d=" M 117.39 250.14 C 120.31 248.50 117.65 253.46 117.39 250.14 Z" />
<path fill="#ffffff" opacity="1.00" d=" M 120.56 251.20 C 121.79 250.33 122.55 250.54 122.84 251.83 C 121.59 252.70 120.83 252.49 120.56 251.20 Z" />
<path fill="#ffffff" opacity="1.00" d=" M 124.40 252.15 C 127.30 250.49 124.66 255.47 124.40 252.15 Z" />
<path fill="#ffffff" opacity="1.00" d=" M 172.61 252.12 C 173.33 252.15 174.77 252.23 175.49 252.26 C 172.69 253.12 169.82 253.67 166.95 254.18 L 167.02 253.15 C 168.89 252.97 171.07 253.56 172.61 252.12 Z" />
<path fill="#ffffff" opacity="1.00" d=" M 127.37 253.95 C 127.60 252.62 129.98 252.61 130.92 253.29 C 130.75 254.68 128.30 254.57 127.37 253.95 Z" />
<path fill="#ffffff" opacity="1.00" d=" M 133.30 254.91 C 134.18 253.76 136.59 253.66 137.94 254.28 C 137.47 255.85 134.57 255.53 133.30 254.91 Z" />
<path fill="#ffffff" opacity="1.00" d=" M 160.03 254.77 C 160.69 252.98 164.58 253.46 165.64 254.53 C 163.83 254.85 161.78 255.59 160.03 254.77 Z" />
</g>
<g id="#ffc710ff">
<path fill="#ffc710" opacity="1.00" d=" M 136.47 34.66 C 166.61 31.22 197.96 40.33 221.61 59.33 C 240.42 74.35 254.83 95.13 261.33 118.38 C 271.64 152.79 264.68 192.10 242.60 220.53 C 225.59 244.14 198.97 260.31 170.46 265.63 C 159.80 267.99 148.82 266.61 138.00 266.98 C 115.71 265.11 94.21 256.14 76.71 242.28 C 54.76 225.04 39.36 199.56 34.39 172.08 C 27.91 139.95 36.79 105.50 56.66 79.62 C 66.43 66.66 79.36 56.42 93.27 48.23 C 106.58 40.91 121.41 36.49 136.47 34.66 M 137.63 46.52 C 145.18 47.06 152.76 47.03 160.32 46.58 C 152.78 45.79 145.17 45.95 137.63 46.52 M 131.37 47.52 C 132.42 48.55 136.36 48.99 136.97 47.22 C 135.21 46.42 133.15 47.12 131.37 47.52 M 162.04 47.70 C 163.38 48.34 165.81 48.23 166.71 47.07 C 165.41 46.48 162.57 46.14 162.04 47.70 M 126.41 48.94 C 127.34 49.56 129.80 49.63 129.90 48.22 C 128.97 47.54 126.58 47.60 126.41 48.94 M 169.21 48.17 C 169.48 49.46 170.23 49.67 171.47 48.80 C 171.19 47.51 170.44 47.29 169.21 48.17 M 122.60 49.14 C 122.81 50.46 123.53 50.69 124.78 49.82 C 124.57 48.50 123.84 48.28 122.60 49.14 M 103.30 57.07 C 106.70 56.94 109.17 54.19 112.49 53.70 C 114.04 52.76 115.72 52.03 117.49 51.63 C 118.88 51.18 120.26 50.66 121.49 49.86 C 115.18 51.51 109.02 53.94 103.30 57.07 M 186.06 53.03 C 186.16 54.41 188.40 55.56 189.69 54.95 C 189.81 53.38 187.31 52.72 186.06 53.03 M 191.30 55.31 C 191.71 55.78 191.71 55.78 191.30 55.31 M 102.25 57.28 C 102.74 57.68 102.74 57.68 102.25 57.28 M 206.32 63.26 C 206.18 64.61 206.81 65.18 208.22 64.97 C 208.37 63.62 207.73 63.05 206.32 63.26 M 235.01 91.80 C 234.85 93.23 235.43 93.85 236.76 93.66 C 236.92 92.22 236.33 91.60 235.01 91.80 M 152.00 96.00 L 151.99 96.92 C 143.86 97.89 135.46 100.16 129.16 105.66 C 120.24 113.21 115.82 124.75 113.98 136.01 C 111.74 136.20 112.20 140.47 113.25 141.97 C 113.19 142.48 113.07 143.49 113.01 144.00 L 112.01 144.00 C 112.00 150.64 112.00 157.29 112.00 163.94 L 113.06 164.06 L 113.24 165.08 C 111.98 165.99 112.15 169.30 114.06 169.02 C 116.19 181.74 124.89 194.46 138.13 197.25 C 147.61 198.77 158.49 197.94 166.02 191.38 C 174.40 184.66 177.37 173.24 176.85 162.91 C 176.64 156.33 174.27 149.96 170.41 144.66 C 170.39 144.63 170.35 144.58 170.32 144.55 C 162.94 135.79 150.58 134.10 139.88 136.15 L 139.10 135.64 L 138.12 136.07 L 137.97 136.97 C 132.07 138.42 127.84 142.99 123.98 147.37 C 124.25 136.29 126.31 124.49 133.42 115.63 C 139.31 108.42 148.94 105.67 157.96 106.01 L 158.03 107.00 C 162.04 106.84 166.10 106.85 169.95 108.14 C 170.02 104.41 170.00 100.69 169.98 96.97 C 168.19 97.01 166.40 97.05 164.61 97.12 L 163.99 97.03 L 164.00 96.01 C 160.00 95.99 156.00 96.02 152.00 96.00 M 50.09 116.41 C 48.41 119.30 53.41 116.72 50.09 116.41 M 47.79 125.04 L 46.86 123.20 C 47.36 125.11 47.33 127.08 46.94 129.01 L 47.89 129.03 C 47.46 127.31 47.71 125.64 48.96 124.35 C 48.90 122.32 49.61 120.42 50.00 118.47 C 48.77 120.46 48.40 122.81 47.79 125.04 M 251.24 128.53 C 250.33 129.74 250.52 130.49 251.81 130.80 C 252.72 129.59 252.53 128.83 251.24 128.53 M 46.22 133.89 C 47.62 133.76 47.54 131.30 46.94 130.35 C 45.61 130.56 45.56 132.94 46.22 133.89 M 252.29 137.95 C 253.85 137.44 253.52 134.57 252.92 133.28 C 251.76 134.17 251.66 136.60 252.29 137.95 M 45.06 136.35 C 44.43 137.28 44.30 139.73 45.70 139.91 C 46.38 138.97 46.38 136.60 45.06 136.35 M 253.46 139.61 C 252.96 147.15 252.90 154.73 253.54 162.27 C 254.04 154.72 254.17 147.14 253.46 139.61 M 45.24 162.20 C 44.50 162.99 44.32 165.46 45.71 165.54 C 46.45 164.74 46.66 162.24 45.24 162.20 M 252.35 163.02 C 251.32 164.65 251.54 166.88 252.09 168.65 C 252.97 167.46 253.96 163.85 252.35 163.02 M 46.24 168.07 C 45.58 169.39 45.64 171.82 46.84 172.67 C 47.39 171.40 47.84 168.53 46.24 168.07 M 251.15 173.61 C 252.49 173.39 252.43 171.00 251.74 170.10 C 250.34 170.24 250.50 172.70 251.15 173.61 M 47.06 174.17 C 45.50 177.12 50.40 174.33 47.06 174.17 M 250.17 175.23 C 249.31 176.48 249.54 177.20 250.87 177.39 C 251.72 176.14 251.49 175.42 250.17 175.23 M 48.17 177.18 C 47.29 178.41 47.50 179.17 48.80 179.44 C 49.67 178.20 49.46 177.45 48.17 177.18 M 249.47 179.14 C 248.54 180.35 247.55 182.16 248.13 183.70 C 249.80 183.79 250.77 179.78 249.47 179.14 M 49.00 181.19 C 47.71 184.27 52.34 181.06 49.00 181.19 M 49.69 183.34 C 50.77 186.20 51.74 189.11 52.95 191.93 C 52.82 190.06 52.24 188.29 51.83 186.49 C 51.17 185.40 50.46 184.35 49.69 183.34 M 247.15 185.13 C 245.47 188.03 250.47 185.42 247.15 185.13 M 246.12 188.15 C 244.58 191.11 249.46 188.30 246.12 188.15 M 87.04 234.88 C 89.00 236.67 91.23 238.12 93.56 239.37 C 91.82 237.34 89.57 235.78 87.04 234.88 M 198.44 242.26 C 194.80 244.41 190.61 245.65 187.34 248.39 C 193.03 245.97 198.67 243.31 203.93 240.04 C 202.00 240.53 200.19 241.35 198.44 242.26 M 185.14 248.13 C 185.32 251.45 188.09 246.55 185.14 248.13 M 114.46 249.06 C 114.34 252.40 117.53 247.74 114.46 249.06 M 179.55 250.34 C 178.40 250.81 177.21 251.15 175.99 251.38 L 176.03 252.13 C 178.88 251.25 181.85 250.59 184.46 249.08 C 182.75 249.18 181.15 249.79 179.55 250.34 M 117.39 250.14 C 117.65 253.46 120.31 248.50 117.39 250.14 M 120.56 251.20 C 120.83 252.49 121.59 252.70 122.84 251.83 C 122.55 250.54 121.79 250.33 120.56 251.20 M 124.40 252.15 C 124.66 255.47 127.30 250.49 124.40 252.15 M 172.61 252.12 C 171.07 253.56 168.89 252.97 167.02 253.15 L 166.95 254.18 C 169.82 253.67 172.69 253.12 175.49 252.26 C 174.77 252.23 173.33 252.15 172.61 252.12 M 127.37 253.95 C 128.30 254.57 130.75 254.68 130.92 253.29 C 129.98 252.61 127.60 252.62 127.37 253.95 M 133.30 254.91 C 134.57 255.53 137.47 255.85 137.94 254.28 C 136.59 253.66 134.18 253.76 133.30 254.91 M 160.03 254.77 C 161.78 255.59 163.83 254.85 165.64 254.53 C 164.58 253.46 160.69 252.98 160.03 254.77 Z" />
</g>
<g id="#0f1112ff">
<path fill="#0f1112" opacity="1.00" d=" M 129.16 105.66 C 135.46 100.16 143.86 97.89 151.99 96.92 C 155.98 96.47 160.01 96.53 163.99 97.03 L 164.61 97.12 C 166.16 97.36 167.70 97.64 169.24 97.91 C 169.24 101.09 169.24 104.28 169.30 107.46 C 165.60 106.45 161.79 105.99 157.96 106.01 C 148.94 105.67 139.31 108.42 133.42 115.63 C 126.31 124.49 124.25 136.29 123.98 147.37 C 127.84 142.99 132.07 138.42 137.97 136.97 C 138.45 136.77 139.40 136.35 139.88 136.15 C 150.58 134.10 162.94 135.79 170.32 144.55 C 170.35 144.58 170.39 144.63 170.41 144.66 C 174.27 149.96 176.64 156.33 176.85 162.91 C 177.37 173.24 174.40 184.66 166.02 191.38 C 158.49 197.94 147.61 198.77 138.13 197.25 C 124.89 194.46 116.19 181.74 114.06 169.02 C 113.97 167.67 113.62 166.36 113.24 165.08 L 113.06 164.06 C 112.36 157.39 112.52 150.68 113.01 144.00 C 113.07 143.49 113.19 142.48 113.25 141.97 C 113.62 140.00 113.89 138.01 113.98 136.01 C 115.82 124.75 120.24 113.21 129.16 105.66 M 140.59 144.76 C 132.20 146.20 124.65 153.32 124.12 162.04 C 124.12 169.16 126.23 176.54 130.99 181.96 C 138.38 190.46 153.83 190.98 160.93 181.86 C 164.76 177.18 165.65 170.89 165.68 165.03 C 165.64 159.52 164.55 153.53 160.54 149.46 C 155.54 144.13 147.40 143.36 140.59 144.76 Z" />
</g>
</svg>
