<?xml version="1.0" encoding="UTF-8" ?>
<!DOCTYPE svg PUBLIC "-//W3C//DTD SVG 1.1//EN" "http://www.w3.org/Graphics/SVG/1.1/DTD/svg11.dtd">
<svg width="300pt" height="300pt" viewBox="0 0 300 300" version="1.1" xmlns="http://www.w3.org/2000/svg">
<g id="#ffe400ff">
<path fill="#ffe400" opacity="1.00" d=" M 147.24 33.27 C 165.55 32.92 183.87 36.90 200.44 44.68 C 223.16 55.53 242.10 74.03 253.59 96.42 C 267.54 123.77 270.42 156.73 260.64 185.90 C 253.92 207.99 239.81 227.57 221.71 241.79 C 198.56 260.02 168.19 268.78 138.89 265.82 C 127.26 265.06 116.00 261.76 105.16 257.62 C 80.08 247.34 58.89 227.93 46.40 203.88 C 32.27 176.51 29.22 143.45 38.93 114.15 C 46.56 88.98 63.64 67.04 85.46 52.53 C 103.68 40.39 125.41 33.90 147.24 33.27 M 146.37 95.48 C 141.32 102.40 136.57 109.56 131.68 116.60 C 128.64 121.34 123.65 124.69 118.27 126.18 C 110.77 128.34 103.28 130.53 95.79 132.72 C 93.91 133.39 91.49 133.92 90.81 136.11 C 89.88 138.37 91.50 140.44 92.77 142.16 C 97.63 148.31 102.43 154.51 107.29 160.67 C 110.26 164.46 112.13 169.18 112.19 174.02 C 112.18 183.33 111.53 192.64 111.60 201.95 C 111.31 205.25 114.96 207.51 117.86 206.07 C 126.00 203.24 134.05 200.17 142.18 197.31 C 146.94 195.67 152.27 195.59 157.07 197.14 C 165.42 200.10 173.69 203.33 182.11 206.12 C 184.38 207.20 187.91 205.87 187.86 203.07 C 188.04 193.70 187.38 184.33 187.28 174.96 C 187.15 169.95 189.29 165.15 192.22 161.20 C 197.40 154.38 202.65 147.62 207.76 140.77 C 209.50 138.80 209.16 136.12 207.84 134.05 C 198.70 130.95 189.33 128.59 180.12 125.74 C 175.54 124.26 171.41 121.35 168.66 117.38 C 163.39 109.99 158.46 102.35 153.06 95.05 C 151.38 92.52 147.81 92.95 146.37 95.48 Z" />
</g>
<g id="#fa002aff">
<path fill="#fa002a" opacity="1.00" d=" M 146.37 95.48 C 147.81 92.95 151.38 92.52 153.06 95.05 C 158.46 102.35 163.39 109.99 168.66 117.38 C 171.41 121.35 175.54 124.26 180.12 125.74 C 189.33 128.59 198.70 130.95 207.84 134.05 C 209.16 136.12 209.50 138.80 207.76 140.77 C 202.65 147.62 197.40 154.38 192.22 161.20 C 189.29 165.15 187.15 169.95 187.28 174.96 C 187.38 184.33 188.04 193.70 187.86 203.07 C 187.91 205.87 184.38 207.20 182.11 206.12 C 173.69 203.33 165.42 200.10 157.07 197.14 C 152.27 195.59 146.94 195.67 142.18 197.31 C 134.05 200.17 126.00 203.24 117.86 206.07 C 114.96 207.51 111.31 205.25 111.60 201.95 C 111.53 192.64 112.18 183.33 112.19 174.02 C 112.13 169.18 110.26 164.46 107.29 160.67 C 102.43 154.51 97.63 148.31 92.77 142.16 C 91.50 140.44 89.88 138.37 90.81 136.11 C 91.49 133.92 93.91 133.39 95.79 132.72 C 103.28 130.53 110.77 128.34 118.27 126.18 C 123.65 124.69 128.64 121.34 131.68 116.60 C 136.57 109.56 141.32 102.40 146.37 95.48 Z" />
</g>
</svg>
