<?xml version="1.0" encoding="UTF-8" ?>
<!DOCTYPE svg PUBLIC "-//W3C//DTD SVG 1.1//EN" "http://www.w3.org/Graphics/SVG/1.1/DTD/svg11.dtd">
<svg width="300pt" height="212pt" viewBox="0 0 300 212" version="1.1" xmlns="http://www.w3.org/2000/svg">
<g id="#ffffffff">
<path fill="#ffffff" opacity="1.00" d=" M 237.92 121.13 L 238.31 121.11 C 239.11 122.54 239.53 124.71 238.51 126.13 C 237.62 124.62 237.43 122.81 237.92 121.13 Z" />
</g>
<g id="#000000ff">
<path fill="#000000" opacity="1.00" d=" M 114.50 21.36 C 120.34 16.13 128.24 13.59 136.03 13.75 C 173.99 13.74 211.96 13.76 249.93 13.74 C 255.00 13.79 260.25 13.56 265.10 15.33 C 275.94 18.67 284.28 28.86 285.91 39.99 C 286.12 61.33 285.93 82.68 286.01 104.02 C 286.23 113.13 280.70 121.25 274.03 126.97 C 267.64 131.86 259.32 133.50 251.41 133.24 C 252.68 145.82 253.37 158.45 254.56 171.04 C 234.75 159.16 214.89 147.36 195.06 135.51 C 192.90 143.95 187.39 151.73 179.52 155.71 C 174.55 158.56 168.75 159.49 163.09 159.51 C 145.03 159.50 126.97 159.50 108.92 159.50 C 87.82 172.09 66.77 184.76 45.54 197.10 C 46.57 184.52 47.35 171.91 48.66 159.36 C 40.19 160.25 31.38 157.83 24.88 152.25 C 17.90 146.68 13.71 137.90 13.79 128.95 C 13.68 110.98 13.79 93.00 13.74 75.03 C 13.75 70.47 13.75 65.79 15.19 61.42 C 19.09 49.25 31.13 40.03 44.00 40.06 C 64.04 39.89 84.09 40.11 104.13 39.95 C 105.49 32.85 108.86 26.02 114.50 21.36 M 116.00 39.97 C 115.52 43.61 115.62 47.28 115.62 50.94 C 115.66 67.94 115.56 84.95 115.66 101.95 C 115.18 111.24 122.82 119.89 131.95 121.00 C 151.64 120.99 171.33 121.03 191.01 120.98 C 192.40 121.02 193.92 120.87 195.11 121.75 C 210.41 130.92 225.68 140.15 241.04 149.23 C 241.30 144.77 239.92 140.45 240.01 136.00 C 239.79 132.69 239.70 129.26 238.51 126.13 C 239.53 124.71 239.11 122.54 238.31 121.11 C 244.90 120.83 251.50 121.11 258.10 120.99 C 266.88 119.83 274.27 111.92 274.23 102.93 C 274.58 85.62 274.27 68.29 274.39 50.97 C 274.33 46.58 274.63 42.05 273.25 37.81 C 270.86 30.15 262.93 24.88 255.00 24.99 C 214.68 25.02 174.35 24.98 134.03 25.01 C 125.55 25.19 117.83 31.74 116.00 39.97 M 32.93 55.81 C 28.17 59.72 25.67 65.90 25.75 72.00 C 25.77 90.65 25.70 109.31 25.78 127.96 C 25.63 137.12 32.62 146.25 42.00 147.14 C 48.52 147.82 55.12 147.52 61.67 147.32 C 60.50 156.61 59.88 165.97 59.01 175.29 C 74.11 166.18 89.34 157.28 104.47 148.23 C 105.21 147.72 106.04 147.48 106.94 147.51 C 126.60 147.44 146.26 147.59 165.92 147.44 C 174.29 147.06 181.16 140.81 183.95 133.17 C 168.99 133.36 154.02 133.18 139.05 133.26 C 134.44 133.32 129.79 132.84 125.40 131.43 C 112.70 127.42 103.97 114.15 104.51 100.97 C 104.51 84.53 104.46 68.10 104.53 51.67 C 85.05 51.86 65.56 51.69 46.08 51.75 C 41.45 51.86 36.62 52.86 32.93 55.81 Z" />
</g>
<g id="#a4cf50ff">
<path fill="#a4cf50" opacity="1.00" d=" M 116.00 39.97 C 117.83 31.74 125.55 25.19 134.03 25.01 C 174.35 24.98 214.68 25.02 255.00 24.99 C 262.93 24.88 270.86 30.15 273.25 37.81 C 274.63 42.05 274.33 46.58 274.39 50.97 C 274.27 68.29 274.58 85.62 274.23 102.93 C 274.27 111.92 266.88 119.83 258.10 120.99 C 251.50 121.11 244.90 120.83 238.31 121.11 L 237.92 121.13 C 237.43 122.81 237.62 124.62 238.51 126.13 C 239.70 129.26 239.79 132.69 240.01 136.00 C 239.92 140.45 241.30 144.77 241.04 149.23 C 225.68 140.15 210.41 130.92 195.11 121.75 C 193.92 120.87 192.40 121.02 191.01 120.98 C 171.33 121.03 151.64 120.99 131.95 121.00 C 122.82 119.89 115.18 111.24 115.66 101.95 C 115.56 84.95 115.66 67.94 115.62 50.94 C 115.62 47.28 115.52 43.61 116.00 39.97 Z" />
</g>
</svg>
