<?xml version="1.0" encoding="UTF-8" ?>
<!DOCTYPE svg PUBLIC "-//W3C//DTD SVG 1.1//EN" "http://www.w3.org/Graphics/SVG/1.1/DTD/svg11.dtd">
<svg width="300pt" height="300pt" viewBox="0 0 300 300" version="1.1" xmlns="http://www.w3.org/2000/svg">
<g id="#ffffffff">
<path fill="#ffffff" opacity="1.00" d=" M 139.88 46.59 C 145.92 45.78 152.10 45.79 158.14 46.57 C 152.07 47.08 145.96 47.04 139.88 46.59 Z" />
<path fill="#ffffff" opacity="1.00" d=" M 132.68 47.27 C 133.69 46.42 135.47 46.41 136.49 47.25 C 136.49 48.80 132.76 48.77 132.68 47.27 Z" />
<path fill="#ffffff" opacity="1.00" d=" M 162.55 47.19 C 163.15 46.19 165.59 46.35 165.30 47.78 C 164.72 48.80 162.25 48.63 162.55 47.19 Z" />
<path fill="#ffffff" opacity="1.00" d=" M 127.57 48.13 C 128.74 47.22 129.42 47.46 129.61 48.85 C 128.43 49.75 127.75 49.52 127.57 48.13 Z" />
<path fill="#ffffff" opacity="1.00" d=" M 169.41 48.12 C 170.59 47.21 171.26 47.46 171.42 48.85 C 170.24 49.76 169.57 49.52 169.41 48.12 Z" />
<path fill="#ffffff" opacity="1.00" d=" M 122.59 49.12 C 123.75 48.20 124.42 48.45 124.58 49.85 C 123.41 50.77 122.75 50.52 122.59 49.12 Z" />
<path fill="#ffffff" opacity="1.00" d=" M 173.39 49.11 C 174.58 48.22 175.25 48.46 175.40 49.86 C 174.21 50.76 173.54 50.51 173.39 49.11 Z" />
<path fill="#ffffff" opacity="1.00" d=" M 117.39 50.35 C 118.41 49.67 119.42 49.59 120.44 50.10 C 120.90 52.36 114.03 52.49 117.39 50.35 Z" />
<path fill="#ffffff" opacity="1.00" d=" M 177.40 50.11 C 178.58 49.21 179.25 49.46 179.40 50.86 C 178.21 51.76 177.55 51.51 177.40 50.11 Z" />
<path fill="#ffffff" opacity="1.00" d=" M 112.33 52.21 C 113.05 51.35 115.48 51.89 114.23 53.18 C 113.18 54.99 109.71 53.59 112.33 52.21 Z" />
<path fill="#ffffff" opacity="1.00" d=" M 183.20 52.06 C 186.20 50.56 183.29 55.38 183.20 52.06 Z" />
<path fill="#ffffff" opacity="1.00" d=" M 186.55 53.08 C 187.58 52.28 189.96 53.36 189.55 54.76 C 188.54 55.60 186.08 54.47 186.55 53.08 Z" />
<path fill="#ffffff" opacity="1.00" d=" M 103.76 56.98 C 105.69 55.57 107.91 54.60 110.19 53.91 C 108.31 55.41 106.14 56.53 103.76 56.98 Z" />
<path fill="#ffffff" opacity="1.00" d=" M 96.42 60.03 C 99.38 58.46 96.59 63.36 96.42 60.03 Z" />
<path fill="#ffffff" opacity="1.00" d=" M 202.14 61.01 C 205.13 59.49 202.26 64.35 202.14 61.01 Z" />
<path fill="#ffffff" opacity="1.00" d=" M 91.42 63.03 C 94.37 61.46 91.60 66.36 91.42 63.03 Z" />
<path fill="#ffffff" opacity="1.00" d=" M 207.26 64.18 C 207.81 64.74 207.81 64.74 207.26 64.18 Z" />
<path fill="#ffffff" opacity="1.00" d=" M 89.24 65.14 C 89.80 65.70 89.80 65.70 89.24 65.14 Z" />
<path fill="#ffffff" opacity="1.00" d=" M 211.25 67.14 C 211.81 67.71 211.81 67.71 211.25 67.14 Z" />
<path fill="#ffffff" opacity="1.00" d=" M 85.25 68.15 C 85.80 68.71 85.80 68.71 85.25 68.15 Z" />
<path fill="#ffffff" opacity="1.00" d=" M 214.25 69.19 C 214.80 69.74 214.80 69.74 214.25 69.19 Z" />
<path fill="#ffffff" opacity="1.00" d=" M 78.28 73.29 C 79.68 72.70 80.12 73.13 79.58 74.56 C 78.16 75.14 77.72 74.72 78.28 73.29 Z" />
<path fill="#ffffff" opacity="1.00" d=" M 71.43 80.23 C 73.96 79.23 72.34 83.07 70.67 82.81 C 69.22 82.46 70.58 80.52 71.43 80.23 Z" />
<path fill="#ffffff" opacity="1.00" d=" M 67.01 85.45 C 70.34 85.67 65.40 88.39 67.01 85.45 Z" />
<path fill="#ffffff" opacity="1.00" d=" M 230.32 85.25 C 230.87 85.80 230.87 85.80 230.32 85.25 Z" />
<path fill="#ffffff" opacity="1.00" d=" M 232.35 88.23 C 232.91 88.79 232.91 88.79 232.35 88.23 Z" />
<path fill="#ffffff" opacity="1.00" d=" M 64.14 90.24 C 64.71 90.79 64.71 90.79 64.14 90.24 Z" />
<path fill="#ffffff" opacity="1.00" d=" M 62.02 92.43 C 65.35 92.61 60.44 95.39 62.02 92.43 Z" />
<path fill="#ffffff" opacity="1.00" d=" M 235.31 92.23 C 235.86 92.79 235.86 92.79 235.31 92.23 Z" />
<path fill="#ffffff" opacity="1.00" d=" M 60.18 96.22 C 60.73 96.78 60.73 96.78 60.18 96.22 Z" />
<path fill="#ffffff" opacity="1.00" d=" M 136.69 96.86 C 138.52 95.52 140.89 96.05 143.01 95.92 C 145.17 96.04 147.57 95.57 149.44 96.98 C 145.19 96.60 140.93 96.50 136.69 96.86 Z" />
<path fill="#ffffff" opacity="1.00" d=" M 238.16 96.43 C 241.49 96.57 236.62 99.40 238.16 96.43 Z" />
<path fill="#ffffff" opacity="1.00" d=" M 131.26 97.11 L 132.29 96.77 L 133.01 97.34 C 132.51 97.51 131.51 97.83 131.01 98.00 L 131.26 97.11 Z" />
<path fill="#ffffff" opacity="1.00" d=" M 151.18 97.41 C 152.44 96.19 153.40 96.38 154.06 97.96 C 153.03 98.25 152.07 98.06 151.18 97.41 Z" />
<path fill="#ffffff" opacity="1.00" d=" M 155.13 97.74 C 155.54 97.84 156.36 98.04 156.78 98.14 L 156.72 99.01 C 156.33 98.70 155.53 98.06 155.13 97.74 Z" />
<path fill="#ffffff" opacity="1.00" d=" M 111.52 106.15 L 112.35 106.32 C 112.30 106.69 112.19 107.44 112.13 107.81 L 111.30 107.73 L 110.94 106.87 L 111.52 106.15 Z" />
<path fill="#ffffff" opacity="1.00" d=" M 132.02 107.51 C 132.89 107.00 133.83 106.79 134.84 106.90 C 134.27 108.62 133.34 108.82 132.02 107.51 Z" />
<path fill="#ffffff" opacity="1.00" d=" M 152.35 108.06 C 152.47 108.12 152.72 108.23 152.84 108.29 C 152.72 108.23 152.47 108.12 152.35 108.06 Z" />
<path fill="#ffffff" opacity="1.00" d=" M 124.18 110.45 C 124.28 110.41 124.48 110.31 124.58 110.26 C 124.48 110.31 124.28 110.41 124.18 110.45 Z" />
<path fill="#ffffff" opacity="1.00" d=" M 52.27 111.31 C 54.05 111.56 52.55 115.07 51.09 114.46 C 50.37 113.40 51.20 111.78 52.27 111.31 Z" />
<path fill="#ffffff" opacity="1.00" d=" M 246.18 111.73 C 247.43 114.08 248.28 116.62 248.96 119.18 C 247.38 116.99 246.57 114.38 246.18 111.73 Z" />
<path fill="#ffffff" opacity="1.00" d=" M 159.37 114.66 C 161.03 118.70 161.24 123.21 160.20 127.43 C 160.05 123.17 159.96 118.90 159.37 114.66 Z" />
<path fill="#ffffff" opacity="1.00" d=" M 50.08 116.36 C 53.40 116.54 48.51 119.33 50.08 116.36 Z" />
<path fill="#ffffff" opacity="1.00" d=" M 172.18 116.38 L 172.72 115.49 C 172.84 119.38 173.93 123.72 172.11 127.33 C 172.40 123.69 172.42 120.03 172.18 116.38 Z" />
<path fill="#ffffff" opacity="1.00" d=" M 49.08 119.34 C 52.40 119.54 47.50 122.30 49.08 119.34 Z" />
<path fill="#ffffff" opacity="1.00" d=" M 249.14 120.60 C 250.53 120.74 250.78 121.41 249.89 122.60 C 248.49 122.45 248.24 121.78 249.14 120.60 Z" />
<path fill="#ffffff" opacity="1.00" d=" M 48.13 122.59 C 49.52 122.77 49.76 123.45 48.84 124.61 C 47.45 124.43 47.21 123.75 48.13 122.59 Z" />
<path fill="#ffffff" opacity="1.00" d=" M 250.15 124.60 C 251.54 124.76 251.78 125.43 250.88 126.61 C 249.48 126.45 249.24 125.79 250.15 124.60 Z" />
<path fill="#ffffff" opacity="1.00" d=" M 47.13 126.60 C 48.52 126.78 48.76 127.46 47.85 128.62 C 46.45 128.44 46.21 127.76 47.13 126.60 Z" />
<path fill="#ffffff" opacity="1.00" d=" M 171.03 129.97 C 171.27 129.51 171.74 128.58 171.97 128.12 L 172.42 128.91 L 171.94 129.86 L 171.03 129.97 Z" />
<path fill="#ffffff" opacity="1.00" d=" M 251.14 128.58 C 252.53 128.74 252.78 129.40 251.88 130.59 C 250.48 130.43 250.23 129.76 251.14 128.58 Z" />
<path fill="#ffffff" opacity="1.00" d=" M 46.20 130.71 C 47.63 130.43 47.79 132.86 46.79 133.46 C 45.35 133.75 45.18 131.28 46.20 130.71 Z" />
<path fill="#ffffff" opacity="1.00" d=" M 252.22 134.70 C 253.65 134.41 253.81 136.85 252.81 137.45 C 251.37 137.75 251.20 135.28 252.22 134.70 Z" />
<path fill="#ffffff" opacity="1.00" d=" M 45.20 136.71 C 46.63 136.43 46.79 138.86 45.79 139.46 C 44.35 139.75 44.18 137.28 45.20 136.71 Z" />
<path fill="#ffffff" opacity="1.00" d=" M 144.11 140.09 C 144.63 138.36 145.58 138.14 146.95 139.41 C 146.07 139.93 145.12 140.16 144.11 140.09 Z" />
<path fill="#ffffff" opacity="1.00" d=" M 158.96 142.63 C 159.07 142.57 159.30 142.46 159.41 142.40 C 159.30 142.46 159.07 142.57 158.96 142.63 Z" />
<path fill="#ffffff" opacity="1.00" d=" M 253.24 142.28 L 253.76 142.30 C 253.90 148.24 254.27 154.21 253.45 160.12 C 252.89 154.19 253.09 148.23 253.24 142.28 Z" />
<path fill="#ffffff" opacity="1.00" d=" M 156.13 143.55 C 156.66 143.40 157.72 143.09 158.25 142.94 L 157.93 143.82 L 156.84 144.13 L 156.13 143.55 Z" />
<path fill="#ffffff" opacity="1.00" d=" M 144.17 150.99 C 145.50 150.95 146.79 151.30 148.06 151.69 C 147.25 153.04 144.04 152.83 144.17 150.99 Z" />
<path fill="#ffffff" opacity="1.00" d=" M 167.69 151.37 C 169.18 149.96 171.99 152.68 170.65 154.23 C 169.62 153.32 168.62 152.38 167.69 151.37 Z" />
<path fill="#ffffff" opacity="1.00" d=" M 148.91 151.88 C 150.84 152.17 152.75 152.73 154.44 153.74 C 152.81 154.69 149.28 153.82 148.91 151.88 Z" />
<path fill="#ffffff" opacity="1.00" d=" M 155.07 154.07 C 155.19 154.14 155.43 154.27 155.56 154.34 C 155.43 154.27 155.19 154.14 155.07 154.07 Z" />
<path fill="#ffffff" opacity="1.00" d=" M 173.92 160.06 L 174.83 160.12 L 175.37 161.04 L 174.97 161.84 C 174.71 161.40 174.18 160.50 173.92 160.06 Z" />
<path fill="#ffffff" opacity="1.00" d=" M 45.19 162.55 C 46.63 162.25 46.80 164.71 45.78 165.30 C 44.35 165.59 44.19 163.15 45.19 162.55 Z" />
<path fill="#ffffff" opacity="1.00" d=" M 175.10 162.65 C 176.97 166.60 175.83 171.30 175.71 175.52 L 175.18 174.62 C 175.41 170.63 175.44 166.63 175.10 162.65 Z" />
<path fill="#ffffff" opacity="1.00" d=" M 252.27 163.51 C 253.81 163.51 253.79 167.25 252.29 167.32 C 251.44 166.31 251.42 164.52 252.27 163.51 Z" />
<path fill="#ffffff" opacity="1.00" d=" M 46.19 168.51 C 47.64 168.23 47.75 170.71 46.78 171.32 C 45.34 171.58 45.23 169.12 46.19 168.51 Z" />
<path fill="#ffffff" opacity="1.00" d=" M 163.30 174.07 C 162.12 172.93 161.97 169.36 163.95 169.19 C 164.08 170.84 163.70 172.48 163.30 174.07 Z" />
<path fill="#ffffff" opacity="1.00" d=" M 251.15 170.39 C 252.54 170.58 252.78 171.26 251.86 172.43 C 250.48 172.25 250.24 171.57 251.15 170.39 Z" />
<path fill="#ffffff" opacity="1.00" d=" M 47.07 174.24 C 50.41 174.35 45.56 177.21 47.07 174.24 Z" />
<path fill="#ffffff" opacity="1.00" d=" M 161.35 179.01 C 160.02 177.82 161.32 174.66 163.10 174.87 C 162.80 176.35 162.30 177.82 161.35 179.01 Z" />
<path fill="#ffffff" opacity="1.00" d=" M 250.14 175.42 C 251.54 175.57 251.79 176.24 250.88 177.41 C 249.48 177.25 249.23 176.59 250.14 175.42 Z" />
<path fill="#ffffff" opacity="1.00" d=" M 48.11 177.40 C 49.51 177.54 49.76 178.21 48.85 179.40 C 47.46 179.24 47.21 178.58 48.11 177.40 Z" />
<path fill="#ffffff" opacity="1.00" d=" M 173.12 180.94 C 173.30 180.45 173.66 179.47 173.84 178.98 L 174.39 179.72 L 174.02 180.74 L 173.12 180.94 Z" />
<path fill="#ffffff" opacity="1.00" d=" M 249.44 179.48 C 251.16 179.98 249.86 183.67 248.32 183.60 C 247.65 182.30 248.40 180.39 249.44 179.48 Z" />
<path fill="#ffffff" opacity="1.00" d=" M 49.07 181.22 C 52.40 181.33 47.55 184.20 49.07 181.22 Z" />
<path fill="#ffffff" opacity="1.00" d=" M 112.11 182.51 C 112.23 182.57 112.46 182.69 112.58 182.74 C 112.46 182.69 112.23 182.57 112.11 182.51 Z" />
<path fill="#ffffff" opacity="1.00" d=" M 50.05 183.83 C 51.61 186.04 52.44 188.65 52.84 191.30 C 51.56 188.96 50.73 186.40 50.05 183.83 Z" />
<path fill="#ffffff" opacity="1.00" d=" M 153.06 185.89 C 153.19 185.82 153.44 185.69 153.57 185.62 C 153.44 185.69 153.19 185.82 153.06 185.89 Z" />
<path fill="#ffffff" opacity="1.00" d=" M 247.11 185.20 C 250.44 185.38 245.54 188.15 247.11 185.20 Z" />
<path fill="#ffffff" opacity="1.00" d=" M 122.02 186.39 L 122.67 185.74 L 123.77 185.93 L 124.16 186.77 C 123.62 186.67 122.55 186.48 122.02 186.39 Z" />
<path fill="#ffffff" opacity="1.00" d=" M 150.42 185.96 C 150.89 186.05 151.82 186.22 152.29 186.31 C 151.72 186.43 150.59 186.66 150.03 186.78 L 150.42 185.96 Z" />
<path fill="#ffffff" opacity="1.00" d=" M 126.07 187.26 C 126.82 185.85 130.04 186.19 129.81 188.03 C 128.52 188.03 127.27 187.70 126.07 187.26 Z" />
<path fill="#ffffff" opacity="1.00" d=" M 146.14 188.01 C 146.63 186.35 147.60 186.06 149.06 187.14 C 148.19 187.79 147.21 188.08 146.14 188.01 Z" />
<path fill="#ffffff" opacity="1.00" d=" M 246.11 188.21 C 249.44 188.37 244.56 191.17 246.11 188.21 Z" />
<path fill="#ffffff" opacity="1.00" d=" M 164.17 191.44 C 164.26 191.38 164.43 191.27 164.51 191.21 C 164.43 191.27 164.26 191.38 164.17 191.44 Z" />
<path fill="#ffffff" opacity="1.00" d=" M 112.60 193.37 C 112.72 193.43 112.97 193.53 113.09 193.58 C 112.97 193.53 112.72 193.43 112.60 193.37 Z" />
<path fill="#ffffff" opacity="1.00" d=" M 113.80 193.83 C 115.59 194.37 117.32 195.06 119.05 195.78 C 117.51 197.13 113.83 195.93 113.80 193.83 Z" />
<path fill="#ffffff" opacity="1.00" d=" M 119.77 196.01 C 120.29 196.16 121.32 196.47 121.84 196.62 L 121.14 197.20 L 120.08 196.88 L 119.77 196.01 Z" />
<path fill="#ffffff" opacity="1.00" d=" M 147.09 197.65 C 147.97 197.14 148.91 196.94 149.92 197.04 C 149.34 198.76 148.39 198.96 147.09 197.65 Z" />
<path fill="#ffffff" opacity="1.00" d=" M 239.16 202.14 C 242.49 202.31 237.59 205.11 239.16 202.14 Z" />
<path fill="#ffffff" opacity="1.00" d=" M 60.04 205.17 C 63.38 205.25 58.55 208.17 60.04 205.17 Z" />
<path fill="#ffffff" opacity="1.00" d=" M 236.16 207.14 C 239.49 207.32 234.59 210.10 236.16 207.14 Z" />
<path fill="#ffffff" opacity="1.00" d=" M 234.17 210.12 C 237.51 210.29 232.60 213.07 234.17 210.12 Z" />
<path fill="#ffffff" opacity="1.00" d=" M 64.00 211.13 C 67.34 211.23 62.49 214.11 64.00 211.13 Z" />
<path fill="#ffffff" opacity="1.00" d=" M 231.18 214.11 C 234.52 214.32 229.58 217.05 231.18 214.11 Z" />
<path fill="#ffffff" opacity="1.00" d=" M 67.00 215.13 C 70.34 215.22 65.50 218.12 67.00 215.13 Z" />
<path fill="#ffffff" opacity="1.00" d=" M 227.19 219.11 C 228.41 219.77 228.34 220.45 226.97 221.14 C 225.73 220.47 225.80 219.79 227.19 219.11 Z" />
<path fill="#ffffff" opacity="1.00" d=" M 72.13 221.31 C 73.51 220.94 74.05 221.45 73.74 222.85 C 72.37 223.20 71.84 222.68 72.13 221.31 Z" />
<path fill="#ffffff" opacity="1.00" d=" M 77.17 226.32 C 78.42 225.69 80.27 227.57 79.62 228.81 C 78.34 229.34 76.60 227.59 77.17 226.32 Z" />
<path fill="#ffffff" opacity="1.00" d=" M 217.36 229.19 C 219.23 229.76 216.74 232.63 215.42 231.82 C 214.81 230.64 216.28 229.38 217.36 229.19 Z" />
<path fill="#ffffff" opacity="1.00" d=" M 84.24 232.34 C 84.79 232.89 84.79 232.89 84.24 232.34 Z" />
<path fill="#ffffff" opacity="1.00" d=" M 212.11 233.19 C 215.06 231.62 212.28 236.53 212.11 233.19 Z" />
<path fill="#ffffff" opacity="1.00" d=" M 88.25 235.34 C 88.80 235.89 88.80 235.89 88.25 235.34 Z" />
<path fill="#ffffff" opacity="1.00" d=" M 208.11 236.19 C 211.06 234.61 208.29 239.53 208.11 236.19 Z" />
<path fill="#ffffff" opacity="1.00" d=" M 90.43 237.16 C 93.42 235.63 90.56 240.49 90.43 237.16 Z" />
<path fill="#ffffff" opacity="1.00" d=" M 205.16 238.13 C 208.11 236.56 205.34 241.46 205.16 238.13 Z" />
<path fill="#ffffff" opacity="1.00" d=" M 94.21 239.47 C 95.09 238.62 97.22 239.74 96.60 240.98 C 95.68 241.92 93.71 240.68 94.21 239.47 Z" />
<path fill="#ffffff" opacity="1.00" d=" M 187.91 248.06 C 192.34 245.17 197.11 242.70 202.13 241.00 C 197.71 243.92 192.87 246.21 187.91 248.06 Z" />
<path fill="#ffffff" opacity="1.00" d=" M 109.42 247.22 C 110.46 246.45 112.08 247.34 112.56 248.40 C 112.28 250.15 108.84 248.70 109.42 247.22 Z" />
<path fill="#ffffff" opacity="1.00" d=" M 185.19 248.11 C 188.15 246.54 185.38 251.44 185.19 248.11 Z" />
<path fill="#ffffff" opacity="1.00" d=" M 114.37 249.09 C 117.37 247.61 114.43 252.42 114.37 249.09 Z" />
<path fill="#ffffff" opacity="1.00" d=" M 175.82 252.02 C 178.47 250.60 181.35 249.59 184.35 249.20 C 181.69 250.63 178.76 251.45 175.82 252.02 Z" />
<path fill="#ffffff" opacity="1.00" d=" M 117.36 250.10 C 120.35 248.59 117.47 253.42 117.36 250.10 Z" />
<path fill="#ffffff" opacity="1.00" d=" M 120.61 251.15 C 121.80 250.24 122.47 250.49 122.62 251.89 C 121.43 252.78 120.76 252.53 120.61 251.15 Z" />
<path fill="#ffffff" opacity="1.00" d=" M 124.35 252.10 C 127.32 250.56 124.49 255.43 124.35 252.10 Z" />
<path fill="#ffffff" opacity="1.00" d=" M 172.20 252.11 C 175.18 250.54 172.39 255.42 172.20 252.11 Z" />
<path fill="#ffffff" opacity="1.00" d=" M 127.71 253.22 C 128.29 252.19 130.76 252.37 130.45 253.81 C 129.86 254.81 127.42 254.65 127.71 253.22 Z" />
<path fill="#ffffff" opacity="1.00" d=" M 167.53 253.21 C 168.13 252.23 170.57 252.36 170.32 253.79 C 169.72 254.79 167.25 254.65 167.53 253.21 Z" />
<path fill="#ffffff" opacity="1.00" d=" M 134.70 254.22 C 135.28 253.20 137.75 253.36 137.45 254.81 C 136.85 255.80 134.41 255.65 134.70 254.22 Z" />
<path fill="#ffffff" opacity="1.00" d=" M 160.52 254.27 C 161.52 253.42 163.30 253.43 164.31 254.29 C 164.25 255.80 160.51 255.82 160.52 254.27 Z" />
</g>
<g id="#ffc710ff">
<path fill="#ffc710" opacity="1.00" d=" M 136.43 34.67 C 157.96 32.12 180.07 36.26 199.62 45.46 C 224.28 57.40 244.46 78.16 255.81 103.07 C 262.65 118.75 266.43 135.85 265.98 153.00 C 265.85 168.01 262.27 182.82 256.69 196.69 C 247.80 216.57 233.70 234.28 215.78 246.75 C 199.52 257.75 180.65 265.19 161.03 266.94 C 153.00 267.00 144.96 267.03 136.94 266.92 C 97.78 263.17 61.60 237.81 44.52 202.40 C 38.97 191.75 35.63 180.10 33.69 168.28 C 26.89 126.47 45.46 81.60 79.99 57.00 C 96.23 44.41 116.12 37.09 136.43 34.67 M 139.88 46.59 C 145.96 47.04 152.07 47.08 158.14 46.57 C 152.10 45.79 145.92 45.78 139.88 46.59 M 132.68 47.27 C 132.76 48.77 136.49 48.80 136.49 47.25 C 135.47 46.41 133.69 46.42 132.68 47.27 M 162.55 47.19 C 162.25 48.63 164.72 48.80 165.30 47.78 C 165.59 46.35 163.15 46.19 162.55 47.19 M 127.57 48.13 C 127.75 49.52 128.43 49.75 129.61 48.85 C 129.42 47.46 128.74 47.22 127.57 48.13 M 169.41 48.12 C 169.57 49.52 170.24 49.76 171.42 48.85 C 171.26 47.46 170.59 47.21 169.41 48.12 M 122.59 49.12 C 122.75 50.52 123.41 50.77 124.58 49.85 C 124.42 48.45 123.75 48.20 122.59 49.12 M 173.39 49.11 C 173.54 50.51 174.21 50.76 175.40 49.86 C 175.25 48.46 174.58 48.22 173.39 49.11 M 117.39 50.35 C 114.03 52.49 120.90 52.36 120.44 50.10 C 119.42 49.59 118.41 49.67 117.39 50.35 M 177.40 50.11 C 177.55 51.51 178.21 51.76 179.40 50.86 C 179.25 49.46 178.58 49.21 177.40 50.11 M 112.33 52.21 C 109.71 53.59 113.18 54.99 114.23 53.18 C 115.48 51.89 113.05 51.35 112.33 52.21 M 183.20 52.06 C 183.29 55.38 186.20 50.56 183.20 52.06 M 186.55 53.08 C 186.08 54.47 188.54 55.60 189.55 54.76 C 189.96 53.36 187.58 52.28 186.55 53.08 M 103.76 56.98 C 106.14 56.53 108.31 55.41 110.19 53.91 C 107.91 54.60 105.69 55.57 103.76 56.98 M 96.42 60.03 C 96.59 63.36 99.38 58.46 96.42 60.03 M 202.14 61.01 C 202.26 64.35 205.13 59.49 202.14 61.01 M 91.42 63.03 C 91.60 66.36 94.37 61.46 91.42 63.03 M 207.26 64.18 C 207.81 64.74 207.81 64.74 207.26 64.18 M 89.24 65.14 C 89.80 65.70 89.80 65.70 89.24 65.14 M 211.25 67.14 C 211.81 67.71 211.81 67.71 211.25 67.14 M 85.25 68.15 C 85.80 68.71 85.80 68.71 85.25 68.15 M 214.25 69.19 C 214.80 69.74 214.80 69.74 214.25 69.19 M 78.28 73.29 C 77.72 74.72 78.16 75.14 79.58 74.56 C 80.12 73.13 79.68 72.70 78.28 73.29 M 71.43 80.23 C 70.58 80.52 69.22 82.46 70.67 82.81 C 72.34 83.07 73.96 79.23 71.43 80.23 M 67.01 85.45 C 65.40 88.39 70.34 85.67 67.01 85.45 M 230.32 85.25 C 230.87 85.80 230.87 85.80 230.32 85.25 M 232.35 88.23 C 232.91 88.79 232.91 88.79 232.35 88.23 M 64.14 90.24 C 64.71 90.79 64.71 90.79 64.14 90.24 M 62.02 92.43 C 60.44 95.39 65.35 92.61 62.02 92.43 M 235.31 92.23 C 235.86 92.79 235.86 92.79 235.31 92.23 M 60.18 96.22 C 60.73 96.78 60.73 96.78 60.18 96.22 M 136.69 96.86 C 135.45 96.95 134.22 97.11 133.01 97.34 L 132.29 96.77 L 131.26 97.11 L 131.01 98.00 C 124.21 99.13 117.93 102.38 112.35 106.32 L 111.52 106.15 L 110.94 106.87 L 111.30 107.73 L 112.13 107.81 C 113.75 110.03 115.53 112.13 117.19 114.32 C 119.54 113.06 121.82 111.70 124.18 110.45 C 124.28 110.41 124.48 110.31 124.58 110.26 C 126.99 109.16 129.53 108.40 132.02 107.51 C 133.34 108.82 134.27 108.62 134.84 106.90 C 140.68 106.14 146.76 105.81 152.35 108.06 C 152.47 108.12 152.72 108.23 152.84 108.29 C 155.59 109.71 158.07 111.80 159.37 114.66 C 159.96 118.90 160.05 123.17 160.20 127.43 C 158.45 133.59 152.71 137.43 146.95 139.41 C 145.58 138.14 144.63 138.36 144.11 140.09 C 138.12 141.07 132.05 141.10 126.00 141.01 C 126.00 144.14 126.00 147.27 126.00 150.40 C 132.06 150.39 138.13 150.51 144.17 150.99 C 144.04 152.83 147.25 153.04 148.06 151.69 L 148.91 151.88 C 149.28 153.82 152.81 154.69 154.44 153.74 L 155.07 154.07 C 155.19 154.14 155.43 154.27 155.56 154.34 C 161.07 157.06 164.35 163.09 163.95 169.19 C 161.97 169.36 162.12 172.93 163.30 174.07 L 163.10 174.87 C 161.32 174.66 160.02 177.82 161.35 179.01 C 159.52 182.00 156.82 184.31 153.57 185.62 C 153.44 185.69 153.19 185.82 153.06 185.89 L 152.29 186.31 C 151.82 186.22 150.89 186.05 150.42 185.96 L 150.03 186.78 L 149.06 187.14 C 147.60 186.06 146.63 186.35 146.14 188.01 C 140.70 188.47 135.24 188.69 129.81 188.03 C 130.04 186.19 126.82 185.85 126.07 187.26 C 125.59 187.14 124.63 186.89 124.16 186.77 L 123.77 185.93 L 122.67 185.74 L 122.02 186.39 C 118.80 185.37 115.58 184.32 112.58 182.74 C 112.46 182.69 112.23 182.57 112.11 182.51 L 111.36 182.14 C 110.88 185.50 110.84 188.92 111.06 192.31 C 111.45 192.57 112.22 193.11 112.60 193.37 C 112.72 193.43 112.97 193.53 113.09 193.58 L 113.80 193.83 C 113.83 195.93 117.51 197.13 119.05 195.78 L 119.77 196.01 L 120.08 196.88 L 121.14 197.20 L 121.84 196.62 C 130.16 198.05 138.68 198.24 147.09 197.65 C 148.39 198.96 149.34 198.76 149.92 197.04 C 155.00 196.24 159.79 194.08 164.17 191.44 C 164.26 191.38 164.43 191.27 164.51 191.21 C 168.22 188.61 171.11 184.98 173.12 180.94 L 174.02 180.74 L 174.39 179.72 L 173.84 178.98 C 174.39 177.56 174.84 176.10 175.18 174.62 L 175.71 175.52 C 175.83 171.30 176.97 166.60 175.10 162.65 L 174.97 161.84 L 175.37 161.04 L 174.83 160.12 L 173.92 160.06 C 173.43 157.85 172.20 155.85 170.65 154.23 C 171.99 152.68 169.18 149.96 167.69 151.37 C 163.47 147.35 157.48 146.34 151.97 145.27 C 153.35 144.67 154.75 144.14 156.13 143.55 L 156.84 144.13 L 157.93 143.82 L 158.25 142.94 L 158.96 142.63 C 159.07 142.57 159.30 142.46 159.41 142.40 C 164.59 139.81 169.23 135.60 171.03 129.97 L 171.94 129.86 L 172.42 128.91 L 171.97 128.12 L 172.11 127.33 C 173.93 123.72 172.84 119.38 172.72 115.49 L 172.18 116.38 C 170.52 108.43 164.56 101.37 156.72 99.01 L 156.78 98.14 C 156.36 98.04 155.54 97.84 155.13 97.74 L 154.06 97.96 C 153.40 96.38 152.44 96.19 151.18 97.41 C 150.74 97.30 149.87 97.09 149.44 96.98 C 147.57 95.57 145.17 96.04 143.01 95.92 C 140.89 96.05 138.52 95.52 136.69 96.86 M 238.16 96.43 C 236.62 99.40 241.49 96.57 238.16 96.43 M 52.27 111.31 C 51.20 111.78 50.37 113.40 51.09 114.46 C 52.55 115.07 54.05 111.56 52.27 111.31 M 246.18 111.73 C 246.57 114.38 247.38 116.99 248.96 119.18 C 248.28 116.62 247.43 114.08 246.18 111.73 M 50.08 116.36 C 48.51 119.33 53.40 116.54 50.08 116.36 M 49.08 119.34 C 47.50 122.30 52.40 119.54 49.08 119.34 M 249.14 120.60 C 248.24 121.78 248.49 122.45 249.89 122.60 C 250.78 121.41 250.53 120.74 249.14 120.60 M 48.13 122.59 C 47.21 123.75 47.45 124.43 48.84 124.61 C 49.76 123.45 49.52 122.77 48.13 122.59 M 250.15 124.60 C 249.24 125.79 249.48 126.45 250.88 126.61 C 251.78 125.43 251.54 124.76 250.15 124.60 M 47.13 126.60 C 46.21 127.76 46.45 128.44 47.85 128.62 C 48.76 127.46 48.52 126.78 47.13 126.60 M 251.14 128.58 C 250.23 129.76 250.48 130.43 251.88 130.59 C 252.78 129.40 252.53 128.74 251.14 128.58 M 46.20 130.71 C 45.18 131.28 45.35 133.75 46.79 133.46 C 47.79 132.86 47.63 130.43 46.20 130.71 M 252.22 134.70 C 251.20 135.28 251.37 137.75 252.81 137.45 C 253.81 136.85 253.65 134.41 252.22 134.70 M 45.20 136.71 C 44.18 137.28 44.35 139.75 45.79 139.46 C 46.79 138.86 46.63 136.43 45.20 136.71 M 253.24 142.28 C 253.09 148.23 252.89 154.19 253.45 160.12 C 254.27 154.21 253.90 148.24 253.76 142.30 L 253.24 142.28 M 45.19 162.55 C 44.19 163.15 44.35 165.59 45.78 165.30 C 46.80 164.71 46.63 162.25 45.19 162.55 M 252.27 163.51 C 251.42 164.52 251.44 166.31 252.29 167.32 C 253.79 167.25 253.81 163.51 252.27 163.51 M 46.19 168.51 C 45.23 169.12 45.34 171.58 46.78 171.32 C 47.75 170.71 47.64 168.23 46.19 168.51 M 251.15 170.39 C 250.24 171.57 250.48 172.25 251.86 172.43 C 252.78 171.26 252.54 170.58 251.15 170.39 M 47.07 174.24 C 45.56 177.21 50.41 174.35 47.07 174.24 M 250.14 175.42 C 249.23 176.59 249.48 177.25 250.88 177.41 C 251.79 176.24 251.54 175.57 250.14 175.42 M 48.11 177.40 C 47.21 178.58 47.46 179.24 48.85 179.40 C 49.76 178.21 49.51 177.54 48.11 177.40 M 249.44 179.48 C 248.40 180.39 247.65 182.30 248.32 183.60 C 249.86 183.67 251.16 179.98 249.44 179.48 M 49.07 181.22 C 47.55 184.20 52.40 181.33 49.07 181.22 M 50.05 183.83 C 50.73 186.40 51.56 188.96 52.84 191.30 C 52.44 188.65 51.61 186.04 50.05 183.83 M 247.11 185.20 C 245.54 188.15 250.44 185.38 247.11 185.20 M 246.11 188.21 C 244.56 191.17 249.44 188.37 246.11 188.21 M 239.16 202.14 C 237.59 205.11 242.49 202.31 239.16 202.14 M 60.04 205.17 C 58.55 208.17 63.38 205.25 60.04 205.17 M 236.16 207.14 C 234.59 210.10 239.49 207.32 236.16 207.14 M 234.17 210.12 C 232.60 213.07 237.51 210.29 234.17 210.12 M 64.00 211.13 C 62.49 214.11 67.34 211.23 64.00 211.13 M 231.18 214.11 C 229.58 217.05 234.52 214.32 231.18 214.11 M 67.00 215.13 C 65.50 218.12 70.34 215.22 67.00 215.13 M 227.19 219.11 C 225.80 219.79 225.73 220.47 226.97 221.14 C 228.34 220.45 228.41 219.77 227.19 219.11 M 72.13 221.31 C 71.84 222.68 72.37 223.20 73.74 222.85 C 74.05 221.45 73.51 220.94 72.13 221.31 M 77.17 226.32 C 76.60 227.59 78.34 229.34 79.62 228.81 C 80.27 227.57 78.42 225.69 77.17 226.32 M 217.36 229.19 C 216.28 229.38 214.81 230.64 215.42 231.82 C 216.74 232.63 219.23 229.76 217.36 229.19 M 84.24 232.34 C 84.79 232.89 84.79 232.89 84.24 232.34 M 212.11 233.19 C 212.28 236.53 215.06 231.62 212.11 233.19 M 88.25 235.34 C 88.80 235.89 88.80 235.89 88.25 235.34 M 208.11 236.19 C 208.29 239.53 211.06 234.61 208.11 236.19 M 90.43 237.16 C 90.56 240.49 93.42 235.63 90.43 237.16 M 205.16 238.13 C 205.34 241.46 208.11 236.56 205.16 238.13 M 94.21 239.47 C 93.71 240.68 95.68 241.92 96.60 240.98 C 97.22 239.74 95.09 238.62 94.21 239.47 M 187.91 248.06 C 192.87 246.21 197.71 243.92 202.13 241.00 C 197.11 242.70 192.34 245.17 187.91 248.06 M 109.42 247.22 C 108.84 248.70 112.28 250.15 112.56 248.40 C 112.08 247.34 110.46 246.45 109.42 247.22 M 185.19 248.11 C 185.38 251.44 188.15 246.54 185.19 248.11 M 114.37 249.09 C 114.43 252.42 117.37 247.61 114.37 249.09 M 175.82 252.02 C 178.76 251.45 181.69 250.63 184.35 249.20 C 181.35 249.59 178.47 250.60 175.82 252.02 M 117.36 250.10 C 117.47 253.42 120.35 248.59 117.36 250.10 M 120.61 251.15 C 120.76 252.53 121.43 252.78 122.62 251.89 C 122.47 250.49 121.80 250.24 120.61 251.15 M 124.35 252.10 C 124.49 255.43 127.32 250.56 124.35 252.10 M 172.20 252.11 C 172.39 255.42 175.18 250.54 172.20 252.11 M 127.71 253.22 C 127.42 254.65 129.86 254.81 130.45 253.81 C 130.76 252.37 128.29 252.19 127.71 253.22 M 167.53 253.21 C 167.25 254.65 169.72 254.79 170.32 253.79 C 170.57 252.36 168.13 252.23 167.53 253.21 M 134.70 254.22 C 134.41 255.65 136.85 255.80 137.45 254.81 C 137.75 253.36 135.28 253.20 134.70 254.22 M 160.52 254.27 C 160.51 255.82 164.25 255.80 164.31 254.29 C 163.30 253.43 161.52 253.42 160.52 254.27 Z" />
</g>
<g id="#0f1112ff">
<path fill="#0f1112" opacity="1.00" d=" M 133.01 97.34 C 134.22 97.11 135.45 96.95 136.69 96.86 C 140.93 96.50 145.19 96.60 149.44 96.98 C 149.87 97.09 150.74 97.30 151.18 97.41 C 152.07 98.06 153.03 98.25 154.06 97.96 L 155.13 97.74 C 155.53 98.06 156.33 98.70 156.72 99.01 C 164.56 101.37 170.52 108.43 172.18 116.38 C 172.42 120.03 172.40 123.69 172.11 127.33 L 171.97 128.12 C 171.74 128.58 171.27 129.51 171.03 129.97 C 169.23 135.60 164.59 139.81 159.41 142.40 C 159.30 142.46 159.07 142.57 158.96 142.63 L 158.25 142.94 C 157.72 143.09 156.66 143.40 156.13 143.55 C 154.75 144.14 153.35 144.67 151.97 145.27 C 157.48 146.34 163.47 147.35 167.69 151.37 C 168.62 152.38 169.62 153.32 170.65 154.23 C 172.20 155.85 173.43 157.85 173.92 160.06 C 174.18 160.50 174.71 161.40 174.97 161.84 L 175.10 162.65 C 175.44 166.63 175.41 170.63 175.18 174.62 C 174.84 176.10 174.39 177.56 173.84 178.98 C 173.66 179.47 173.30 180.45 173.12 180.94 C 171.11 184.98 168.22 188.61 164.51 191.21 C 164.43 191.27 164.26 191.38 164.17 191.44 C 159.79 194.08 155.00 196.24 149.92 197.04 C 148.91 196.94 147.97 197.14 147.09 197.65 C 138.68 198.24 130.16 198.05 121.84 196.62 C 121.32 196.47 120.29 196.16 119.77 196.01 L 119.05 195.78 C 117.32 195.06 115.59 194.37 113.80 193.83 L 113.09 193.58 C 112.97 193.53 112.72 193.43 112.60 193.37 C 112.22 193.11 111.45 192.57 111.06 192.31 C 110.84 188.92 110.88 185.50 111.36 182.14 L 112.11 182.51 C 112.23 182.57 112.46 182.69 112.58 182.74 C 115.58 184.32 118.80 185.37 122.02 186.39 C 122.55 186.48 123.62 186.67 124.16 186.77 C 124.63 186.89 125.59 187.14 126.07 187.26 C 127.27 187.70 128.52 188.03 129.81 188.03 C 135.24 188.69 140.70 188.47 146.14 188.01 C 147.21 188.08 148.19 187.79 149.06 187.14 L 150.03 186.78 C 150.59 186.66 151.72 186.43 152.29 186.31 L 153.06 185.89 C 153.19 185.82 153.44 185.69 153.57 185.62 C 156.82 184.31 159.52 182.00 161.35 179.01 C 162.30 177.82 162.80 176.35 163.10 174.87 L 163.30 174.07 C 163.70 172.48 164.08 170.84 163.95 169.19 C 164.35 163.09 161.07 157.06 155.56 154.34 C 155.43 154.27 155.19 154.14 155.07 154.07 L 154.44 153.74 C 152.75 152.73 150.84 152.17 148.91 151.88 L 148.06 151.69 C 146.79 151.30 145.50 150.95 144.17 150.99 C 138.13 150.51 132.06 150.39 126.00 150.40 C 126.00 147.27 126.00 144.14 126.00 141.01 C 132.05 141.10 138.12 141.07 144.11 140.09 C 145.12 140.16 146.07 139.93 146.95 139.41 C 152.71 137.43 158.45 133.59 160.20 127.43 C 161.24 123.21 161.03 118.70 159.37 114.66 C 158.07 111.80 155.59 109.71 152.84 108.29 C 152.72 108.23 152.47 108.12 152.35 108.06 C 146.76 105.81 140.68 106.14 134.84 106.90 C 133.83 106.79 132.89 107.00 132.02 107.51 C 129.53 108.40 126.99 109.16 124.58 110.26 C 124.48 110.31 124.28 110.41 124.18 110.45 C 121.82 111.70 119.54 113.06 117.19 114.32 C 115.53 112.13 113.75 110.03 112.13 107.81 C 112.19 107.44 112.30 106.69 112.35 106.32 C 117.93 102.38 124.21 99.13 131.01 98.00 C 131.51 97.83 132.51 97.51 133.01 97.34 Z" />
</g>
</svg>
