<?xml version="1.0" encoding="UTF-8" ?>
<!DOCTYPE svg PUBLIC "-//W3C//DTD SVG 1.1//EN" "http://www.w3.org/Graphics/SVG/1.1/DTD/svg11.dtd">
<svg width="300pt" height="258pt" viewBox="0 0 300 258" version="1.1" xmlns="http://www.w3.org/2000/svg">
<g id="#ffffffff">
</g>
<g id="#000000ff">
<path fill="#000000" opacity="1.00" d=" M 155.15 16.95 C 161.64 14.00 169.26 12.45 176.14 14.97 C 179.85 16.28 182.38 19.41 184.91 22.24 C 194.09 33.18 200.28 46.85 201.62 61.11 C 201.86 74.59 197.89 87.66 194.53 100.57 C 217.69 100.40 240.85 100.54 264.01 100.50 C 271.35 100.39 278.97 103.76 282.80 110.23 C 286.50 115.32 286.58 122.02 285.50 127.97 C 283.73 133.96 279.09 139.05 273.32 141.45 C 278.75 148.43 279.34 158.95 274.06 166.17 C 272.26 169.45 268.87 171.18 265.76 172.98 C 269.09 178.27 270.52 184.93 268.58 190.98 C 266.35 197.12 261.42 202.44 255.03 204.26 C 257.58 209.75 258.63 216.18 256.39 221.96 C 253.39 228.75 246.71 234.39 238.99 234.20 C 202.65 234.34 166.32 234.18 129.98 234.27 C 124.51 234.56 119.47 232.02 114.22 230.89 C 113.71 234.90 115.83 240.18 112.16 243.07 C 86.78 242.91 61.38 243.05 35.99 243.00 C 33.06 242.93 30.10 243.23 27.19 242.78 C 25.43 241.96 25.31 239.73 25.07 238.06 C 21.25 199.57 17.43 161.07 13.57 122.59 C 15.40 118.96 19.58 119.79 22.96 119.74 C 52.28 119.75 81.60 119.76 110.91 119.74 C 115.02 118.80 116.63 114.15 119.21 111.24 C 129.09 95.94 139.85 81.10 147.80 64.67 C 151.77 52.14 149.54 38.79 148.56 25.98 C 148.06 21.68 151.67 18.63 155.15 16.95 M 157.14 25.54 C 158.03 37.72 159.64 50.11 157.23 62.24 C 155.76 69.96 151.04 76.39 147.35 83.16 C 140.86 93.97 133.98 104.54 126.87 114.96 C 123.28 119.86 119.90 125.38 114.25 128.16 C 114.28 159.38 114.18 190.60 114.30 221.81 C 119.18 223.16 123.98 224.97 128.98 225.72 C 165.67 225.78 202.35 225.74 239.03 225.74 C 246.34 225.42 251.16 216.69 247.96 210.18 C 247.08 205.66 241.29 204.57 240.65 200.02 C 241.30 198.17 242.66 195.80 244.96 196.14 C 249.20 196.80 254.07 196.50 257.11 193.06 C 262.39 188.48 261.69 178.95 255.69 175.31 C 253.84 173.98 251.34 172.58 251.30 170.00 C 251.30 167.15 254.34 165.42 256.96 165.87 C 262.66 166.37 268.06 161.74 268.83 156.16 C 269.39 152.09 267.78 147.96 265.20 144.86 C 263.09 142.87 259.07 141.51 260.08 137.85 C 260.44 134.82 263.78 134.90 266.10 134.58 C 272.71 134.06 278.53 127.71 277.66 120.96 C 277.63 114.45 271.48 108.82 265.05 109.02 C 240.00 108.95 214.95 109.05 189.90 108.98 C 186.80 109.38 184.11 106.12 185.12 103.15 C 188.14 90.52 192.18 78.01 193.08 64.98 C 193.32 62.14 192.89 59.30 192.39 56.51 C 189.96 45.50 184.96 34.98 177.35 26.61 C 175.63 24.11 172.89 22.55 169.92 22.10 C 165.43 22.06 161.10 23.50 157.14 25.54 M 22.21 128.05 C 23.67 138.83 24.35 149.71 25.69 160.50 C 27.98 185.33 30.99 210.10 33.14 234.95 C 57.42 235.07 81.71 234.96 106.00 235.00 C 106.00 199.33 106.00 163.67 106.00 128.00 C 78.07 128.04 50.14 127.93 22.21 128.05 Z" />
<path fill="#000000" opacity="1.00" d=" M 71.11 185.19 C 76.60 183.41 82.44 185.00 87.32 187.72 C 93.06 191.52 96.69 198.18 96.89 205.06 C 96.50 212.53 92.34 220.05 85.45 223.35 C 76.21 228.32 63.50 224.62 58.38 215.46 C 54.70 208.75 54.60 199.72 59.23 193.42 C 61.80 189.13 66.41 186.51 71.11 185.19 M 73.15 193.21 C 66.04 194.54 62.13 203.05 64.68 209.54 C 66.21 212.51 68.42 215.44 71.77 216.43 C 78.97 219.42 88.10 213.83 88.44 205.98 C 89.21 198.04 80.87 190.86 73.15 193.21 Z" />
</g>
<g id="#a4cf50ff">
<path fill="#a4cf50" opacity="1.00" d=" M 22.21 128.05 C 50.14 127.93 78.07 128.04 106.00 128.00 C 106.00 163.67 106.00 199.33 106.00 235.00 C 81.71 234.96 57.42 235.07 33.14 234.95 C 30.99 210.10 27.98 185.33 25.69 160.50 C 24.35 149.71 23.67 138.83 22.21 128.05 M 71.11 185.19 C 66.41 186.51 61.80 189.13 59.23 193.42 C 54.60 199.72 54.70 208.75 58.38 215.46 C 63.50 224.62 76.21 228.32 85.45 223.35 C 92.34 220.05 96.50 212.53 96.89 205.06 C 96.69 198.18 93.06 191.52 87.32 187.72 C 82.44 185.00 76.60 183.41 71.11 185.19 Z" />
</g>
</svg>
