<?xml version="1.0" encoding="UTF-8" ?>
<!DOCTYPE svg PUBLIC "-//W3C//DTD SVG 1.1//EN" "http://www.w3.org/Graphics/SVG/1.1/DTD/svg11.dtd">
<svg width="300pt" height="300pt" viewBox="0 0 300 300" version="1.1" xmlns="http://www.w3.org/2000/svg">
<g id="#ffffffff">
<path fill="#ffffff" opacity="1.00" d=" M 140.28 46.25 C 146.58 46.07 152.89 45.92 159.17 46.43 C 152.91 47.29 146.56 46.84 140.26 46.75 L 140.28 46.25 Z" />
<path fill="#ffffff" opacity="1.00" d=" M 132.56 47.30 C 133.65 46.48 135.45 46.45 136.55 47.27 C 136.45 48.78 132.73 48.73 132.56 47.30 Z" />
<path fill="#ffffff" opacity="1.00" d=" M 162.52 47.22 C 163.16 46.29 165.61 46.35 165.41 47.78 C 164.77 48.72 162.29 48.66 162.52 47.22 Z" />
<path fill="#ffffff" opacity="1.00" d=" M 127.53 48.15 C 128.72 47.24 129.40 47.48 129.58 48.86 C 128.39 49.76 127.71 49.52 127.53 48.15 Z" />
<path fill="#ffffff" opacity="1.00" d=" M 169.45 48.14 C 170.63 47.24 171.30 47.48 171.47 48.86 C 170.29 49.77 169.61 49.53 169.45 48.14 Z" />
<path fill="#ffffff" opacity="1.00" d=" M 122.53 49.14 C 123.70 48.22 124.37 48.47 124.54 49.87 C 123.36 50.77 122.69 50.53 122.53 49.14 Z" />
<path fill="#ffffff" opacity="1.00" d=" M 173.42 49.13 C 174.60 48.24 175.28 48.48 175.46 49.86 C 174.27 50.76 173.59 50.52 173.42 49.13 Z" />
<path fill="#ffffff" opacity="1.00" d=" M 117.34 50.34 C 118.37 49.67 119.40 49.60 120.43 50.13 C 120.83 52.34 114.08 52.48 117.34 50.34 Z" />
<path fill="#ffffff" opacity="1.00" d=" M 177.43 50.13 C 178.62 49.23 179.29 49.48 179.46 50.86 C 178.27 51.76 177.59 51.52 177.43 50.13 Z" />
<path fill="#ffffff" opacity="1.00" d=" M 181.57 51.09 C 182.60 50.34 184.22 51.16 184.68 52.22 C 184.45 54.01 180.92 52.57 181.57 51.09 Z" />
<path fill="#ffffff" opacity="1.00" d=" M 112.31 52.21 C 113.04 51.37 115.47 51.90 114.22 53.19 C 113.18 54.99 109.68 53.56 112.31 52.21 Z" />
<path fill="#ffffff" opacity="1.00" d=" M 186.56 53.09 C 187.60 52.36 189.21 53.17 189.68 54.23 C 189.44 56.02 185.91 54.57 186.56 53.09 Z" />
<path fill="#ffffff" opacity="1.00" d=" M 103.86 56.93 C 105.68 55.46 107.85 54.52 110.10 53.93 C 108.28 55.41 106.16 56.45 103.86 56.93 Z" />
<path fill="#ffffff" opacity="1.00" d=" M 96.26 59.98 C 97.87 59.03 98.44 61.59 96.77 61.82 C 95.14 62.77 94.69 60.31 96.26 59.98 Z" />
<path fill="#ffffff" opacity="1.00" d=" M 202.30 61.11 C 203.24 60.22 205.27 61.54 204.62 62.74 C 203.68 63.45 201.63 62.33 202.30 61.11 Z" />
<path fill="#ffffff" opacity="1.00" d=" M 91.38 63.05 C 94.34 61.48 91.56 66.38 91.38 63.05 Z" />
<path fill="#ffffff" opacity="1.00" d=" M 207.26 64.19 C 207.80 64.75 207.80 64.75 207.26 64.19 Z" />
<path fill="#ffffff" opacity="1.00" d=" M 89.25 65.15 C 89.80 65.71 89.80 65.71 89.25 65.15 Z" />
<path fill="#ffffff" opacity="1.00" d=" M 211.26 67.15 C 211.81 67.71 211.81 67.71 211.26 67.15 Z" />
<path fill="#ffffff" opacity="1.00" d=" M 85.25 68.16 C 85.81 68.72 85.81 68.72 85.25 68.16 Z" />
<path fill="#ffffff" opacity="1.00" d=" M 214.24 69.20 C 214.79 69.74 214.79 69.74 214.24 69.20 Z" />
<path fill="#ffffff" opacity="1.00" d=" M 78.26 73.26 C 79.67 72.67 80.10 73.10 79.58 74.54 C 78.16 75.12 77.72 74.69 78.26 73.26 Z" />
<path fill="#ffffff" opacity="1.00" d=" M 71.39 80.22 C 73.93 79.21 72.32 83.07 70.63 82.78 C 69.20 82.42 70.54 80.51 71.39 80.22 Z" />
<path fill="#ffffff" opacity="1.00" d=" M 67.23 85.32 C 68.83 85.40 68.05 87.80 66.78 87.78 C 65.20 87.71 66.01 85.32 67.23 85.32 Z" />
<path fill="#ffffff" opacity="1.00" d=" M 230.31 85.26 C 230.85 85.80 230.85 85.80 230.31 85.26 Z" />
<path fill="#ffffff" opacity="1.00" d=" M 232.15 87.41 C 235.48 87.53 230.63 90.39 232.15 87.41 Z" />
<path fill="#ffffff" opacity="1.00" d=" M 64.16 90.24 C 64.71 90.80 64.71 90.80 64.16 90.24 Z" />
<path fill="#ffffff" opacity="1.00" d=" M 62.03 92.40 C 65.36 92.56 60.47 95.37 62.03 92.40 Z" />
<path fill="#ffffff" opacity="1.00" d=" M 235.30 92.24 C 235.86 92.78 235.86 92.78 235.30 92.24 Z" />
<path fill="#ffffff" opacity="1.00" d=" M 237.27 95.38 C 238.47 94.73 239.78 96.75 238.89 97.69 C 237.67 98.37 236.55 96.31 237.27 95.38 Z" />
<path fill="#ffffff" opacity="1.00" d=" M 60.19 96.23 C 60.75 96.78 60.75 96.78 60.19 96.23 Z" />
<path fill="#ffffff" opacity="1.00" d=" M 136.68 96.89 C 139.95 94.99 144.18 96.26 147.84 96.07 C 148.23 96.29 149.00 96.72 149.39 96.93 C 145.16 96.61 140.91 96.50 136.68 96.89 Z" />
<path fill="#ffffff" opacity="1.00" d=" M 132.16 97.02 L 133.23 96.75 L 133.93 97.34 C 133.41 97.47 132.36 97.74 131.83 97.87 L 132.16 97.02 Z" />
<path fill="#ffffff" opacity="1.00" d=" M 150.14 97.19 C 151.56 96.00 152.46 96.29 152.86 98.06 C 151.85 98.08 150.94 97.79 150.14 97.19 Z" />
<path fill="#ffffff" opacity="1.00" d=" M 128.17 99.03 C 128.58 97.32 129.53 97.02 131.00 98.15 C 130.16 98.76 129.21 99.06 128.17 99.03 Z" />
<path fill="#ffffff" opacity="1.00" d=" M 119.09 103.31 C 121.02 100.71 124.28 99.43 127.43 99.20 C 124.61 100.50 121.81 101.83 119.09 103.31 Z" />
<path fill="#ffffff" opacity="1.00" d=" M 161.12 101.63 C 161.22 101.69 161.43 101.82 161.54 101.88 C 161.43 101.82 161.22 101.69 161.12 101.63 Z" />
<path fill="#ffffff" opacity="1.00" d=" M 163.64 103.31 C 165.45 102.85 166.13 103.53 165.68 105.33 C 164.80 104.85 164.12 104.18 163.64 103.31 Z" />
<path fill="#ffffff" opacity="1.00" d=" M 115.47 105.82 C 115.57 105.75 115.77 105.61 115.87 105.54 C 115.77 105.61 115.57 105.75 115.47 105.82 Z" />
<path fill="#ffffff" opacity="1.00" d=" M 112.48 107.16 L 113.32 107.30 C 113.27 107.68 113.18 108.44 113.13 108.82 C 112.83 108.59 112.22 108.14 111.92 107.91 L 112.48 107.16 Z" />
<path fill="#ffffff" opacity="1.00" d=" M 151.17 107.79 C 151.64 108.04 152.58 108.53 153.06 108.78 L 152.24 109.24 L 151.25 108.74 L 151.17 107.79 Z" />
<path fill="#ffffff" opacity="1.00" d=" M 52.26 111.29 C 54.03 111.54 52.57 115.06 51.10 114.46 C 50.40 113.40 51.19 111.78 52.26 111.29 Z" />
<path fill="#ffffff" opacity="1.00" d=" M 115.38 111.63 C 116.22 112.16 116.84 112.89 117.22 113.82 C 115.39 114.09 114.77 113.36 115.38 111.63 Z" />
<path fill="#ffffff" opacity="1.00" d=" M 123.05 112.36 C 123.16 112.29 123.37 112.15 123.47 112.08 C 123.37 112.15 123.16 112.29 123.05 112.36 Z" />
<path fill="#ffffff" opacity="1.00" d=" M 246.02 111.96 C 247.47 114.09 248.33 116.56 248.98 119.04 C 247.35 116.99 246.53 114.49 246.02 111.96 Z" />
<path fill="#ffffff" opacity="1.00" d=" M 157.48 112.72 C 158.45 113.45 158.97 114.59 159.17 115.77 C 157.61 116.53 156.24 113.72 157.48 112.72 Z" />
<path fill="#ffffff" opacity="1.00" d=" M 118.11 115.40 C 118.92 114.80 119.79 114.29 120.70 113.85 C 122.03 115.37 118.51 117.50 118.11 115.40 Z" />
<path fill="#ffffff" opacity="1.00" d=" M 50.09 116.34 C 53.41 116.52 48.52 119.30 50.09 116.34 Z" />
<path fill="#ffffff" opacity="1.00" d=" M 49.10 119.32 C 52.41 119.52 47.52 122.29 49.10 119.32 Z" />
<path fill="#ffffff" opacity="1.00" d=" M 249.15 120.54 C 250.52 120.71 250.76 121.38 249.87 122.57 C 248.47 122.40 248.23 121.72 249.15 120.54 Z" />
<path fill="#ffffff" opacity="1.00" d=" M 48.15 122.54 C 49.53 122.72 49.76 123.40 48.85 124.58 C 47.47 124.39 47.23 123.71 48.15 122.54 Z" />
<path fill="#ffffff" opacity="1.00" d=" M 250.14 124.55 C 251.52 124.71 251.76 125.39 250.87 126.58 C 249.47 126.41 249.23 125.73 250.14 124.55 Z" />
<path fill="#ffffff" opacity="1.00" d=" M 47.15 126.54 C 48.53 126.72 48.76 127.40 47.85 128.58 C 46.47 128.40 46.23 127.72 47.15 126.54 Z" />
<path fill="#ffffff" opacity="1.00" d=" M 251.14 128.53 C 252.52 128.70 252.76 129.38 251.86 130.56 C 250.46 130.39 250.22 129.71 251.14 128.53 Z" />
<path fill="#ffffff" opacity="1.00" d=" M 46.23 130.60 C 47.66 130.39 47.71 132.84 46.79 133.48 C 45.35 133.72 45.28 131.23 46.23 130.60 Z" />
<path fill="#ffffff" opacity="1.00" d=" M 252.22 134.59 C 253.65 134.38 253.70 136.84 252.78 137.48 C 251.33 137.71 251.28 135.22 252.22 134.59 Z" />
<path fill="#ffffff" opacity="1.00" d=" M 45.23 136.60 C 46.66 136.39 46.71 138.84 45.79 139.48 C 44.34 139.71 44.29 137.22 45.23 136.60 Z" />
<path fill="#ffffff" opacity="1.00" d=" M 154.39 140.21 L 155.34 140.24 C 155.05 140.68 154.47 141.55 154.17 141.99 L 153.79 141.13 L 154.39 140.21 Z" />
<path fill="#ffffff" opacity="1.00" d=" M 253.28 141.25 L 253.73 141.30 C 253.88 147.59 254.13 153.91 253.58 160.19 C 252.62 153.92 253.22 147.56 253.28 141.25 Z" />
<path fill="#ffffff" opacity="1.00" d=" M 166.04 142.50 C 166.11 142.38 166.25 142.15 166.32 142.03 C 166.25 142.15 166.11 142.38 166.04 142.50 Z" />
<path fill="#ffffff" opacity="1.00" d=" M 164.07 145.43 C 164.14 145.32 164.29 145.11 164.36 145.01 C 164.29 145.11 164.14 145.32 164.07 145.43 Z" />
<path fill="#ffffff" opacity="1.00" d=" M 148.43 149.43 C 147.78 147.68 148.37 146.94 150.22 147.23 C 149.83 148.13 149.23 148.86 148.43 149.43 Z" />
<path fill="#ffffff" opacity="1.00" d=" M 161.04 149.43 C 161.11 149.34 161.26 149.16 161.33 149.07 C 161.26 149.16 161.11 149.34 161.04 149.43 Z" />
<path fill="#ffffff" opacity="1.00" d=" M 153.85 157.69 C 154.68 156.63 155.58 155.63 156.57 154.72 C 158.05 156.17 155.42 159.00 153.85 157.69 Z" />
<path fill="#ffffff" opacity="1.00" d=" M 45.22 162.52 C 46.66 162.28 46.72 164.77 45.78 165.41 C 44.35 165.61 44.29 163.16 45.22 162.52 Z" />
<path fill="#ffffff" opacity="1.00" d=" M 252.27 163.45 C 253.77 163.54 253.72 167.27 252.29 167.44 C 251.47 166.35 251.45 164.55 252.27 163.45 Z" />
<path fill="#ffffff" opacity="1.00" d=" M 46.22 168.47 C 47.67 168.27 47.67 170.76 46.76 171.42 C 45.33 171.59 45.33 169.13 46.22 168.47 Z" />
<path fill="#ffffff" opacity="1.00" d=" M 251.14 170.42 C 252.52 170.60 252.76 171.28 251.85 172.47 C 250.48 172.29 250.24 171.60 251.14 170.42 Z" />
<path fill="#ffffff" opacity="1.00" d=" M 47.09 174.26 C 50.43 174.41 45.55 177.22 47.09 174.26 Z" />
<path fill="#ffffff" opacity="1.00" d=" M 250.14 175.46 C 251.53 175.62 251.77 176.29 250.86 177.47 C 249.46 177.30 249.22 176.63 250.14 175.46 Z" />
<path fill="#ffffff" opacity="1.00" d=" M 48.13 177.43 C 49.52 177.59 49.76 178.27 48.86 179.45 C 47.47 179.28 47.23 178.61 48.13 177.43 Z" />
<path fill="#ffffff" opacity="1.00" d=" M 249.41 179.51 C 251.14 179.95 249.93 183.75 248.34 183.60 C 247.67 182.31 248.41 180.44 249.41 179.51 Z" />
<path fill="#ffffff" opacity="1.00" d=" M 49.09 181.25 C 52.42 181.39 47.54 184.21 49.09 181.25 Z" />
<path fill="#ffffff" opacity="1.00" d=" M 50.05 183.90 C 51.60 186.04 52.35 188.61 52.79 191.19 C 51.47 188.93 50.63 186.44 50.05 183.90 Z" />
<path fill="#ffffff" opacity="1.00" d=" M 247.10 185.22 C 250.43 185.41 245.53 188.18 247.10 185.22 Z" />
<path fill="#ffffff" opacity="1.00" d=" M 246.10 188.24 C 249.43 188.42 244.53 191.19 246.10 188.24 Z" />
<path fill="#ffffff" opacity="1.00" d=" M 239.28 202.15 C 240.90 202.23 240.03 204.68 238.83 204.78 C 237.32 204.67 238.18 202.30 239.28 202.15 Z" />
<path fill="#ffffff" opacity="1.00" d=" M 60.05 205.21 C 63.39 205.31 58.54 208.19 60.05 205.21 Z" />
<path fill="#ffffff" opacity="1.00" d=" M 236.13 207.18 C 239.47 207.32 234.59 210.16 236.13 207.18 Z" />
<path fill="#ffffff" opacity="1.00" d=" M 234.16 210.16 C 237.50 210.35 232.57 213.10 234.16 210.16 Z" />
<path fill="#ffffff" opacity="1.00" d=" M 64.02 211.18 C 67.36 211.27 62.52 214.16 64.02 211.18 Z" />
<path fill="#ffffff" opacity="1.00" d=" M 231.16 214.17 C 234.50 214.36 229.57 217.10 231.16 214.17 Z" />
<path fill="#ffffff" opacity="1.00" d=" M 67.01 215.18 C 70.36 215.25 65.52 218.17 67.01 215.18 Z" />
<path fill="#ffffff" opacity="1.00" d=" M 227.22 219.11 C 228.44 219.77 228.37 220.45 227.00 221.14 C 225.75 220.47 225.83 219.79 227.22 219.11 Z" />
<path fill="#ffffff" opacity="1.00" d=" M 72.10 221.32 C 73.49 220.94 74.02 221.45 73.71 222.86 C 72.34 223.21 71.81 222.70 72.10 221.32 Z" />
<path fill="#ffffff" opacity="1.00" d=" M 77.15 226.35 C 78.36 225.67 80.31 227.30 79.84 228.61 C 78.63 229.28 76.66 227.66 77.15 226.35 Z" />
<path fill="#ffffff" opacity="1.00" d=" M 217.35 229.21 C 219.20 229.79 216.76 232.65 215.44 231.85 C 214.81 230.67 216.27 229.38 217.35 229.21 Z" />
<path fill="#ffffff" opacity="1.00" d=" M 84.26 232.34 C 84.81 232.89 84.81 232.89 84.26 232.34 Z" />
<path fill="#ffffff" opacity="1.00" d=" M 212.15 233.01 C 213.66 232.15 214.26 234.59 212.76 234.96 C 211.22 235.89 210.64 233.39 212.15 233.01 Z" />
<path fill="#ffffff" opacity="1.00" d=" M 88.25 235.33 C 88.80 235.88 88.80 235.88 88.25 235.33 Z" />
<path fill="#ffffff" opacity="1.00" d=" M 208.15 236.17 C 211.09 234.58 208.33 239.50 208.15 236.17 Z" />
<path fill="#ffffff" opacity="1.00" d=" M 90.40 237.14 C 93.37 235.61 90.54 240.47 90.40 237.14 Z" />
<path fill="#ffffff" opacity="1.00" d=" M 205.19 238.12 C 208.13 236.53 205.40 241.45 205.19 238.12 Z" />
<path fill="#ffffff" opacity="1.00" d=" M 94.12 239.49 C 95.00 238.66 97.19 239.71 96.57 240.97 C 95.65 241.86 93.65 240.72 94.12 239.49 Z" />
<path fill="#ffffff" opacity="1.00" d=" M 188.00 248.05 C 192.40 245.21 197.13 242.80 202.08 241.07 C 197.74 244.02 192.92 246.25 188.00 248.05 Z" />
<path fill="#ffffff" opacity="1.00" d=" M 109.39 247.24 C 110.43 246.46 112.08 247.32 112.56 248.39 C 112.27 250.11 108.83 248.71 109.39 247.24 Z" />
<path fill="#ffffff" opacity="1.00" d=" M 185.23 248.10 C 188.20 246.56 185.37 251.42 185.23 248.10 Z" />
<path fill="#ffffff" opacity="1.00" d=" M 114.33 249.09 C 117.32 247.57 114.44 252.42 114.33 249.09 Z" />
<path fill="#ffffff" opacity="1.00" d=" M 182.20 249.12 C 185.17 247.54 182.40 252.43 182.20 249.12 Z" />
<path fill="#ffffff" opacity="1.00" d=" M 117.33 250.10 C 120.30 248.55 117.49 253.42 117.33 250.10 Z" />
<path fill="#ffffff" opacity="1.00" d=" M 179.44 250.06 C 183.09 250.22 176.96 253.90 176.50 251.43 C 177.29 250.64 178.27 250.18 179.44 250.06 Z" />
<path fill="#ffffff" opacity="1.00" d=" M 120.55 251.15 C 121.73 250.24 122.41 250.48 122.59 251.87 C 121.40 252.76 120.72 252.52 120.55 251.15 Z" />
<path fill="#ffffff" opacity="1.00" d=" M 124.32 252.09 C 127.28 250.54 124.47 255.42 124.32 252.09 Z" />
<path fill="#ffffff" opacity="1.00" d=" M 172.22 252.10 C 175.20 250.54 172.40 255.41 172.22 252.10 Z" />
<path fill="#ffffff" opacity="1.00" d=" M 127.60 253.23 C 128.22 252.28 130.72 252.34 130.48 253.79 C 129.84 254.70 127.39 254.65 127.60 253.23 Z" />
<path fill="#ffffff" opacity="1.00" d=" M 167.49 253.22 C 168.14 252.31 170.61 252.34 170.42 253.77 C 169.77 254.68 167.27 254.66 167.49 253.22 Z" />
<path fill="#ffffff" opacity="1.00" d=" M 134.59 254.23 C 135.22 253.28 137.71 253.34 137.48 254.78 C 136.84 255.70 134.38 255.65 134.59 254.23 Z" />
<path fill="#ffffff" opacity="1.00" d=" M 160.49 254.21 C 161.14 253.31 163.61 253.34 163.42 254.77 C 162.77 255.68 160.27 255.66 160.49 254.21 Z" />
</g>
<g id="#febd1bff">
<path fill="#febd1b" opacity="1.00" d=" M 136.42 34.64 C 157.48 32.11 179.04 36.13 198.30 44.80 C 222.43 56.12 242.42 75.83 254.24 99.70 C 266.25 124.47 269.48 153.57 262.18 180.20 C 259.92 188.94 256.80 197.45 252.49 205.40 C 242.38 223.47 228.21 239.62 210.30 250.26 C 192.55 260.97 171.90 267.90 151.00 267.00 C 146.31 266.95 141.61 267.12 136.93 266.95 C 98.28 263.21 62.49 238.49 45.17 203.76 C 34.18 182.66 30.13 158.06 33.48 134.54 C 36.54 113.24 45.60 92.89 59.26 76.29 C 71.18 62.16 86.42 50.81 103.30 43.30 C 113.90 39.01 125.05 35.96 136.42 34.64 M 140.28 46.25 L 140.26 46.75 C 146.56 46.84 152.91 47.29 159.17 46.43 C 152.89 45.92 146.58 46.07 140.28 46.25 M 132.56 47.30 C 132.73 48.73 136.45 48.78 136.55 47.27 C 135.45 46.45 133.65 46.48 132.56 47.30 M 162.52 47.22 C 162.29 48.66 164.77 48.72 165.41 47.78 C 165.61 46.35 163.16 46.29 162.52 47.22 M 127.53 48.15 C 127.71 49.52 128.39 49.76 129.58 48.86 C 129.40 47.48 128.72 47.24 127.53 48.15 M 169.45 48.14 C 169.61 49.53 170.29 49.77 171.47 48.86 C 171.30 47.48 170.63 47.24 169.45 48.14 M 122.53 49.14 C 122.69 50.53 123.36 50.77 124.54 49.87 C 124.37 48.47 123.70 48.22 122.53 49.14 M 173.42 49.13 C 173.59 50.52 174.27 50.76 175.46 49.86 C 175.28 48.48 174.60 48.24 173.42 49.13 M 117.34 50.34 C 114.08 52.48 120.83 52.34 120.43 50.13 C 119.40 49.60 118.37 49.67 117.34 50.34 M 177.43 50.13 C 177.59 51.52 178.27 51.76 179.46 50.86 C 179.29 49.48 178.62 49.23 177.43 50.13 M 181.57 51.09 C 180.92 52.57 184.45 54.01 184.68 52.22 C 184.22 51.16 182.60 50.34 181.57 51.09 M 112.31 52.21 C 109.68 53.56 113.18 54.99 114.22 53.19 C 115.47 51.90 113.04 51.37 112.31 52.21 M 186.56 53.09 C 185.91 54.57 189.44 56.02 189.68 54.23 C 189.21 53.17 187.60 52.36 186.56 53.09 M 103.86 56.93 C 106.16 56.45 108.28 55.41 110.10 53.93 C 107.85 54.52 105.68 55.46 103.86 56.93 M 96.26 59.98 C 94.69 60.31 95.14 62.77 96.77 61.82 C 98.44 61.59 97.87 59.03 96.26 59.98 M 202.30 61.11 C 201.63 62.33 203.68 63.45 204.62 62.74 C 205.27 61.54 203.24 60.22 202.30 61.11 M 91.38 63.05 C 91.56 66.38 94.34 61.48 91.38 63.05 M 207.26 64.19 C 207.80 64.75 207.80 64.75 207.26 64.19 M 89.25 65.15 C 89.80 65.71 89.80 65.71 89.25 65.15 M 211.26 67.15 C 211.81 67.71 211.81 67.71 211.26 67.15 M 85.25 68.16 C 85.81 68.72 85.81 68.72 85.25 68.16 M 214.24 69.20 C 214.79 69.74 214.79 69.74 214.24 69.20 M 78.26 73.26 C 77.72 74.69 78.16 75.12 79.58 74.54 C 80.10 73.10 79.67 72.67 78.26 73.26 M 71.39 80.22 C 70.54 80.51 69.20 82.42 70.63 82.78 C 72.32 83.07 73.93 79.21 71.39 80.22 M 67.23 85.32 C 66.01 85.32 65.20 87.71 66.78 87.78 C 68.05 87.80 68.83 85.40 67.23 85.32 M 230.31 85.26 C 230.85 85.80 230.85 85.80 230.31 85.26 M 232.15 87.41 C 230.63 90.39 235.48 87.53 232.15 87.41 M 64.16 90.24 C 64.71 90.80 64.71 90.80 64.16 90.24 M 62.03 92.40 C 60.47 95.37 65.36 92.56 62.03 92.40 M 235.30 92.24 C 235.86 92.78 235.86 92.78 235.30 92.24 M 237.27 95.38 C 236.55 96.31 237.67 98.37 238.89 97.69 C 239.78 96.75 238.47 94.73 237.27 95.38 M 60.19 96.23 C 60.75 96.78 60.75 96.78 60.19 96.23 M 136.68 96.89 C 135.99 97.00 134.62 97.23 133.93 97.34 L 133.23 96.75 L 132.16 97.02 L 131.83 97.87 L 131.00 98.15 C 129.53 97.02 128.58 97.32 128.17 99.03 L 127.43 99.20 C 124.28 99.43 121.02 100.71 119.09 103.31 C 117.99 104.01 116.94 104.80 115.87 105.54 C 115.77 105.61 115.57 105.75 115.47 105.82 C 114.93 106.19 113.85 106.93 113.32 107.30 L 112.48 107.16 L 111.92 107.91 C 112.22 108.14 112.83 108.59 113.13 108.82 C 113.80 109.81 114.53 110.77 115.38 111.63 C 114.77 113.36 115.39 114.09 117.22 113.82 C 117.44 114.21 117.88 115.00 118.11 115.40 C 118.51 117.50 122.03 115.37 120.70 113.85 C 121.29 113.48 122.46 112.73 123.05 112.36 C 123.16 112.29 123.37 112.15 123.47 112.08 C 131.38 106.56 141.97 104.55 151.17 107.79 L 151.25 108.74 L 152.24 109.24 L 153.06 108.78 C 154.52 110.10 156.05 111.35 157.48 112.72 C 156.24 113.72 157.61 116.53 159.17 115.77 C 161.87 123.97 160.15 133.18 155.34 140.24 L 154.39 140.21 L 153.79 141.13 L 154.17 141.99 C 152.82 143.71 151.48 145.43 150.22 147.23 C 148.37 146.94 147.78 147.68 148.43 149.43 C 136.77 162.39 123.59 173.92 111.77 186.73 C 110.69 189.88 111.52 193.46 111.24 196.78 C 132.94 196.58 154.65 196.81 176.36 196.66 C 176.12 193.22 176.12 189.77 176.36 186.34 C 159.37 186.12 142.38 186.55 125.40 186.13 C 134.37 176.17 144.68 167.47 153.85 157.69 C 155.42 159.00 158.05 156.17 156.57 154.72 C 158.19 153.08 159.62 151.25 161.04 149.43 C 161.11 149.34 161.26 149.16 161.33 149.07 C 162.25 147.86 163.18 146.66 164.07 145.43 C 164.14 145.32 164.29 145.11 164.36 145.01 C 164.78 144.38 165.62 143.12 166.04 142.50 C 166.11 142.38 166.25 142.15 166.32 142.03 C 173.09 131.10 174.51 115.55 165.68 105.33 C 166.13 103.53 165.45 102.85 163.64 103.31 C 163.12 102.95 162.06 102.24 161.54 101.88 C 161.43 101.82 161.22 101.69 161.12 101.63 C 158.49 100.19 155.78 98.79 152.86 98.06 C 152.46 96.29 151.56 96.00 150.14 97.19 L 149.39 96.93 C 149.00 96.72 148.23 96.29 147.84 96.07 C 144.18 96.26 139.95 94.99 136.68 96.89 M 52.26 111.29 C 51.19 111.78 50.40 113.40 51.10 114.46 C 52.57 115.06 54.03 111.54 52.26 111.29 M 246.02 111.96 C 246.53 114.49 247.35 116.99 248.98 119.04 C 248.33 116.56 247.47 114.09 246.02 111.96 M 50.09 116.34 C 48.52 119.30 53.41 116.52 50.09 116.34 M 49.10 119.32 C 47.52 122.29 52.41 119.52 49.10 119.32 M 249.15 120.54 C 248.23 121.72 248.47 122.40 249.87 122.57 C 250.76 121.38 250.52 120.71 249.15 120.54 M 48.15 122.54 C 47.23 123.71 47.47 124.39 48.85 124.58 C 49.76 123.40 49.53 122.72 48.15 122.54 M 250.14 124.55 C 249.23 125.73 249.47 126.41 250.87 126.58 C 251.76 125.39 251.52 124.71 250.14 124.55 M 47.15 126.54 C 46.23 127.72 46.47 128.40 47.85 128.58 C 48.76 127.40 48.53 126.72 47.15 126.54 M 251.14 128.53 C 250.22 129.71 250.46 130.39 251.86 130.56 C 252.76 129.38 252.52 128.70 251.14 128.53 M 46.23 130.60 C 45.28 131.23 45.35 133.72 46.79 133.48 C 47.71 132.84 47.66 130.39 46.23 130.60 M 252.22 134.59 C 251.28 135.22 251.33 137.71 252.78 137.48 C 253.70 136.84 253.65 134.38 252.22 134.59 M 45.23 136.60 C 44.29 137.22 44.34 139.71 45.79 139.48 C 46.71 138.84 46.66 136.39 45.23 136.60 M 253.28 141.25 C 253.22 147.56 252.62 153.92 253.58 160.19 C 254.13 153.91 253.88 147.59 253.73 141.30 L 253.28 141.25 M 45.22 162.52 C 44.29 163.16 44.35 165.61 45.78 165.41 C 46.72 164.77 46.66 162.28 45.22 162.52 M 252.27 163.45 C 251.45 164.55 251.47 166.35 252.29 167.44 C 253.72 167.27 253.77 163.54 252.27 163.45 M 46.22 168.47 C 45.33 169.13 45.33 171.59 46.76 171.42 C 47.67 170.76 47.67 168.27 46.22 168.47 M 251.14 170.42 C 250.24 171.60 250.48 172.29 251.85 172.47 C 252.76 171.28 252.52 170.60 251.14 170.42 M 47.09 174.26 C 45.55 177.22 50.43 174.41 47.09 174.26 M 250.14 175.46 C 249.22 176.63 249.46 177.30 250.86 177.47 C 251.77 176.29 251.53 175.62 250.14 175.46 M 48.13 177.43 C 47.23 178.61 47.47 179.28 48.86 179.45 C 49.76 178.27 49.52 177.59 48.13 177.43 M 249.41 179.51 C 248.41 180.44 247.67 182.31 248.34 183.60 C 249.93 183.75 251.14 179.95 249.41 179.51 M 49.09 181.25 C 47.54 184.21 52.42 181.39 49.09 181.25 M 50.05 183.90 C 50.63 186.44 51.47 188.93 52.79 191.19 C 52.35 188.61 51.60 186.04 50.05 183.90 M 247.10 185.22 C 245.53 188.18 250.43 185.41 247.10 185.22 M 246.10 188.24 C 244.53 191.19 249.43 188.42 246.10 188.24 M 239.28 202.15 C 238.18 202.30 237.32 204.67 238.83 204.78 C 240.03 204.68 240.90 202.23 239.28 202.15 M 60.05 205.21 C 58.54 208.19 63.39 205.31 60.05 205.21 M 236.13 207.18 C 234.59 210.16 239.47 207.32 236.13 207.18 M 234.16 210.16 C 232.57 213.10 237.50 210.35 234.16 210.16 M 64.02 211.18 C 62.52 214.16 67.36 211.27 64.02 211.18 M 231.16 214.17 C 229.57 217.10 234.50 214.36 231.16 214.17 M 67.01 215.18 C 65.52 218.17 70.36 215.25 67.01 215.18 M 227.22 219.11 C 225.83 219.79 225.75 220.47 227.00 221.14 C 228.37 220.45 228.44 219.77 227.22 219.11 M 72.10 221.32 C 71.81 222.70 72.34 223.21 73.71 222.86 C 74.02 221.45 73.49 220.94 72.10 221.32 M 77.15 226.35 C 76.66 227.66 78.63 229.28 79.84 228.61 C 80.31 227.30 78.36 225.67 77.15 226.35 M 217.35 229.21 C 216.27 229.38 214.81 230.67 215.44 231.85 C 216.76 232.65 219.20 229.79 217.35 229.21 M 84.26 232.34 C 84.81 232.89 84.81 232.89 84.26 232.34 M 212.15 233.01 C 210.64 233.39 211.22 235.89 212.76 234.96 C 214.26 234.59 213.66 232.15 212.15 233.01 M 88.25 235.33 C 88.80 235.88 88.80 235.88 88.25 235.33 M 208.15 236.17 C 208.33 239.50 211.09 234.58 208.15 236.17 M 90.40 237.14 C 90.54 240.47 93.37 235.61 90.40 237.14 M 205.19 238.12 C 205.40 241.45 208.13 236.53 205.19 238.12 M 94.12 239.49 C 93.65 240.72 95.65 241.86 96.57 240.97 C 97.19 239.71 95.00 238.66 94.12 239.49 M 188.00 248.05 C 192.92 246.25 197.74 244.02 202.08 241.07 C 197.13 242.80 192.40 245.21 188.00 248.05 M 109.39 247.24 C 108.83 248.71 112.27 250.11 112.56 248.39 C 112.08 247.32 110.43 246.46 109.39 247.24 M 185.23 248.10 C 185.37 251.42 188.20 246.56 185.23 248.10 M 114.33 249.09 C 114.44 252.42 117.32 247.57 114.33 249.09 M 182.20 249.12 C 182.40 252.43 185.17 247.54 182.20 249.12 M 117.33 250.10 C 117.49 253.42 120.30 248.55 117.33 250.10 M 179.44 250.06 C 178.27 250.18 177.29 250.64 176.50 251.43 C 176.96 253.90 183.09 250.22 179.44 250.06 M 120.55 251.15 C 120.72 252.52 121.40 252.76 122.59 251.87 C 122.41 250.48 121.73 250.24 120.55 251.15 M 124.32 252.09 C 124.47 255.42 127.28 250.54 124.32 252.09 M 172.22 252.10 C 172.40 255.41 175.20 250.54 172.22 252.10 M 127.60 253.23 C 127.39 254.65 129.84 254.70 130.48 253.79 C 130.72 252.34 128.22 252.28 127.60 253.23 M 167.49 253.22 C 167.27 254.66 169.77 254.68 170.42 253.77 C 170.61 252.34 168.14 252.31 167.49 253.22 M 134.59 254.23 C 134.38 255.65 136.84 255.70 137.48 254.78 C 137.71 253.34 135.22 253.28 134.59 254.23 M 160.49 254.21 C 160.27 255.66 162.77 255.68 163.42 254.77 C 163.61 253.34 161.14 253.31 160.49 254.21 Z" />
</g>
<g id="#0f1112ff">
<path fill="#0f1112" opacity="1.00" d=" M 133.93 97.34 C 134.62 97.23 135.99 97.00 136.68 96.89 C 140.91 96.50 145.16 96.61 149.39 96.93 L 150.14 97.19 C 150.94 97.79 151.85 98.08 152.86 98.06 C 155.78 98.79 158.49 100.19 161.12 101.63 C 161.22 101.69 161.43 101.82 161.54 101.88 C 162.06 102.24 163.12 102.95 163.64 103.31 C 164.12 104.18 164.80 104.85 165.68 105.33 C 174.51 115.55 173.09 131.10 166.32 142.03 C 166.25 142.15 166.11 142.38 166.04 142.50 C 165.62 143.12 164.78 144.38 164.36 145.01 C 164.29 145.11 164.14 145.32 164.07 145.43 C 163.18 146.66 162.25 147.86 161.33 149.07 C 161.26 149.16 161.11 149.34 161.04 149.43 C 159.62 151.25 158.19 153.08 156.57 154.72 C 155.58 155.63 154.68 156.63 153.85 157.69 C 144.68 167.47 134.37 176.17 125.40 186.13 C 142.38 186.55 159.37 186.12 176.36 186.34 C 176.12 189.77 176.12 193.22 176.36 196.66 C 154.65 196.81 132.94 196.58 111.24 196.78 C 111.52 193.46 110.69 189.88 111.77 186.73 C 123.59 173.92 136.77 162.39 148.43 149.43 C 149.23 148.86 149.83 148.13 150.22 147.23 C 151.48 145.43 152.82 143.71 154.17 141.99 C 154.47 141.55 155.05 140.68 155.34 140.24 C 160.15 133.18 161.87 123.97 159.17 115.77 C 158.97 114.59 158.45 113.45 157.48 112.72 C 156.05 111.35 154.52 110.10 153.06 108.78 C 152.58 108.53 151.64 108.04 151.17 107.79 C 141.97 104.55 131.38 106.56 123.47 112.08 C 123.37 112.15 123.16 112.29 123.05 112.36 C 122.46 112.73 121.29 113.48 120.70 113.85 C 119.79 114.29 118.92 114.80 118.11 115.40 C 117.88 115.00 117.44 114.21 117.22 113.82 C 116.84 112.89 116.22 112.16 115.38 111.63 C 114.53 110.77 113.80 109.81 113.13 108.82 C 113.18 108.44 113.27 107.68 113.32 107.30 C 113.85 106.93 114.93 106.19 115.47 105.82 C 115.57 105.75 115.77 105.61 115.87 105.54 C 116.94 104.80 117.99 104.01 119.09 103.31 C 121.81 101.83 124.61 100.50 127.43 99.20 L 128.17 99.03 C 129.21 99.06 130.16 98.76 131.00 98.15 L 131.83 97.87 C 132.36 97.74 133.41 97.47 133.93 97.34 Z" />
</g>
</svg>
