<?xml version="1.0" encoding="UTF-8" ?>
<!DOCTYPE svg PUBLIC "-//W3C//DTD SVG 1.1//EN" "http://www.w3.org/Graphics/SVG/1.1/DTD/svg11.dtd">
<svg width="300pt" height="300pt" viewBox="0 0 300 300" version="1.1" xmlns="http://www.w3.org/2000/svg">
<g id="#000000ff">
<path fill="#000000" opacity="1.00" d=" M 137.24 46.31 C 153.19 44.60 169.62 45.74 184.82 51.07 C 204.15 57.61 221.48 69.86 234.22 85.79 C 248.73 103.85 257.13 126.75 257.63 149.92 C 258.32 174.35 250.32 198.96 235.21 218.20 C 218.36 240.22 192.65 255.32 165.09 258.77 C 149.21 260.66 132.79 259.72 117.57 254.57 C 93.17 246.98 72.05 229.96 58.94 208.08 C 37.64 173.91 38.42 127.41 60.97 94.02 C 77.67 67.88 106.48 49.99 137.24 46.31 M 140.76 73.64 C 128.88 73.89 116.85 77.27 107.04 84.06 C 96.17 92.02 89.43 106.28 92.33 119.71 C 93.57 127.07 98.06 133.53 103.43 138.52 C 111.59 144.68 122.36 147.02 132.41 145.43 C 131.31 148.28 130.24 151.26 130.33 154.36 C 130.45 159.51 133.32 164.21 136.98 167.68 C 130.51 167.69 124.13 168.86 117.76 169.80 C 106.82 171.67 95.84 176.09 88.24 184.44 C 83.49 190.03 80.49 197.51 81.55 204.92 C 82.48 213.82 88.90 221.30 96.60 225.39 C 105.58 230.13 115.88 231.84 125.96 231.69 C 139.49 231.75 153.47 228.72 164.54 220.61 C 173.22 214.62 179.06 204.57 179.67 194.01 C 179.72 187.12 178.08 179.90 173.57 174.51 C 167.89 167.46 160.32 162.32 153.40 156.62 C 149.43 153.64 148.68 147.47 151.60 143.52 C 156.55 136.82 164.56 132.93 168.64 125.49 C 177.04 111.08 171.70 91.13 157.94 82.03 C 162.20 81.86 166.48 82.28 170.73 81.83 C 175.80 79.31 180.15 75.53 185.35 73.24 C 170.50 73.93 155.62 73.16 140.76 73.64 M 204.17 119.17 C 204.34 126.03 204.18 132.90 204.28 139.76 C 197.42 139.72 190.56 139.81 183.69 139.69 C 183.77 143.23 183.77 146.77 183.69 150.31 C 190.56 150.19 197.42 150.28 204.28 150.24 C 204.22 157.16 204.27 164.08 204.25 170.99 C 207.66 171.00 211.08 171.00 214.50 171.00 C 214.47 164.07 214.56 157.14 214.43 150.22 C 221.39 150.31 228.35 150.18 235.31 150.31 C 235.23 146.77 235.23 143.23 235.31 139.69 C 228.35 139.83 221.39 139.68 214.43 139.79 C 214.59 132.93 214.40 126.07 214.56 119.22 C 211.10 119.27 207.63 119.27 204.17 119.17 Z" />
<path fill="#000000" opacity="1.00" d=" M 123.32 82.21 C 128.88 80.30 135.27 81.70 139.87 85.26 C 146.04 89.84 149.65 97.04 152.13 104.14 C 154.30 111.43 155.48 119.35 153.61 126.83 C 151.63 134.69 143.66 139.94 135.78 140.14 C 127.63 139.87 120.15 134.65 116.38 127.52 C 110.98 117.67 107.98 105.86 110.94 94.77 C 112.41 88.73 117.53 84.10 123.32 82.21 Z" />
<path fill="#000000" opacity="1.00" d=" M 112.78 178.59 C 122.35 174.34 133.10 173.23 143.48 173.43 C 150.66 179.15 159.05 183.92 163.87 192.03 C 167.35 199.05 166.36 208.19 160.99 214.02 C 155.09 220.76 145.66 223.03 137.02 222.96 C 126.87 223.37 116.13 221.29 108.00 214.90 C 102.30 210.53 98.78 203.30 99.66 196.08 C 99.92 188.20 105.73 181.55 112.78 178.59 Z" />
</g>
</svg>
