<?xml version="1.0" encoding="UTF-8" ?>
<!DOCTYPE svg PUBLIC "-//W3C//DTD SVG 1.1//EN" "http://www.w3.org/Graphics/SVG/1.1/DTD/svg11.dtd">
<svg width="300pt" height="300pt" viewBox="0 0 300 300" version="1.1" xmlns="http://www.w3.org/2000/svg">
<g id="#000000ff">
<path fill="#000000" opacity="1.00" d=" M 140.51 42.80 C 173.69 39.44 208.20 52.60 230.34 77.61 C 246.71 95.40 256.22 119.04 257.51 143.12 C 258.65 165.12 253.15 187.64 241.10 206.16 C 223.65 233.99 192.69 252.74 159.91 255.14 C 125.82 258.30 90.57 243.61 69.00 217.00 C 57.54 203.63 50.16 187.06 46.46 169.92 C 43.20 151.44 43.94 131.98 50.32 114.22 C 59.16 87.76 79.04 65.10 104.34 53.25 C 115.57 47.40 127.98 44.25 140.51 42.80 M 100.25 82.34 C 91.29 84.32 84.03 92.64 84.09 101.97 C 83.91 132.97 84.00 163.99 84.04 195.00 C 83.91 201.78 87.17 208.40 92.74 212.30 C 96.80 215.34 102.05 215.97 106.98 216.01 C 136.64 215.98 166.30 216.01 195.97 216.00 C 201.58 216.06 207.43 214.54 211.49 210.47 C 216.25 206.43 218.29 200.04 218.25 193.94 C 218.25 163.99 218.25 134.02 218.25 104.07 C 218.30 99.34 217.07 94.55 214.41 90.62 C 210.20 85.37 203.79 81.62 196.92 81.78 C 166.94 81.70 136.96 81.79 106.97 81.73 C 104.72 81.75 102.46 81.87 100.25 82.34 Z" />
<path fill="#000000" opacity="1.00" d=" M 187.29 92.41 C 193.69 88.81 202.23 94.84 201.05 102.05 C 200.88 109.21 191.61 112.97 186.00 109.10 C 179.69 105.64 180.85 95.07 187.29 92.41 Z" />
<path fill="#000000" opacity="1.00" d=" M 175.76 118.13 C 184.26 118.38 192.77 118.21 201.27 118.23 C 201.19 139.81 201.33 161.39 201.21 182.97 C 201.33 191.05 194.07 198.16 186.02 197.97 C 163.01 198.04 140.01 197.98 117.01 198.00 C 111.32 198.24 105.53 195.31 102.83 190.22 C 100.31 186.28 100.76 181.43 100.74 176.98 C 100.73 162.48 100.81 147.98 100.70 133.48 C 106.61 133.49 112.53 133.54 118.44 133.45 C 115.35 141.94 115.77 151.56 119.18 159.89 C 123.51 168.69 130.95 176.26 140.39 179.40 C 152.02 184.02 165.81 181.18 175.38 173.37 C 182.07 167.33 187.38 159.20 188.10 150.03 C 189.92 138.19 184.88 125.77 175.76 118.13 Z" />
<path fill="#000000" opacity="1.00" d=" M 146.40 128.59 C 155.89 125.06 167.45 131.17 169.67 141.08 C 172.32 150.22 166.33 160.68 157.10 162.98 C 148.34 165.62 138.08 160.46 135.28 151.68 C 131.81 142.62 137.11 131.48 146.40 128.59 Z" />
</g>
</svg>
