<?xml version="1.0" encoding="UTF-8" ?>
<!DOCTYPE svg PUBLIC "-//W3C//DTD SVG 1.1//EN" "http://www.w3.org/Graphics/SVG/1.1/DTD/svg11.dtd">
<svg width="300pt" height="300pt" viewBox="0 0 300 300" version="1.1" xmlns="http://www.w3.org/2000/svg">
<g id="#000000ff">
<path fill="#000000" opacity="1.00" d=" M 146.34 42.44 C 178.24 40.81 210.28 54.72 231.33 78.66 C 249.12 99.20 258.97 126.66 257.55 153.87 C 256.73 175.22 248.88 196.00 236.18 213.10 C 214.20 243.13 175.32 259.53 138.47 254.75 C 116.33 252.30 95.03 242.47 78.81 227.20 C 61.78 211.83 50.29 190.62 46.15 168.10 C 43.11 149.35 44.28 129.69 51.15 111.88 C 65.09 72.43 104.60 43.85 146.34 42.44 M 107.24 77.45 C 104.34 78.94 101.40 81.05 100.45 84.34 C 97.73 90.71 101.25 99.30 108.24 100.92 C 115.54 103.45 124.05 97.68 124.43 89.99 C 125.42 81.26 115.27 73.73 107.24 77.45 M 97.72 107.24 C 97.77 138.41 97.77 169.59 97.72 200.76 C 106.67 200.75 115.62 200.73 124.57 200.77 C 124.45 169.59 124.45 138.41 124.57 107.23 C 115.62 107.27 106.67 107.25 97.72 107.24 M 137.71 107.25 C 137.78 138.42 137.77 169.59 137.72 200.76 C 146.66 200.76 155.61 200.70 164.55 200.79 C 164.42 182.18 164.55 163.56 164.48 144.95 C 164.29 142.39 165.25 139.92 166.91 137.99 C 170.59 132.57 177.80 130.91 183.97 131.80 C 188.37 132.22 191.22 136.83 190.92 141.00 C 191.11 160.91 190.94 180.83 191.01 200.75 C 199.95 200.79 208.89 200.66 217.83 200.83 C 217.65 184.54 217.80 168.26 217.75 151.97 C 217.76 142.72 218.05 133.13 214.55 124.38 C 212.41 119.33 209.41 114.31 204.55 111.45 C 196.63 105.73 185.97 106.67 177.16 109.55 C 172.68 111.48 167.73 113.03 164.36 116.75 C 164.50 113.58 164.53 110.40 164.57 107.23 C 155.62 107.28 146.66 107.23 137.71 107.25 Z" />
</g>
</svg>
