<?xml version="1.0" encoding="UTF-8" ?>
<!DOCTYPE svg PUBLIC "-//W3C//DTD SVG 1.1//EN" "http://www.w3.org/Graphics/SVG/1.1/DTD/svg11.dtd">
<svg width="167pt" height="84pt" viewBox="0 0 167 84" version="1.1" xmlns="http://www.w3.org/2000/svg">
<g id="#2c312679">
<path fill="#2c3126" opacity="0.47" d=" M 17.98 0.00 L 28.88 0.00 L 27.16 0.82 C 24.66 0.67 22.17 0.48 19.68 0.20 L 17.98 0.00 Z" />
<path fill="#2c3126" opacity="0.47" d=" M 135.83 0.00 L 147.99 0.00 L 146.07 0.35 C 143.39 0.60 140.70 0.68 138.01 0.65 L 135.83 0.00 Z" />
</g>
<g id="#68903dff">
<path fill="#68903d" opacity="1.00" d=" M 1.00 1.00 C 5.31 1.00 9.63 1.00 13.94 1.00 C 13.98 1.58 14.05 2.75 14.08 3.34 C 15.92 2.24 17.74 1.11 19.68 0.20 C 22.17 0.48 24.66 0.67 27.16 0.82 C 27.96 0.88 29.56 1.01 30.36 1.07 C 30.98 1.39 32.23 2.03 32.85 2.36 C 33.30 3.06 33.76 3.77 34.21 4.48 C 37.94 6.23 38.71 10.29 39.93 13.80 C 40.00 16.59 39.99 19.38 39.91 22.16 C 39.10 24.24 38.44 26.38 37.78 28.51 C 35.78 29.93 34.04 31.66 32.58 33.63 C 32.05 33.96 30.99 34.62 30.46 34.96 C 24.92 35.84 18.61 36.63 14.00 32.66 C 14.00 35.94 14.00 39.23 14.00 42.51 C 9.27 44.93 5.09 48.15 1.18 51.71 C 0.77 34.81 1.11 17.90 1.00 1.00 M 14.36 14.46 C 14.09 16.45 14.00 18.46 13.91 20.47 C 15.05 21.60 16.17 22.75 17.29 23.91 C 17.79 24.00 18.79 24.18 19.29 24.27 C 22.07 25.82 24.68 22.92 27.11 21.86 C 27.34 19.34 27.35 16.80 27.11 14.28 C 23.90 10.39 17.10 9.66 14.36 14.46 Z" />
<path fill="#68903d" opacity="1.00" d=" M 53.45 1.49 C 57.86 -0.29 62.81 0.24 67.39 0.98 C 68.47 1.87 69.57 2.74 70.70 3.57 C 70.80 2.93 71.00 1.64 71.10 1.00 C 75.07 1.00 79.03 1.00 83.00 1.00 C 82.99 12.54 83.03 24.07 82.98 35.61 C 78.98 35.58 74.99 35.59 71.00 35.59 C 71.00 34.30 71.00 33.01 71.01 31.71 C 69.87 32.67 68.72 33.62 67.51 34.48 C 64.17 36.35 60.22 35.40 56.58 35.58 C 55.51 35.18 54.43 34.80 53.36 34.41 C 51.86 33.32 50.65 31.91 49.61 30.38 C 46.14 28.61 44.34 24.85 44.41 21.04 C 44.52 17.21 43.69 13.03 45.68 9.53 C 47.41 6.15 50.56 3.83 53.45 1.49 M 57.32 15.52 C 57.11 17.20 57.11 18.90 57.31 20.58 C 58.94 22.78 61.44 23.90 63.81 25.09 C 66.36 24.00 69.04 22.92 70.69 20.56 C 70.89 18.89 70.89 17.19 70.68 15.52 C 69.23 13.85 67.90 11.70 65.52 11.36 C 62.10 10.23 59.12 12.91 57.32 15.52 Z" />
<path fill="#68903d" opacity="1.00" d=" M 87.00 1.00 C 91.35 1.00 95.71 1.00 100.06 1.00 C 100.01 1.64 99.91 2.91 99.86 3.55 C 103.12 0.44 107.77 0.07 112.04 0.41 C 116.16 0.41 119.18 3.66 121.77 6.47 C 123.09 10.85 122.47 15.47 122.59 19.97 C 122.48 26.61 122.86 33.27 122.34 39.90 C 118.38 39.91 114.41 39.92 110.45 39.93 C 109.50 30.60 110.21 21.19 110.01 11.83 C 107.48 11.24 104.83 10.63 102.23 11.14 C 100.19 11.74 100.27 14.15 100.05 15.87 C 99.76 23.89 100.36 31.92 99.71 39.92 C 96.10 39.95 92.48 40.04 88.87 39.77 C 88.40 39.63 87.44 39.34 86.96 39.20 C 87.05 26.47 86.98 13.73 87.00 1.00 Z" />
<path fill="#68903d" opacity="1.00" d=" M 134.51 1.02 C 135.39 0.93 137.13 0.74 138.01 0.65 C 140.70 0.68 143.39 0.60 146.07 0.35 C 147.34 0.80 148.60 1.27 149.87 1.74 C 154.49 0.58 159.29 1.04 164.00 1.01 C 164.00 12.34 164.00 23.67 164.00 35.00 C 159.68 35.00 155.36 35.00 151.04 35.00 C 151.02 34.39 150.99 33.18 150.97 32.57 C 150.16 33.37 149.36 34.18 148.56 34.98 C 144.91 35.47 141.19 35.95 137.51 35.43 C 132.17 33.97 128.25 29.41 126.12 24.46 C 125.97 24.01 125.67 23.09 125.52 22.63 C 124.85 19.59 124.85 16.42 125.51 13.38 C 125.67 12.92 125.99 12.01 126.15 11.56 C 127.64 7.10 131.07 4.00 134.51 1.02 M 140.20 11.92 C 139.57 14.05 138.88 16.16 138.04 18.22 C 138.86 19.90 139.40 21.74 140.44 23.33 C 143.62 24.75 147.04 23.99 150.28 23.26 C 151.37 19.57 151.33 15.75 150.00 12.12 C 146.78 11.18 143.45 11.05 140.20 11.92 Z" />
</g>
<g id="#111b12ff">
<path fill="#111b12" opacity="1.00" d=" M 37.62 33.60 C 39.43 31.19 40.68 28.42 41.92 25.69 C 41.54 43.71 41.86 61.73 41.75 79.75 C 38.17 79.75 34.59 79.75 31.01 79.76 C 30.99 65.76 31.01 51.75 31.00 37.75 C 33.22 36.40 35.73 35.43 37.62 33.60 Z" />
<path fill="#111b12" opacity="1.00" d=" M 151.50 37.00 C 155.42 37.00 159.33 37.00 163.25 37.00 C 163.25 51.25 163.25 65.50 163.25 79.74 C 159.43 79.71 155.59 79.97 151.78 79.58 C 151.66 78.98 151.43 77.78 151.32 77.18 C 148.96 79.10 146.20 80.73 143.11 80.99 C 138.48 81.41 134.11 79.13 130.56 76.36 C 122.99 68.42 124.25 53.59 133.96 47.90 C 139.59 45.59 146.74 45.50 151.64 49.52 C 151.43 45.35 151.49 41.17 151.50 37.00 M 142.44 56.60 C 136.67 58.70 136.83 67.22 141.56 70.31 C 145.10 72.27 150.34 70.60 151.24 66.41 C 154.21 61.07 148.12 54.07 142.44 56.60 Z" />
<path fill="#111b12" opacity="1.00" d=" M 88.87 39.77 C 92.48 40.04 96.10 39.95 99.71 39.92 C 99.28 46.96 99.60 54.00 99.46 61.04 C 99.53 64.42 99.24 68.12 101.14 71.09 C 104.06 71.61 108.45 72.31 110.01 69.05 C 111.14 66.18 110.68 63.01 110.79 60.00 C 110.61 53.31 111.07 46.60 110.45 39.93 C 114.41 39.92 118.38 39.91 122.34 39.90 C 122.16 49.60 122.36 59.31 122.26 69.01 C 122.26 72.40 120.79 75.99 117.74 77.73 C 109.49 83.44 98.11 82.23 90.05 76.78 C 88.96 73.62 87.66 70.43 87.74 67.02 C 87.74 57.92 87.74 48.81 87.77 39.70 L 88.87 39.77 Z" />
<path fill="#111b12" opacity="1.00" d=" M 51.36 48.15 C 57.88 44.49 66.04 42.51 73.10 45.89 C 77.51 47.45 80.64 51.19 82.96 55.07 C 84.22 59.73 84.14 64.73 83.19 69.43 C 79.80 77.95 69.76 82.63 60.92 80.92 C 57.36 80.45 54.29 78.48 51.10 76.97 C 49.08 73.74 46.00 70.97 45.24 67.09 C 44.67 64.20 44.65 61.18 45.20 58.28 C 45.94 54.23 49.25 51.48 51.36 48.15 M 61.50 55.43 C 58.99 57.52 56.15 60.38 57.04 63.99 C 57.84 66.73 60.00 69.02 62.39 70.50 C 68.59 72.53 75.02 64.17 71.19 58.75 C 69.11 55.87 64.93 52.86 61.50 55.43 Z" />
<path fill="#111b12" opacity="1.00" d=" M 7.31 51.40 C 12.40 45.64 21.06 45.51 27.96 47.43 C 28.00 50.84 28.00 54.24 28.04 57.64 C 25.03 55.80 21.07 54.67 17.97 56.97 C 13.70 60.14 14.22 66.76 17.78 70.22 C 20.92 72.21 24.94 71.37 28.07 69.77 C 27.87 73.01 28.44 76.38 27.56 79.54 C 22.02 82.19 15.34 81.13 10.26 77.92 C 6.41 76.25 4.74 72.16 3.38 68.50 C 1.28 62.65 3.38 55.96 7.31 51.40 Z" />
</g>
</svg>
