<?xml version="1.0" encoding="UTF-8" ?>
<!DOCTYPE svg PUBLIC "-//W3C//DTD SVG 1.1//EN" "http://www.w3.org/Graphics/SVG/1.1/DTD/svg11.dtd">
<svg width="300pt" height="300pt" viewBox="0 0 300 300" version="1.1" xmlns="http://www.w3.org/2000/svg">
<g id="#000000ff">
<path fill="#000000" opacity="1.00" d=" M 135.51 46.72 C 165.91 42.06 198.38 50.97 221.25 71.75 C 230.86 79.30 237.95 89.44 244.23 99.79 C 263.38 133.49 262.01 177.99 240.06 210.07 C 236.13 215.70 232.00 221.23 227.22 226.18 C 218.14 234.72 208.07 242.37 196.75 247.70 C 163.75 263.27 122.49 260.52 92.43 239.56 C 63.80 220.77 45.54 187.21 45.58 152.92 C 45.04 127.75 54.09 102.58 70.34 83.38 C 86.67 63.82 110.29 50.45 135.51 46.72 M 154.30 104.26 C 150.01 111.29 148.55 120.00 150.42 128.04 C 125.36 126.42 101.00 114.40 85.35 94.62 C 82.10 101.91 79.98 110.09 82.13 118.01 C 83.66 125.91 88.97 132.41 95.27 137.14 C 90.22 136.93 85.34 135.40 80.93 132.98 C 80.87 147.79 91.95 161.93 106.76 164.31 C 101.92 165.58 96.91 165.64 91.97 164.98 C 93.62 168.81 95.53 172.58 98.27 175.75 C 103.87 182.69 112.74 186.42 121.53 186.81 C 108.12 197.22 90.44 202.26 73.61 199.37 C 77.21 201.03 80.51 203.24 84.09 204.95 C 102.46 213.94 123.97 216.26 143.87 211.61 C 163.39 207.51 181.10 196.00 193.24 180.23 C 206.16 163.17 213.66 141.75 212.55 120.24 C 218.76 115.67 224.26 110.14 228.53 103.71 C 222.57 106.41 216.17 107.76 209.83 109.21 C 216.35 104.98 221.60 98.87 224.06 91.44 C 217.80 94.96 211.19 97.96 204.07 99.24 C 198.67 93.86 191.55 90.11 183.88 89.53 C 172.23 88.04 160.36 94.35 154.30 104.26 Z" />
</g>
</svg>
