<?xml version="1.0" encoding="UTF-8" ?>
<!DOCTYPE svg PUBLIC "-//W3C//DTD SVG 1.1//EN" "http://www.w3.org/Graphics/SVG/1.1/DTD/svg11.dtd">
<svg width="300pt" height="300pt" viewBox="0 0 300 300" version="1.1" xmlns="http://www.w3.org/2000/svg">
<g id="#000000ff">
<path fill="#000000" opacity="1.00" d=" M 146.35 43.50 C 174.56 42.36 203.15 52.77 223.64 72.27 C 246.70 93.42 259.36 125.18 257.52 156.38 C 256.08 183.62 243.90 210.36 223.58 228.69 C 211.06 241.03 194.97 249.45 178.10 254.12 C 154.10 260.46 127.86 258.30 105.39 247.65 C 78.44 235.38 57.18 211.18 48.44 182.89 C 43.43 167.13 42.14 150.20 44.77 133.87 C 50.27 96.06 77.82 62.48 113.92 49.91 C 124.33 46.12 135.29 44.02 146.35 43.50 M 114.49 115.69 C 111.18 116.14 107.56 116.55 105.00 118.94 C 101.68 121.98 100.73 126.69 100.11 130.96 C 98.78 142.57 98.72 154.32 99.67 165.96 C 100.20 171.14 100.62 176.80 103.99 181.03 C 107.17 184.80 112.39 185.39 117.00 185.65 C 138.64 187.08 160.38 187.08 182.03 185.80 C 187.02 185.36 192.86 185.52 196.55 181.53 C 199.67 178.57 200.34 174.12 200.88 170.06 C 202.14 159.85 202.17 149.52 201.64 139.26 C 201.27 134.32 200.99 129.30 199.59 124.52 C 198.32 120.25 194.55 116.72 190.05 116.22 C 175.81 113.97 161.33 114.60 146.97 114.50 C 136.13 114.43 125.27 114.48 114.49 115.69 Z" />
<path fill="#000000" opacity="1.00" d=" M 140.18 136.01 C 149.39 141.02 158.68 145.91 168.09 150.54 C 158.70 155.20 149.43 160.11 140.19 165.06 C 140.34 155.38 140.36 145.69 140.18 136.01 Z" />
</g>
</svg>
